<?xml version="1.0" encoding="utf-8"?>
<!-- Generator: Adobe Illustrator 16.0.0, SVG Export Plug-In . SVG Version: 6.00 Build 0)  -->
<!DOCTYPE svg PUBLIC "-//W3C//DTD SVG 1.1//EN" "http://www.w3.org/Graphics/SVG/1.1/DTD/svg11.dtd">
<svg version="1.1" xmlns="http://www.w3.org/2000/svg" xmlns:xlink="http://www.w3.org/1999/xlink" x="0px" y="0px"
	 width="454.19px" height="456.785px" viewBox="0 0 454.19 456.785" enable-background="new 0 0 454.19 456.785"
	 xml:space="preserve">
<g id="Extras" display="none">
</g>
<g id="Fonts">
</g>
<g id="Logos">
	<g>
		<path fill="#808285" d="M402.521,116.575c0.035,0.104,0.068,0.191,0.104,0.297c2.326,6.848,5.428,16.993,7.721,29.254
			c1.137,6.117,2.084,12.776,2.471,19.688c0.393,6.908,0.322,14.107-0.639,21.145c-0.479,3.514-1.129,7.02-2.111,10.355
			c-0.955,3.361-2.119,6.65-3.658,9.684l-0.549,1.158l-0.49,0.904l-0.473,0.936l-0.229,0.482c-0.123,0.195-0.324,0.463-0.488,0.688
			l-2.012,2.846l-0.133,0.176c0.777-0.869,0.189-0.205,0.348-0.383l-0.051,0.057l-0.195,0.242l-0.404,0.484l-0.791,0.977
			l-1.59,2.004l-1.797,1.746c-0.621,0.564-1.156,1.277-1.836,1.754l-2,1.557l-1.004,0.807c-0.348,0.234-0.723,0.436-1.086,0.662
			l-2.188,1.357c-0.717,0.5-1.549,0.752-2.32,1.158c-0.789,0.35-1.559,0.805-2.383,1.102l-2.502,0.869
			c-0.42,0.145-0.834,0.313-1.266,0.441l-1.297,0.307l-2.625,0.645l-2.682,0.381c-1.799,0.359-3.611,0.277-5.439,0.43
			c-0.91,0.012-1.811-0.068-2.721-0.088c-0.916-0.021-1.832-0.051-2.711-0.203l-2.686-0.332l-2.572-0.568
			c-0.895-0.15-1.686-0.43-2.5-0.688c-0.791-0.275-1.682-0.465-2.381-0.822c-0.736-0.314-1.475-0.625-2.205-0.938
			c-0.463-0.26-0.957-0.48-1.49-0.684l-0.209-0.076c-0.084-0.059-0.199-0.164-0.305-0.242l-0.609-0.498
			c14.84,24.887,51.666,12.828,70.381-3.871c6.971-7.129,11.516-14.611,15.27-22.211c-0.289-1.904-0.568-3.807-0.908-5.711
			C428.192,165.367,417.487,139.302,402.521,116.575z"/>
		<path fill="#231F20" d="M418.919,221.773c-18.715,16.699-55.541,28.758-70.381,3.871l-0.008-0.012l-1.248-1.021l-0.311-0.25
			l-0.152-0.131l-0.08-0.063c0.908,0.977,0.229,0.238,0.418,0.447l-0.412-0.416l-0.836-0.826c-2.162-2.238-3.834-4.859-4.877-7.607
			c-2.139-5.51-1.645-11.34,1.189-15.309c0.354-0.502,0.785-0.938,1.152-1.43c0.387-0.469,0.754-0.695,1.107-1.1l0.266-0.283
			c0.125-0.102,0.342-0.219,0.504-0.326l1.043-0.662l0.523-0.328l0.26-0.16l0.123-0.084l0.066-0.037
			c-0.16,0.072-0.244,0.115-0.285,0.137c0.033-0.018,0.064-0.035,0.021-0.014l0.861-0.416c2.285-1.16,4.545-1.85,6.676-1.895
			c4.268-0.166,8.096,1.793,10.693,4.189c2.658,2.336,4.338,4.895,5.303,6.518c0.496,0.77,0.871,1.588,1.123,2.088
			c0.252,0.508,0.373,0.768,0.373,0.768c0.592,1.188,1.977,1.785,3.262,1.348c1.398-0.473,2.148-1.99,1.67-3.391
			c0,0-0.09-0.279-0.273-0.814c-0.191-0.543-0.412-1.297-0.93-2.467c-0.975-2.271-2.457-5.414-5.504-8.963
			c-1.518-1.75-3.438-3.59-5.988-5.113c-2.498-1.561-5.641-2.834-9.201-3.262c-3.559-0.477-7.391,0.063-11.016,1.24
			c-0.459,0.146-0.926,0.293-1.389,0.441c-0.482,0.217-0.965,0.432-1.455,0.648l-1.131,0.496c-0.203,0.092-0.365,0.146-0.59,0.27
			l-0.748,0.447c-0.979,0.615-2.09,1.256-2.951,1.955c-0.846,0.715-1.746,1.41-2.559,2.207c-3.275,3.213-5.771,7.557-7.037,12.313
			c-1.281,4.76-1.391,9.898-0.447,14.918c0.961,5.021,2.975,9.941,5.869,14.43l1.133,1.662l0.578,0.832
			c0.229,0.256-0.424-0.424,0.541,0.596l0.063,0.076l0.129,0.154l0.256,0.305l1.047,1.219l0.523,0.617
			c0.094,0.104,0.162,0.195,0.273,0.311l0.443,0.406c1.189,1.08,2.432,2.146,3.709,3.18c1.154,0.838,2.273,1.57,3.439,2.352
			c1.152,0.834,2.346,1.379,3.541,2.051c1.199,0.648,2.416,1.313,3.662,1.799c1.248,0.525,2.5,1.049,3.75,1.576
			c1.289,0.418,2.572,0.838,3.863,1.252c1.297,0.453,2.617,0.768,3.947,1.061c1.328,0.293,2.668,0.635,4.02,0.871
			c2.721,0.344,5.469,0.877,8.266,0.912c1.4,0.063,2.803,0.137,4.213,0.162l4.262-0.197l2.145-0.121
			c0.707-0.074,1.424-0.193,2.135-0.289l4.301-0.656c1.43-0.242,2.832-0.672,4.258-1.018c1.412-0.402,2.881-0.67,4.256-1.215
			l4.166-1.564c0.695-0.271,1.398-0.523,2.08-0.82l2.002-1l4.002-2.057c1.346-0.67,2.525-1.582,3.799-2.379l3.74-2.516
			c1.152-0.93,2.287-1.891,3.426-2.85l1.709-1.449l0.852-0.73l0.428-0.369l0.104-0.094c0.209-0.227-0.322,0.389,0.498-0.537
			l0.156-0.152l2.49-2.441c0.215-0.215,0.4-0.379,0.643-0.637l0.791-0.916l1.584-1.852l1.563-1.871l1.311-1.746
			c0.262-0.344,0.494-0.693,0.75-1.039c-0.223-8.418-0.988-16.912-2.27-25.439C430.435,207.162,425.89,214.645,418.919,221.773z"/>
		<g>
			<path fill="#6D6E71" d="M413.829,167.141c0.375,0.084,0.758,0.117,1.141,0.096c0.436,0.129,0.879,0.197,1.33,0.197
				c0.188,0.039,0.381,0.068,0.576,0.082c0.49,0.088,0.984,0.102,1.477,0.021c3.619-0.588,5.777-5.705,4.854-11.413
				c-0.945-5.707-4.641-9.859-8.254-9.264c-0.084,0.012-0.16,0.043-0.242,0.061c-0.064,0.008-0.123,0.006-0.178,0.014
				c-0.184,0.031-0.354,0.08-0.527,0.133c-0.131,0.01-0.26,0.01-0.385,0.031c-0.268,0.043-0.523,0.121-0.771,0.211
				c-0.236,0.002-0.469,0.016-0.701,0.053c-0.186,0.029-0.363,0.078-0.533,0.131c-0.123,0.008-0.252,0.008-0.383,0.031
				c-3.418,0.561-5.469,5.402-4.582,10.805C407.487,163.4,410.614,167.168,413.829,167.141z"/>
			<path fill="#6D6E71" d="M410.89,194.428c0.346,0.238,0.709,0.418,1.096,0.539c0.389,0.33,0.816,0.574,1.271,0.746
				c0.264,0.178,0.531,0.35,0.813,0.463c0.477,0.262,0.967,0.459,1.508,0.51c3.246,0.305,6.26-3.613,6.744-8.74
				c0.434-4.721-1.449-8.793-4.287-9.648c-0.305-0.131-0.619-0.197-0.949-0.246c-0.367-0.166-0.756-0.271-1.164-0.309
				c-0.068-0.006-0.135,0.014-0.197,0.012c-0.359-0.184-0.742-0.309-1.143-0.369c-0.357-0.156-0.736-0.26-1.129-0.295
				c-3.07-0.287-5.928,3.42-6.379,8.271C406.667,189.703,408.339,193.473,410.89,194.428z"/>
			<path fill="#6D6E71" d="M373.335,232.443c-0.094-0.436-0.293-0.852-0.564-1.25c-0.047-0.453-0.158-0.9-0.396-1.318
				c-0.439-2.088-3.158-3.846-6.566-4.072c-3.826-0.266-7.064,1.49-7.229,3.912c-0.025,0.4,0.061,0.795,0.199,1.172
				c-0.006,0.445,0.102,0.873,0.293,1.287c-0.004,0.041-0.023,0.074-0.029,0.115c-0.027,0.416,0.061,0.816,0.203,1.211
				c0,0.279,0.029,0.564,0.113,0.84c0.313,2.305,3.234,4.268,6.955,4.527c4.039,0.268,7.463-1.574,7.641-4.148
				c0.031-0.465-0.082-0.912-0.25-1.35C373.626,233.053,373.511,232.742,373.335,232.443z"/>
			<path fill="#6D6E71" d="M434.397,180.996c0,0-0.014,0.004-0.021,0c-0.174-0.041-0.34-0.113-0.52-0.133
				c-0.018,0-0.031,0.002-0.045,0c-0.359-0.15-0.734-0.25-1.121-0.287c-0.146-0.014-0.291,0.025-0.434,0.029
				c-0.455-0.254-0.939-0.447-1.459-0.494c-0.018-0.002-0.029,0.004-0.049,0.004c-0.357-0.154-0.73-0.256-1.121-0.293
				c-3.066-0.287-5.924,3.422-6.377,8.273c-0.42,4.494,1.387,8.357,4.096,9.141c0.447,0.301,0.93,0.508,1.447,0.607
				c0.459,0.377,0.971,0.617,1.512,0.773c0.283,0.189,0.578,0.355,0.883,0.469c0.471,0.25,0.953,0.441,1.48,0.49
				c3.252,0.307,6.266-3.611,6.752-8.74C439.89,185.709,437.646,181.297,434.397,180.996z"/>
			<path fill="#6D6E71" d="M413.214,214.104c1.744-3.83,1.332-7.793-0.836-9.293c-0.256-0.24-0.543-0.432-0.857-0.582
				c-0.268-0.256-0.57-0.469-0.906-0.621c-0.096-0.043-0.199-0.051-0.297-0.082c-0.318-0.367-0.672-0.682-1.107-0.881
				c-0.264-0.244-0.547-0.455-0.881-0.604c-2.463-1.129-5.916,1.121-7.689,5.025c-1.631,3.57-1.283,7.262,0.682,8.734
				c0.279,0.393,0.627,0.709,1.021,0.951c0.264,0.447,0.6,0.813,0.994,1.107c0.184,0.258,0.387,0.492,0.623,0.691
				c0.32,0.352,0.682,0.666,1.113,0.865C407.687,220.613,411.325,218.227,413.214,214.104z"/>
			<path fill="#6D6E71" d="M425.577,211.104c-0.006-0.006-0.006-0.004-0.006-0.004c-0.158-0.105-0.303-0.234-0.477-0.314
				c-0.035-0.016-0.078-0.016-0.117-0.035c-0.275-0.26-0.58-0.488-0.932-0.646c-0.168-0.076-0.348-0.1-0.525-0.146
				c-0.33-0.404-0.707-0.752-1.178-0.965c-0.045-0.018-0.09-0.018-0.135-0.039c-0.27-0.26-0.572-0.488-0.912-0.643
				c-2.473-1.129-5.92,1.121-7.695,5.025c-1.691,3.711-1.252,7.553,0.924,8.893c0.354,0.467,0.764,0.857,1.283,1.094l0,0
				c0.309,0.508,0.725,0.893,1.205,1.195c0.195,0.26,0.418,0.492,0.67,0.691c0.32,0.342,0.666,0.639,1.09,0.832
				c2.609,1.197,6.252-1.188,8.141-5.311C428.788,216.609,428.208,212.293,425.577,211.104z"/>
			<path fill="#6D6E71" d="M402.218,236.508c-0.145-0.213-0.303-0.414-0.488-0.586c-0.018-0.041-0.021-0.086-0.037-0.129
				c-0.238-0.479-0.617-0.855-1.066-1.17c-0.045-0.164-0.074-0.338-0.15-0.498c-0.172-0.344-0.42-0.629-0.707-0.887
				c-0.021-0.045-0.025-0.096-0.045-0.141c-0.777-1.594-2.943-2.229-5.402-1.803c0.98-1.424,1.305-2.943,0.703-4.184
				c-0.146-0.297-0.334-0.559-0.566-0.789c-0.117-0.164-0.221-0.326-0.363-0.465c-0.016-0.018-0.016-0.041-0.021-0.057
				c-0.215-0.432-0.547-0.773-0.932-1.07c-0.041-0.125-0.053-0.26-0.117-0.379c-0.154-0.314-0.373-0.584-0.627-0.824
				c-0.004-0.023-0.01-0.051-0.02-0.072c-1.063-2.182-4.723-2.588-8.17-0.902c-3.451,1.682-5.381,4.818-4.314,7.002
				c0.088,0.162,0.205,0.297,0.313,0.439c0.043,0.184,0.078,0.367,0.166,0.537c0.125,0.268,0.301,0.506,0.498,0.719
				c0.045,0.303,0.131,0.596,0.268,0.871c0.08,0.164,0.199,0.297,0.309,0.441c0.045,0.182,0.082,0.367,0.162,0.539
				c0.041,0.074,0.102,0.129,0.143,0.203c0.033,0.082,0.037,0.172,0.082,0.252c0.84,1.74,3.236,2.406,5.934,1.873
				c-0.824,1.293-1.064,2.654-0.52,3.766c0.104,0.223,0.25,0.412,0.412,0.594c0.049,0.174,0.08,0.355,0.16,0.521
				c0.16,0.33,0.395,0.604,0.66,0.854c0.039,0.332,0.127,0.65,0.275,0.953c0.102,0.221,0.26,0.41,0.416,0.594
				c0.049,0.176,0.076,0.355,0.16,0.518c0.047,0.104,0.133,0.184,0.195,0.281c0.025,0.078,0.033,0.162,0.068,0.234
				c1.125,2.314,4.99,2.738,8.643,0.961c3.635-1.785,5.678-5.092,4.551-7.404C402.644,237.004,402.448,236.74,402.218,236.508z"/>
		</g>
		<g>
			<path fill="#6D6E71" d="M418.886,156.294c0.879,5.389-1.16,10.219-4.58,10.78c-3.416,0.563-6.902-3.354-7.787-8.746
				c-0.883-5.389,1.16-10.219,4.57-10.778C414.511,146.988,417.999,150.908,418.886,156.294z"/>
			<path fill="#6D6E71" d="M418.056,186.338c-0.461,4.84-3.307,8.543-6.371,8.254c-3.07-0.287-5.189-4.443-4.742-9.285
				c0.451-4.842,3.301-8.543,6.369-8.258C416.38,177.338,418.497,181.498,418.056,186.338z"/>
			<path fill="#6D6E71" d="M434.198,189.064c-0.459,4.844-3.307,8.545-6.375,8.256c-3.066-0.287-5.188-4.443-4.74-9.287
				c0.455-4.842,3.301-8.541,6.369-8.256C432.524,180.063,434.644,184.227,434.198,189.064z"/>
			<path fill="#6D6E71" d="M409.45,211.041c-1.779,3.889-5.215,6.139-7.682,5.012c-2.473-1.127-3.027-5.195-1.244-9.088
				c1.77-3.895,5.211-6.143,7.674-5.016C410.677,203.074,411.222,207.148,409.45,211.041z"/>
			<path fill="#6D6E71" d="M422.388,217.297c-1.781,3.889-5.221,6.141-7.688,5.01c-2.465-1.125-3.027-5.195-1.244-9.084
				c1.775-3.898,5.219-6.145,7.678-5.018C423.606,209.332,424.159,213.402,422.388,217.297z"/>
			<path fill="#6D6E71" d="M387.979,230.309c-3.447,1.676-7.092,1.275-8.158-0.906c-1.063-2.176,0.861-5.307,4.307-6.984
				c3.436-1.68,7.09-1.273,8.15,0.898C393.345,225.504,391.415,228.627,387.979,230.309z"/>
			<path fill="#6D6E71" d="M365.169,234.418c-3.818-0.268-6.783-2.432-6.613-4.854c0.162-2.416,3.391-4.17,7.215-3.908
				c3.82,0.254,6.775,2.432,6.611,4.846C372.214,232.928,368.985,234.672,365.169,234.418z"/>
			<path fill="#6D6E71" d="M395.313,239.928c-3.447,1.676-7.094,1.277-8.158-0.906c-1.066-2.174,0.859-5.307,4.303-6.982
				c3.441-1.682,7.088-1.275,8.15,0.9C400.671,235.125,398.745,238.25,395.313,239.928z"/>
		</g>
		<path d="M418.919,221.773c-18.715,16.699-55.541,28.758-70.381,3.871l-0.008-0.012l-1.248-1.021l-0.311-0.25l-0.152-0.131
			l-0.08-0.063c0.908,0.977,0.229,0.238,0.418,0.447l-0.412-0.416l-0.836-0.826c-2.162-2.238-3.834-4.859-4.877-7.607
			c-2.139-5.51-1.645-11.34,1.189-15.309c0.354-0.502,0.785-0.938,1.152-1.43c0.387-0.469,0.754-0.695,1.107-1.1l0.266-0.283
			c0.125-0.102,0.342-0.219,0.504-0.326l1.043-0.662l0.523-0.328l0.26-0.16l0.123-0.084l0.066-0.037
			c-0.16,0.072-0.244,0.115-0.285,0.137c0.033-0.018,0.064-0.035,0.021-0.014l0.861-0.416c2.285-1.16,4.545-1.85,6.676-1.895
			c4.268-0.166,8.096,1.793,10.693,4.189c2.658,2.336,4.338,4.895,5.303,6.518c0.496,0.77,0.871,1.588,1.123,2.088
			c0.252,0.508,0.373,0.768,0.373,0.768c0.592,1.188,1.977,1.785,3.262,1.348c1.398-0.473,2.148-1.99,1.67-3.391
			c0,0-0.09-0.279-0.273-0.814c-0.191-0.543-0.412-1.297-0.93-2.467c-0.975-2.271-2.457-5.414-5.504-8.963
			c-1.518-1.75-3.438-3.59-5.988-5.113c-2.498-1.561-5.641-2.834-9.201-3.262c-3.559-0.477-7.391,0.063-11.016,1.24
			c-0.459,0.146-0.926,0.293-1.389,0.441c-0.482,0.217-0.965,0.432-1.455,0.648l-1.131,0.496c-0.203,0.092-0.365,0.146-0.59,0.27
			l-0.748,0.447c-0.979,0.615-2.09,1.256-2.951,1.955c-0.846,0.715-1.746,1.41-2.559,2.207c-3.275,3.213-5.771,7.557-7.037,12.313
			c-1.281,4.76-1.391,9.898-0.447,14.918c0.961,5.021,2.975,9.941,5.869,14.43l1.133,1.662l0.578,0.832
			c0.229,0.256-0.424-0.424,0.541,0.596l0.063,0.076l0.129,0.154l0.256,0.305l1.047,1.219l0.523,0.617
			c0.094,0.104,0.162,0.195,0.273,0.311l0.443,0.406c1.189,1.08,2.432,2.146,3.709,3.18c1.154,0.838,2.273,1.57,3.439,2.352
			c1.152,0.834,2.346,1.379,3.541,2.051c1.199,0.648,2.416,1.313,3.662,1.799c1.248,0.525,2.5,1.049,3.75,1.576
			c1.289,0.418,2.572,0.838,3.863,1.252c1.297,0.453,2.617,0.768,3.947,1.061c1.328,0.293,2.668,0.635,4.02,0.871
			c2.721,0.344,5.469,0.877,8.266,0.912c1.4,0.063,2.803,0.137,4.213,0.162l4.262-0.197l2.145-0.121
			c0.707-0.074,1.424-0.193,2.135-0.289l4.301-0.656c1.43-0.242,2.832-0.672,4.258-1.018c1.412-0.402,2.881-0.67,4.256-1.215
			l4.166-1.564c0.695-0.271,1.398-0.523,2.08-0.82l2.002-1l4.002-2.057c1.346-0.67,2.525-1.582,3.799-2.379l3.74-2.516
			c1.152-0.93,2.287-1.891,3.426-2.85l1.709-1.449l0.852-0.73l0.428-0.369l0.104-0.094c0.209-0.227-0.322,0.389,0.498-0.537
			l0.156-0.152l2.49-2.441c0.215-0.215,0.4-0.379,0.643-0.637l0.791-0.916l1.584-1.852l1.563-1.871l1.311-1.746
			c0.262-0.344,0.494-0.693,0.75-1.039c-0.223-8.418-0.988-16.912-2.27-25.439C430.435,207.162,425.89,214.645,418.919,221.773z"/>
		<path fill="#808285" d="M349.806,293.215c-6.771-15.748-27.258-15.316-42.908-8.916c1.99-0.617,4.105-0.951,6.34-0.955
			c3.08-0.018,6.314,0.609,9.287,1.818c0.74,0.297,1.467,0.635,2.176,1l0.262,0.137l0.066,0.037
			c0.295,0.123-0.332-0.133-0.227-0.084l0.197,0.109l0.811,0.434c0.68,0.338,0.689,0.455,0.943,0.637
			c1.082,0.793,2.406,1.854,3.453,2.977c4.342,4.574,7.07,11.184,7.928,18.348c0.43,3.594,0.502,7.301,0.18,11.047
			c-0.139,1.869-0.387,3.748-0.717,5.625c-0.145,0.93-0.344,1.873-0.527,2.803l-0.613,3.746
			c-1.621,10.469-3.113,21.408-2.162,34.221c0.52,6.377,1.73,13.297,4.295,20.336c2.539,7.023,6.547,14.016,11.41,19.85
			c0.135,0.15,0.27,0.289,0.402,0.445c9.43-8.557,17.957-17.916,25.551-27.916C356.392,354.846,361.614,320.693,349.806,293.215z"/>
		<g>
			<path fill="#231F20" d="M360.802,396.688c0.344-0.359,0.67-0.727,1.016-1.084C361.472,395.961,361.146,396.328,360.802,396.688z"
				/>
			<path fill="#231F20" d="M370.304,386.018c0.564-0.68,1.115-1.365,1.676-2.057C371.419,384.652,370.868,385.338,370.304,386.018z"
				/>
			<path fill="#231F20" d="M365.165,391.955c0.496-0.545,0.988-1.096,1.473-1.648C366.153,390.859,365.655,391.408,365.165,391.955z
				"/>
			<path fill="#231F20" d="M355.21,402.303c0.387-0.373,0.773-0.748,1.154-1.125C355.983,401.555,355.597,401.93,355.21,402.303z"/>
			<path fill="#231F20" d="M309.327,283.719c0.393-0.074,0.787-0.139,1.191-0.188C310.118,283.582,309.72,283.645,309.327,283.719z"
				/>
			<path fill="#231F20" d="M362.604,280.816c-4.158-5.182-9.063-9.912-14.76-13.564c-2.871-1.857-5.727-3.4-9.018-4.762
				c-0.852-0.338-1.924-0.785-2.367-0.895l-0.875-0.275l-0.217-0.07c0.033,0.02-0.668-0.262-0.443-0.166l-0.146-0.043l-0.592-0.178
				c-1.564-0.486-3.141-0.9-4.725-1.227c-6.336-1.314-12.773-1.467-19.006-0.41c-6.227,1.059-12.238,3.412-17.354,6.902
				c-5.133,3.492-9.197,8.098-12.057,12.908c-1.408,2.426-2.527,4.893-3.445,7.336c-0.4,1.229-0.857,2.439-1.156,3.654l-0.482,1.801
				l-0.414,1.93c-0.314,1.398-0.352,2.191-0.516,3.234l-0.049,0.371c0.037-0.16-0.057,0.32-0.057,0.311l-0.016,0.113l-0.021,0.225
				l-0.088,0.893l-0.162,1.773c-0.115,2.383-0.146,4.727,0.1,7.047c0.4,4.619,1.668,9.043,3.512,12.895
				c1.893,3.84,4.348,7.125,7.094,9.662c5.484,5.145,11.674,7.463,16.721,8.223c5.105,0.764,9.131,0.061,11.717-0.648
				c2.852-0.82,3.691-1.393,3.77-1.371c1.58-0.5,2.461-2.197,1.959-3.783c-0.5-1.588-2.193-2.469-3.783-1.965
				c0.059-0.045-1.418,0.396-3.166,0.473c-1.994,0.125-5.002,0.004-8.438-1.285c-3.398-1.26-7.264-3.693-10.025-7.621
				c-2.785-3.881-4.301-9.084-3.631-14.842c0.121-1.432,0.459-2.912,0.82-4.4l0.336-1.123l0.17-0.561l0.039-0.143l0.025-0.07
				c0.014-0.068-0.074,0.354-0.021,0.133l0.113-0.354c0.318-0.889,0.656-2.068,0.945-2.598l0.432-0.998l0.529-1.098
				c0.322-0.748,0.756-1.41,1.119-2.121c0.832-1.35,1.727-2.621,2.715-3.768c2.91-3.346,6.578-5.539,10.785-6.482
				c-0.537,0.123-1.061,0.26-1.578,0.42c15.65-6.4,36.137-6.832,42.908,8.916c11.809,27.479,6.586,61.631,26.146,85.697
				c-0.549,0.725-1.115,1.441-1.676,2.16c4.938-6.326,9.51-12.904,13.66-19.727c-0.844-1.135-1.684-2.604-2.434-4.459
				c-2.367-5.674-3.883-14.238-4.891-23.414l-0.348-3.646c-0.123-1.537-0.244-3.07-0.424-4.615c-0.342-3.082-0.816-6.17-1.455-9.258
				c-1.236-6.172-3.131-12.326-5.713-18.266C370.048,291.756,366.726,286.029,362.604,280.816z"/>
			<path fill="#231F20" d="M311.237,283.449c0.658-0.061,1.318-0.102,2-0.105C312.556,283.346,311.896,283.387,311.237,283.449z"/>
		</g>
		<g>
			<path fill="#6D6E71" d="M338.792,327.93c0.936,0.012,1.82-0.369,2.621-0.99c0.139-0.086,0.26-0.219,0.398-0.326
				c0.143-0.086,0.268-0.219,0.406-0.322c0.137-0.09,0.262-0.225,0.396-0.326c2.201-1.393,3.816-4.691,3.939-8.555
				c0.141-5.148-2.424-9.35-5.746-9.373c-2.084-0.027-3.963,1.6-5.119,4.078c-0.096,0.18-0.205,0.344-0.299,0.533
				c-0.1,0.182-0.209,0.342-0.295,0.535c-0.098,0.18-0.213,0.342-0.301,0.535c-0.809,1.488-1.338,3.348-1.402,5.4
				C333.247,323.963,335.659,327.902,338.792,327.93z"/>
			<path fill="#6D6E71" d="M348.386,294.098c0.625-0.342,1.07-0.902,1.375-1.586c0.217-0.258,0.396-0.551,0.541-0.875
				c0.217-0.256,0.395-0.553,0.539-0.877c0.215-0.262,0.395-0.553,0.537-0.877c1.422-1.709,1.357-4.953-0.326-7.957
				c-1.998-3.551-5.494-5.383-7.822-4.096c-0.875,0.48-1.453,1.346-1.732,2.424c-0.162,0.309-0.293,0.652-0.387,1.021
				c-0.162,0.307-0.291,0.652-0.383,1.02c-0.164,0.309-0.295,0.654-0.391,1.021c-0.916,1.699-0.703,4.41,0.707,6.928
				C342.921,293.58,346.206,295.307,348.386,294.098z"/>
			<path fill="#6D6E71" d="M328.124,289.088c-0.09,0.291-0.146,0.6-0.193,0.92c-0.549,1.777-0.227,4.215,1.061,6.506
				c1.986,3.521,5.451,5.342,7.758,4.068c0.752-0.416,1.258-1.129,1.572-1.998c0.139-0.236,0.254-0.498,0.352-0.773
				c0.143-0.236,0.256-0.494,0.355-0.773c0.146-0.236,0.254-0.496,0.355-0.771c1.129-1.895,0.947-5.02-0.684-7.932
				c-2.119-3.738-5.805-5.68-8.258-4.324c-1.1,0.609-1.732,1.795-1.936,3.244c-0.088,0.291-0.145,0.596-0.191,0.92
				C328.229,288.459,328.167,288.77,328.124,289.088z"/>
			<path fill="#6D6E71" d="M341.944,373.889c-0.129-0.131-0.26-0.271-0.395-0.398c-0.131-0.135-0.264-0.273-0.398-0.4
				c-2.113-2.174-4.67-3.195-6.934-2.436c-3.799,1.271-5.314,7.043-3.381,12.885c0.158,0.494,0.35,0.965,0.551,1.426
				c0.076,0.203,0.158,0.393,0.242,0.59c0.078,0.201,0.16,0.395,0.242,0.592c0.076,0.199,0.16,0.396,0.246,0.592
				c2.217,5.684,6.865,9.189,10.721,7.896c4.039-1.348,5.646-7.486,3.592-13.711c-0.912-2.734-2.383-5.033-4.08-6.631
				C342.218,374.156,342.083,374.02,341.944,373.889z"/>
			<path fill="#6D6E71" d="M344.329,349.059c0.301-5.914-2.541-10.82-6.373-10.936c-0.779-0.025-1.539,0.166-2.258,0.514
				c-0.102,0.041-0.205,0.09-0.303,0.137c-0.1,0.041-0.199,0.088-0.297,0.137c-0.102,0.041-0.207,0.09-0.305,0.137
				c-2.768,1.135-4.957,4.947-5.197,9.535c-0.219,4.305,1.34,8.006,3.717,9.527c0.088,0.059,0.184,0.105,0.275,0.16
				c0.09,0.066,0.182,0.109,0.277,0.168c0.086,0.064,0.184,0.105,0.271,0.166c0.818,0.594,1.73,0.943,2.713,0.973
				C340.669,359.697,344.019,354.99,344.329,349.059z"/>
			<path fill="#6D6E71" d="M356.931,336.762c-0.379,0.027-0.752,0.113-1.109,0.238c-0.213,0.035-0.406,0.09-0.611,0.16
				c-0.203,0.039-0.408,0.094-0.604,0.162c-0.209,0.037-0.414,0.096-0.607,0.162c-3.162,0.594-5.465,4.873-5.205,9.881
				c0.25,4.781,2.734,8.545,5.746,9.021c0.199,0.064,0.402,0.105,0.607,0.143c0.205,0.061,0.404,0.105,0.615,0.141
				c0.203,0.059,0.406,0.102,0.611,0.135c0.521,0.166,1.061,0.264,1.609,0.227c3.621-0.242,6.32-4.986,6.027-10.59
				C363.718,340.846,360.556,336.506,356.931,336.762z"/>
			<path fill="#6D6E71" d="M359.802,365.162c-0.219-0.104-0.439-0.188-0.664-0.264c-0.219-0.102-0.441-0.189-0.666-0.266
				c-0.219-0.1-0.445-0.189-0.666-0.264c-1.008-0.475-2.068-0.65-3.113-0.436c-3.725,0.756-5.842,6.035-4.738,11.773
				c0.629,3.24,2.154,5.939,4.031,7.539c0.199,0.197,0.402,0.389,0.609,0.564c0.195,0.203,0.398,0.395,0.605,0.568
				c0.203,0.203,0.402,0.393,0.611,0.568c1.67,1.691,3.682,2.539,5.639,2.139c3.967-0.799,6.211-6.408,5.027-12.525
				C365.562,369.818,362.835,366.166,359.802,365.162z"/>
			<path fill="#6D6E71" d="M356.884,305.109c-1.205,0.15-2.264,0.83-3.105,1.873c-0.27,0.244-0.516,0.512-0.748,0.814
				c-0.186,0.197-0.385,0.377-0.561,0.607c-0.189,0.195-0.391,0.373-0.564,0.605c-1.713,1.727-2.676,4.891-2.285,8.381
				c0.564,4.965,3.619,8.652,6.844,8.238c0.586-0.074,1.113-0.314,1.623-0.629c0.23-0.096,0.447-0.225,0.662-0.357
				c0.209-0.088,0.408-0.201,0.605-0.318c0.289-0.111,0.576-0.246,0.846-0.424c2.768-1.207,4.488-5.363,3.965-10.029
				C363.563,308.594,360.308,304.662,356.884,305.109z"/>
		</g>
		<g>
			<path fill="#6D6E71" d="M341.991,349.232c-0.225,5.547-3.25,9.926-6.758,9.777c-3.516-0.143-6.178-4.75-5.951-10.299
				c0.223-5.537,3.26-9.918,6.764-9.771C339.56,339.08,342.218,343.695,341.991,349.232z"/>
			<path fill="#6D6E71" d="M360.03,346.965c0.32,5.246-2.111,9.662-5.428,9.855c-3.33,0.203-6.273-3.885-6.592-9.131
				c-0.32-5.232,2.119-9.654,5.434-9.852C356.771,337.635,359.712,341.727,360.03,346.965z"/>
			<path fill="#6D6E71" d="M344.224,379.082c1.941,5.842,0.525,11.576-3.176,12.799c-3.697,1.232-8.27-2.5-10.215-8.34
				c-1.943-5.838-0.52-11.572,3.176-12.799C337.704,369.508,342.272,373.252,344.224,379.082z"/>
			<path fill="#6D6E71" d="M362.558,373.311c1.141,5.732-0.873,10.965-4.5,11.68c-3.633,0.725-7.492-3.332-8.637-9.063
				c-1.137-5.725,0.881-10.963,4.506-11.676C357.552,363.523,361.411,367.594,362.558,373.311z"/>
			<path fill="#6D6E71" d="M343.741,319.623c-0.1,4.82-2.646,8.68-5.689,8.615c-3.059-0.059-5.449-4.008-5.357-8.828
				c0.096-4.813,2.635-8.678,5.686-8.611C341.431,310.855,343.823,314.813,343.741,319.623z"/>
			<path fill="#6D6E71" d="M336.267,292.34c1.965,3.529,1.75,7.4-0.484,8.641c-2.24,1.246-5.637-0.602-7.607-4.127
				c-1.963-3.525-1.758-7.402,0.477-8.639C330.89,286.963,334.292,288.816,336.267,292.34z"/>
			<path fill="#6D6E71" d="M347.54,286.453c1.867,3.344,1.664,7.008-0.457,8.188c-2.123,1.18-5.34-0.572-7.203-3.912
				s-1.67-7.01,0.449-8.184C342.45,281.359,345.667,283.113,347.54,286.453z"/>
			<path fill="#6D6E71" d="M359.866,316.48c0.596,4.951-1.459,9.271-4.59,9.641c-3.141,0.379-6.156-3.322-6.76-8.271
				c-0.594-4.947,1.461-9.273,4.592-9.641C356.243,307.826,359.267,311.535,359.866,316.48z"/>
		</g>
		<g>
			<path d="M360.802,396.688c0.344-0.359,0.67-0.727,1.016-1.084C361.472,395.961,361.146,396.328,360.802,396.688z"/>
			<path d="M370.304,386.018c0.564-0.68,1.115-1.365,1.676-2.057C371.419,384.652,370.868,385.338,370.304,386.018z"/>
			<path d="M365.165,391.955c0.496-0.545,0.988-1.096,1.473-1.648C366.153,390.859,365.655,391.408,365.165,391.955z"/>
			<path d="M355.21,402.303c0.387-0.373,0.773-0.748,1.154-1.125C355.983,401.555,355.597,401.93,355.21,402.303z"/>
			<path d="M309.327,283.719c0.393-0.074,0.787-0.139,1.191-0.188C310.118,283.582,309.72,283.645,309.327,283.719z"/>
			<path d="M362.604,280.816c-4.158-5.182-9.063-9.912-14.76-13.564c-2.871-1.857-5.727-3.4-9.018-4.762
				c-0.852-0.338-1.924-0.785-2.367-0.895l-0.875-0.275l-0.217-0.07c0.033,0.02-0.668-0.262-0.443-0.166l-0.146-0.043l-0.592-0.178
				c-1.564-0.486-3.141-0.9-4.725-1.227c-6.336-1.314-12.773-1.467-19.006-0.41c-6.227,1.059-12.238,3.412-17.354,6.902
				c-5.133,3.492-9.197,8.098-12.057,12.908c-1.408,2.426-2.527,4.893-3.445,7.336c-0.4,1.229-0.857,2.439-1.156,3.654l-0.482,1.801
				l-0.414,1.93c-0.314,1.398-0.352,2.191-0.516,3.234l-0.049,0.371c0.037-0.16-0.057,0.32-0.057,0.311l-0.016,0.113l-0.021,0.225
				l-0.088,0.893l-0.162,1.773c-0.115,2.383-0.146,4.727,0.1,7.047c0.4,4.619,1.668,9.043,3.512,12.895
				c1.893,3.84,4.348,7.125,7.094,9.662c5.484,5.145,11.674,7.463,16.721,8.223c5.105,0.764,9.131,0.061,11.717-0.648
				c2.852-0.82,3.691-1.393,3.77-1.371c1.58-0.5,2.461-2.197,1.959-3.783c-0.5-1.588-2.193-2.469-3.783-1.965
				c0.059-0.045-1.418,0.396-3.166,0.473c-1.994,0.125-5.002,0.004-8.438-1.285c-3.398-1.26-7.264-3.693-10.025-7.621
				c-2.785-3.881-4.301-9.084-3.631-14.842c0.121-1.432,0.459-2.912,0.82-4.4l0.336-1.123l0.17-0.561l0.039-0.143l0.025-0.07
				c0.014-0.068-0.074,0.354-0.021,0.133l0.113-0.354c0.318-0.889,0.656-2.068,0.945-2.598l0.432-0.998l0.529-1.098
				c0.322-0.748,0.756-1.41,1.119-2.121c0.832-1.35,1.727-2.621,2.715-3.768c2.91-3.346,6.578-5.539,10.785-6.482
				c-0.537,0.123-1.061,0.26-1.578,0.42c15.65-6.4,36.137-6.832,42.908,8.916c11.809,27.479,6.586,61.631,26.146,85.697
				c-0.549,0.725-1.115,1.441-1.676,2.16c4.938-6.326,9.51-12.904,13.66-19.727c-0.844-1.135-1.684-2.604-2.434-4.459
				c-2.367-5.674-3.883-14.238-4.891-23.414l-0.348-3.646c-0.123-1.537-0.244-3.07-0.424-4.615c-0.342-3.082-0.816-6.17-1.455-9.258
				c-1.236-6.172-3.131-12.326-5.713-18.266C370.048,291.756,366.726,286.029,362.604,280.816z"/>
			<path d="M311.237,283.449c0.658-0.061,1.318-0.102,2-0.105C312.556,283.346,311.896,283.387,311.237,283.449z"/>
		</g>
		<path d="M276.601,375.914c-0.219-1.113-0.496-2.199-0.744-3.295l-0.396-1.639l-0.199-0.818l-0.1-0.41l-0.051-0.203
			c-0.508-1.568-1.139-3.611-1.139-3.611l-0.49-1.135c-0.072-0.117-0.197-0.521-0.309-0.898l-0.35-1.104
			c-0.475-1.471-0.963-2.926-1.482-4.365c-0.254-0.768-0.521-1.34-0.785-1.932l-0.807-1.781
			c-4.234-9.539-10.346-17.928-16.592-24.898c-6.326-6.926-12.883-12.545-19.039-17.561c-6.158-5.055-11.992-9.604-17.635-13.809
			c-11.189-8.443-21.1-16.385-27.326-25.197c-0.395-0.545-0.744-1.096-1.123-1.645l-0.279-0.416l-0.133-0.207l-0.074-0.105
			c-0.156-0.283,0.143,0.273,0.078,0.16l-0.666-1.148l-0.795-1.396c-0.273-0.527-0.551-1.057-0.799-1.604
			c-1.039-2.172-1.787-4.539-2.402-6.98c-1.219-4.896-1.568-10.209-1.092-15.475c0.459-5.264,1.689-10.49,3.563-15.318
			c1.889-4.824,4.408-9.242,7.365-13.016c5.949-7.574,13.506-12.379,22.117-14.098c0.537-0.127,1.082-0.209,1.625-0.305l0.41-0.072
			c-0.949,0.023-0.182,0-0.354,0l0.141-0.012l0.279-0.023l1.127-0.1l1.121-0.104c0.346-0.027,0.832-0.08,0.977-0.072
			c0.428-0.016,0.859-0.039,1.297-0.072c0.402-0.059,0.93-0.035,1.461-0.016l1.58,0.035c1.014,0.141,2.076,0.137,3.061,0.359
			c2.031,0.266,3.926,0.883,5.842,1.457c1.83,0.725,3.688,1.459,5.344,2.508c6.752,3.992,11.891,10.326,14.727,16.898
			c3.008,6.559,3.918,13.207,3.91,18.703c-0.055,5.523-0.959,9.969-1.771,12.947c-0.359,1.518-0.783,2.635-1.031,3.408
			c-0.256,0.775-0.391,1.174-0.391,1.174l-0.09,0.275c-0.471,1.414,0.012,3.027,1.287,3.936c1.572,1.117,3.748,0.75,4.865-0.818
			c0,0,0.273-0.391,0.809-1.139c0.521-0.754,1.367-1.855,2.281-3.41c1.883-3.066,4.424-7.85,6.207-14.609
			c0.84-3.373,1.59-7.232,1.768-11.527c0.168-4.293-0.107-9.012-1.115-14.012c-1.025-4.992-2.838-10.242-5.676-15.438
			c-2.822-5.191-6.693-10.34-11.809-14.758c-2.506-2.277-5.391-4.23-8.434-6.096c-3.102-1.738-6.402-3.363-9.939-4.473
			c-1.75-0.654-3.566-1.041-5.393-1.547c-0.922-0.182-1.844-0.363-2.775-0.549c-0.92-0.176-1.846-0.354-2.924-0.453
			c-1.049-0.109-2.1-0.219-3.152-0.328c-0.604-0.063-0.865-0.064-1.262-0.096l-1.127-0.066l-1.131-0.072l-0.281-0.02l-0.141-0.01
			c-0.268,0.002,0.4-0.021-0.641,0.008l-0.717,0.002c-0.969,0.01-1.938,0.01-2.912,0.066c-7.799,0.365-16.01,2.285-23.584,5.951
			c-7.617,3.615-14.512,8.891-20.273,15.131c-5.732,6.277-10.383,13.5-13.797,21.277c-3.451,7.764-5.791,16.061-6.861,24.664
			c-1.055,8.592-0.969,17.504,0.666,26.441c0.813,4.467,2.049,8.92,3.67,13.314c0.391,1.1,0.83,2.188,1.285,3.275
			c0.203,0.516,0.527,1.191,0.789,1.777l0.75,1.602l0.572,1.195l0.932,1.732c0.527,0.973,1.035,1.971,1.586,2.922
			c2.17,3.832,4.6,7.373,7.025,10.816c2.447,3.387,5.018,6.555,7.539,9.623c2.523,3.033,5.08,5.941,7.561,8.719
			c2.412,2.709,4.814,5.41,7.207,8.1c2.309,2.625,4.502,5.207,6.545,7.689c2.076,2.486,3.938,4.941,5.545,7.398
			c3.234,4.904,5.242,9.822,5.938,14.186c0.635,4.379-0.133,8.09-1.521,11.035c0,0-0.68,1.674-1.527,3.305
			c-0.871,1.674-1.912,3.311-2.021,3.527c-0.453,0.854-0.764,1.713-1.227,2.484c-3.451,6.301-6.898,10.01-10.463,13.789
			c-3.568,3.701-7.615,7.307-11.871,10.879c-4.25,3.555-8.557,6.982-12.344,10c-3.762,2.992-7.086,5.674-9.174,7.438
			c-0.184,0.158-0.355,0.303-0.533,0.451c22.621,8.504,47.119,13.164,72.715,13.164c15.75,0,31.084-1.77,45.826-5.105
			c0.836-2.465,1.615-4.98,2.293-7.574c0.576-2.072,1.033-4.234,1.494-6.381c0.404-2.176,0.754-4.383,1.074-6.594
			c1.184-8.902,1.174-18.186-0.061-27.199C277.446,380.357,277.009,378.146,276.601,375.914z"/>
		<path fill="#808285" d="M277.724,382.625c-0.277-2.268-0.715-4.479-1.123-6.711c-0.219-1.113-0.496-2.199-0.744-3.295
			l-0.396-1.639l-0.199-0.818l-0.1-0.41l-0.051-0.203c-0.508-1.568-1.139-3.611-1.139-3.611l-0.49-1.135
			c-0.072-0.117-0.197-0.521-0.309-0.898l-0.35-1.104c-0.475-1.471-0.963-2.926-1.482-4.365c-0.254-0.768-0.521-1.34-0.785-1.932
			l-0.807-1.781c-4.234-9.539-10.346-17.928-16.592-24.898c-6.326-6.926-12.883-12.545-19.039-17.561
			c-5.59-4.584-10.904-8.742-16.057-12.617c8.73,9.713,15.758,20.564,18.76,32.57c9.602,35.213,7.434,80.682-23.957,102.777
			c4.701,0.32,9.447,0.484,14.232,0.484c15.75,0,31.084-1.77,45.826-5.105c0.836-2.465,1.615-4.98,2.293-7.574
			c0.576-2.072,1.033-4.234,1.494-6.381c0.404-2.176,0.754-4.383,1.074-6.594C278.968,400.922,278.958,391.639,277.724,382.625z"/>
		<path fill="#808285" d="M130.39,365.371c5.236-10.471,6.98-20.939,6.98-33.154c0-29.564-23.197-57.57-53.576-50.563
			c0.639-0.049,1.393,0.043,2.188,0.143c1.791,0.336,3.975,1.014,6.311,2.293c2.318,1.258,4.721,2.977,6.941,5.131
			c4.467,4.307,8.186,10.07,10.506,16.402c2.334,6.348,3.434,13.211,3.201,20.158l-0.158,2.611l-0.037,0.65
			c0,0.217-0.02-1.637-0.012-0.801l-0.014,0.115l-0.02,0.223l-0.045,0.441l-0.178,1.773c-0.064,0.559-0.107,1.256-0.189,1.699
			c-0.096,0.213-0.191,0.426-0.27,0.631c-0.182,0.441-0.227,0.719-0.514,1.494c-0.795,2.645-2.02,5.234-3.527,7.803
			c-2.967,5.127-7.334,10.066-12.344,14.449c-5.023,4.375-10.633,8.277-16.305,11.518c-1.039,0.584-2.074,1.129-3.107,1.676
			c8.039,8.582,16.809,16.469,26.197,23.582c2.41-1.727,4.764-3.58,7.035-5.596C118.177,382.814,126.901,374.092,130.39,365.371z"/>
		<g>
			<path fill="#231F20" d="M96.05,388.611c2.08,1.703,4.18,3.377,6.322,5.002C100.229,391.988,98.13,390.314,96.05,388.611z"/>
			<path fill="#231F20" d="M76.222,370.064c1.85,1.973,3.742,3.898,5.668,5.797C79.964,373.965,78.071,372.037,76.222,370.064z"/>
			<path fill="#231F20" d="M83.64,377.547c1.402,1.35,2.816,2.684,4.25,3.994C86.456,380.23,85.042,378.896,83.64,377.547z"/>
			<path fill="#231F20" d="M89.835,383.287c1.492,1.33,3.01,2.631,4.539,3.92C92.845,385.922,91.327,384.617,89.835,383.287z"/>
			<path fill="#231F20" d="M156.05,331.355l-0.131-1.777l-0.033-0.445l-0.02-0.223l-0.006-0.107c0.002,0.762-0.016-1.164-0.02-1.021
				l-0.135-1.123c-0.188-1.5-0.355-2.998-0.578-4.486c-1.857-11.936-5.945-23.682-12.281-33.877
				c-6.313-10.201-14.664-18.887-24.516-25.133c-4.936-3.115-10.301-5.594-16.031-7.232c-5.689-1.664-11.945-2.324-18.287-1.479
				c-3.18,0.482-6.363,1.254-9.387,2.631c-1.375,0.531-3.373,1.656-4.971,2.652c-0.553,0.385-0.814,0.629-1.229,0.947l-0.57,0.455
				c-0.295,0.205,0.555-0.375-0.678,0.473l-0.084,0.082l-0.178,0.168l-0.346,0.336c-0.912,0.895-1.816,1.785-2.711,2.666
				l-1.313,1.32c-0.408,0.486-0.799,1.004-1.193,1.5c-0.77,1.004-1.527,1.998-2.275,2.986c-0.75,0.969-1.314,2.154-1.936,3.209
				c-2.557,4.232-3.783,9.047-4.424,13.424c-0.068,1.113-0.129,2.207-0.191,3.289c-0.014,0.535-0.031,1.066-0.049,1.594
				c0.035,0.521,0.082,1.043,0.117,1.559c0.092,1.025,0.172,2.033,0.295,3.01c0.156,0.973,0.414,1.906,0.619,2.824
				c1.797,7.342,5.346,12.643,8.814,16.295c0.805,0.955,1.789,1.711,2.607,2.457c0.805,0.76,1.713,1.355,2.52,1.908
				c1.486,1.117,3.299,1.988,4.602,2.594c0.705,0.367,1.117,0.404,1.549,0.539c0.414,0.117,0.768,0.215,1.049,0.291
				c0.559,0.154,0.855,0.236,0.855,0.236c1.406,0.391,2.977-0.072,3.939-1.295c1.281-1.625,1-3.977-0.631-5.258l-0.014-0.014
				c0,0-0.236-0.184-0.695-0.547c-0.23-0.18-0.516-0.408-0.859-0.674c-0.309-0.264-0.826-0.582-0.988-0.918
				c-0.867-1.141-2.635-3.334-3.957-6.418c-1.326-3.061-2.279-7.135-1.914-11.289c0.063-0.52,0.066-1.035,0.156-1.549
				c0.143-0.512,0.242-1.018,0.352-1.527l0.15-0.758l0.285-0.73c0.191-0.486,0.373-0.971,0.539-1.457
				c0.994-1.85,2.049-3.604,3.727-5.127c1.457-1.604,3.617-2.914,5.898-4.176l0.209-0.123c0,0,0.596-0.195,0.795-0.244
				c0.209-0.051,0.744-0.137,0.859-0.139h0.268c0.055-0.008,0.123,0.006,0.176,0H83.8c30.373-7.008,53.57,20.998,53.57,50.563
				c0,12.215-1.744,22.684-6.98,33.154c-3.488,8.721-12.213,17.443-20.936,22.68c-2.271,2.016-4.625,3.869-7.035,5.596
				c5.795,4.393,11.82,8.484,18.07,12.252c0.738-0.693,1.486-1.393,2.215-2.115c3.77-3.607,7.432-7.621,10.943-11.955
				c6.982-8.691,13.488-18.9,17.783-30.998c2.168-6.004,3.721-12.48,4.324-19.186c0.207-1.537,0.285-3.623,0.354-5.535l0.059-2.902
				C156.144,332.467,156.087,331.98,156.05,331.355z"/>
		</g>
		<path fill="#808285" d="M217.63,56.542c10.467,12.214,26.172,17.449,41.873,8.724c3.492-3.487,3.492-8.724,1.746-12.212
			c-1.746-1.744-3.49-3.49-5.236-3.49c-0.42,0-0.871-0.025-1.334-0.057c1.34,0.473,2.73,1.446,3.732,2.96
			c0.754,1.126,1.223,2.525,1.137,3.741c-0.051,0.384-0.096,0.774-0.145,1.169c-0.1,0.345-0.16,0.556-0.297,0.938
			c-0.254,0.676-0.592,1.27-1.033,1.787c-1.686,2.016-5.492,3.133-9.934,2.92c-2.209-0.068-4.543-0.463-6.895-1.04
			c-1.176-0.297-2.354-0.668-3.523-1.077c-0.201-0.036,0.217,0.03,0.145,0.016l-0.063-0.023l-0.129-0.038l-0.258-0.087l-0.514-0.164
			c-0.223-0.102-0.305-0.182-0.461-0.263c-0.371-0.202-0.801-0.432-1.193-0.676c-3.191-1.989-5.867-5.3-7.482-9.192
			c-1.66-3.887-2.299-8.316-1.928-12.755c0.01-0.274,0.041-0.552,0.068-0.833l0.045-0.416l0.02-0.207l0.004-0.053
			c-0.014-0.271,0.031,0.318,0.027,0.23l0.02-0.148l0.121-1.171c0.049-0.366,0.072-0.865,0.15-1.013
			c0.258-0.801,0.514-1.914,0.852-2.913c0.66-1.999,1.52-3.756,2.514-5.296c0.953-1.454,2.059-2.696,3.27-3.815
			c-1.943-0.055-3.881-0.086-5.832-0.086c-5.504,0-10.953,0.235-16.344,0.658C204.714,33.46,208.526,48.958,217.63,56.542z"/>
		<g>
			<path fill="#231F20" d="M257.44,51.292c0.076,0.078,0.15,0.151,0.223,0.232C257.591,51.442,257.517,51.37,257.44,51.292z"/>
			<path fill="#231F20" d="M256.786,50.702c-0.068-0.055-0.137-0.112-0.199-0.164C256.649,50.59,256.718,50.647,256.786,50.702z"/>
			<path fill="#231F20" d="M267.019,56.86c-0.004-0.55-0.061-0.817-0.096-1.233c-0.436-3.022-1.809-5.393-3.379-7.218
				c-3.156-3.657-7.52-5.23-11.137-5.001c-1.803,0.109-3.373,0.575-4.592,1.172c-1.221,0.604-2.148,1.257-2.852,1.809
				c-1.555,1.315-1.848,1.724-1.918,1.751c-1.119,1.208-1.053,3.098,0.15,4.219c1.211,1.124,3.1,1.058,4.219-0.149
				c-0.035,0.063,0.605-0.789,1.26-1.361c0.813-0.737,2.172-1.626,3.982-1.683c0.617-0.032,1.316,0.087,2.025,0.341
				c0.463,0.032,0.91,0.057,1.33,0.057c1.746,0,3.49,1.747,5.236,3.49c1.746,3.488,1.746,8.725-1.746,12.212
				c-15.701,8.725-31.406,3.491-41.873-8.724c-9.104-7.585-12.916-23.083-6.877-33.88c2.662-0.209,5.332-0.37,8.02-0.481
				c-7.447,0.296-14.795,0.981-22.021,2.043c-0.041,1.722-0.027,3.424,0.088,5.099c0.131,2.077,0.385,4.056,0.74,6.344
				c0.08,0.625,0.176,0.896,0.266,1.306l0.279,1.142l0.033,0.143c0-0.041,0.051,0.595,0.043,0.373l0.02,0.091l0.076,0.373
				l0.162,0.737c0.109,0.492,0.213,0.983,0.346,1.474c1.967,7.825,5.527,15.4,10.76,21.591c5.195,6.179,12.146,10.965,19.922,12.902
				c0.979,0.246,1.926,0.427,2.953,0.588c0.541,0.08,1.16,0.171,1.635,0.216l0.545,0.018l0.268,0.011l0.137,0.006l0.064,0.003
				c-0.021-0.005,0.436,0.065,0.277,0.034c1.65,0.012,3.281-0.057,4.896-0.164c3.219-0.183,6.375-0.697,9.443-1.431
				c3.063-0.772,6.068-1.864,8.861-3.524c2.758-1.662,5.383-4.032,6.861-7.042c0.766-1.474,1.232-3.034,1.451-4.528
				c0.113-0.701,0.158-1.583,0.168-2.313L267.019,56.86z"/>
			<path fill="#231F20" d="M227.097,22.004c-2.748,0-5.48,0.061-8.195,0.167C221.616,22.063,224.349,22.004,227.097,22.004z"/>
		</g>
		<path fill="#808285" d="M275.206,150.763c10.764,15.106,29.879,17.665,47.328,10.686c5.232-1.744,10.635-7.555,13.521-11.559
			c2.277-3.166,4.287-7.617,5.455-11.34c3.672-11.78,0-24.43-6.984-33.153c-14.178-14.18-31.289-24.249-45.199-37.02
			c6.604,9.281,14.068,17.693,21.5,25.473c6.338,6.285,10.609,13.134,11.971,20.281c0.676,3.586,0.654,7.313-0.113,11.17
			c-0.791,3.84-2.344,7.774-4.482,11.532c-0.527,0.943-1.104,1.871-1.713,2.781c-0.592,0.906-1.279,1.846-1.795,2.555
			c-0.104,0.158-0.332,0.434-0.563,0.717l-0.666,0.818l-0.084,0.102c-0.154,0.176,0.115-0.119,0.064-0.064l-0.119,0.143
			l-0.238,0.293l-0.482,0.58c-0.664,0.754-1.34,1.492-2.051,2.182c-2.805,2.764-5.924,4.895-8.781,6.018
			c-2.885,1.105-5.313,1.379-7.865,0.926c-2.549-0.473-5.355-1.998-8.08-4.338c-0.682-0.594-1.361-1.199-2.021-1.875
			c-0.672-0.689-1.326-1.367-1.861-2.004l-0.432-0.48l-0.219-0.24l-0.271-0.363l-1.072-1.432c-0.498-0.582-1.076-1.453-1.541-2.16
			c-1.953-2.99-3.164-5.916-3.781-8.609c-0.586-2.706-0.453-5.204,0.209-7.618c0.203-0.73,0.48-1.441,0.803-2.137
			C269.724,129.585,269.534,142.8,275.206,150.763z"/>
		<g>
			<path fill="#231F20" d="M275.329,123.372c-0.188,0.459-0.357,0.918-0.49,1.391C274.972,124.29,275.146,123.831,275.329,123.372z"
				/>
			<path fill="#231F20" d="M356.636,110.909c-0.416-7.92-2.297-15.684-5.191-22.689c-2.893-6.988-6.725-13.335-10.734-18.953
				c-3.174-4.48-5.932-8.813-8.484-13.129c-1.539-2.641-2.928-5.262-4.211-7.853c-17.996-10.089-37.658-17.566-58.471-21.91
				c0.266,1.178,0.529,2.359,0.85,3.52c3.514,13.164,9.668,24.958,16.803,35.435c2.268,3.352,4.66,6.577,7.129,9.715
				c-1.705-2.176-3.381-4.394-4.998-6.667c13.91,12.771,31.021,22.839,45.199,37.02c6.984,8.723,10.656,21.373,6.984,33.153
				c-1.168,3.723-3.178,8.174-5.455,11.34c-2.887,4.004-8.289,9.815-13.521,11.559c-17.449,6.979-36.564,4.42-47.328-10.686
				c-5.672-7.963-5.482-21.176,0.436-28.137c0.732-1.609,1.734-3.127,2.908-4.5c3.418-3.947,8.064-6.467,11.994-7.648
				c3.982-1.262,7.336-1.275,9.537-1.045c1.121,0.113,1.967,0.305,2.443,0.387c0.672,0.205,1.012,0.309,1.012,0.309l0.041,0.014
				c1.48,0.451,3.143-0.076,4.07-1.412c1.158-1.656,0.748-3.941-0.914-5.1c0,0-0.303-0.214-0.889-0.623
				c-0.805-0.479-1.869-1.115-3.344-1.771c-2.959-1.287-7.662-2.627-13.711-2.342c-5.988,0.313-13.416,2.084-20.66,7.44
				c-3.574,2.688-7.029,6.402-9.561,11.225c-2.592,4.789-3.85,10.752-3.623,16.672c0.213,5.945,1.936,11.74,4.41,16.959
				c0.639,1.35,1.236,2.525,2.043,3.932l0.859,1.57l0.213,0.395l0.311,0.494l0.611,0.983c0.83,1.359,1.689,2.582,2.561,3.795
				c0.883,1.227,1.863,2.439,2.891,3.646c4.158,4.756,9.838,9.438,17.252,12.17c3.68,1.352,7.707,2.154,11.74,2.27
				c4.037,0.117,8.037-0.41,11.795-1.396c7.547-2.002,14.041-5.703,19.701-10.145c1.422-1.115,2.775-2.299,4.1-3.52l0.979-0.938
				l0.48-0.471l0.24-0.238l0.342-0.352l0.74-0.758c0.234-0.238,0.482-0.49,0.82-0.871c1.318-1.436,2.408-2.689,3.508-4.053
				c1.098-1.35,2.166-2.74,3.182-4.184c4.074-5.754,7.527-12.281,9.857-19.521C355.966,126.796,357.108,118.823,356.636,110.909z"/>
			<path fill="#231F20" d="M294.53,75.303c1.668,2.114,3.371,4.183,5.098,6.204C297.901,79.486,296.198,77.417,294.53,75.303z"/>
			<path fill="#231F20" d="M310.827,93.851c-1.756-1.832-3.502-3.706-5.246-5.613C307.325,90.143,309.071,92.019,310.827,93.851z"/>
			<path fill="#231F20" d="M305.14,87.761c-1.727-1.903-3.447-3.847-5.146-5.827C301.692,83.914,303.409,85.858,305.14,87.761z"/>
		</g>
		<path fill="#808285" d="M120.501,194.092c-16.201,9.535-41.902,9.268-56.699-2.617c-5.264-4.225-6.785-7.98-9.307-15.992
			c-6.371-20.284-0.303-48.978,5.912-69.011c-24.695,33.624-39.486,74.981-40.018,119.776c6.33,4.77,13.328,8.488,20.336,10.924
			c1.777,0.594,3.561,1.164,5.35,1.664c1.77,0.43,3.533,0.834,5.297,1.211c1.916,0.377,4.008,0.748,6.004,1.021l0.758,0.104
			l0.373,0.051l0.213,0.002h0.84l1.682,0.002h0.84l0.209,0.002c-0.791-0.174,1.303,0.24,1.203,0.199l0.6,0.01l2.375,0.025
			c1.561,0.018,3.178-0.059,4.771-0.129c3.189-0.139,6.414-0.479,9.625-0.979c6.42-0.986,12.834-2.721,18.92-5.205
			c12.25-4.885,22.834-12.994,30.416-22.09c15.34-18.375,20.035-38.895,22.961-56.258c1.463-8.557,2.793-16.621,4.633-23.697
			c1.207-4.85,2.662-9.129,4.357-12.817c-12.678,16.952-16.639,45.601-31.176,64.792
			C129.481,187.045,125.45,191.186,120.501,194.092z"/>
		<g>
			<path fill="#231F20" d="M23.192,194.693c-0.32,1.92-0.619,3.842-0.883,5.775C22.573,198.535,22.872,196.613,23.192,194.693z"/>
			<path fill="#231F20" d="M21.987,202.986c-0.209,1.703-0.398,3.412-0.572,5.123C21.589,206.398,21.778,204.689,21.987,202.986z"/>
			<path fill="#231F20" d="M24.931,185.406c-0.541,2.516-1.027,5.051-1.473,7.598C23.903,190.457,24.39,187.922,24.931,185.406z"/>
			<path fill="#231F20" d="M21.165,210.799c-0.154,1.762-0.277,3.537-0.381,5.314C20.888,214.336,21.011,212.561,21.165,210.799z"/>
			<path fill="#231F20" d="M26.651,178.035c-0.605,2.402-1.176,4.816-1.693,7.248C25.476,182.852,26.046,180.438,26.651,178.035z"/>
			<path fill="#231F20" d="M20.634,218.523c-0.121,2.564-0.213,5.137-0.244,7.725C20.421,223.66,20.513,221.088,20.634,218.523z"/>
			<path fill="#231F20" d="M158.878,129.157c-0.072,0.246-0.145,0.49-0.217,0.74C158.733,129.647,158.806,129.403,158.878,129.157z"
				/>
			<path fill="#231F20" d="M227.011,103.919l-0.219-1.771c-0.084-0.579-0.184-1.237-0.289-1.669
				c-0.414-1.939-0.977-3.861-1.742-5.656c-2.99-7.284-8.449-13.401-15.611-17.748c-3.58-2.171-7.619-3.87-11.957-4.916
				c-4.344-1.034-8.975-1.362-13.58-0.977c-9.268,0.779-18.133,4.507-25.441,9.671c-3.701,2.598-6.99,5.554-10.01,8.761
				l-0.508,0.549l-0.662,0.755c-0.426,0.495-0.902,1.026-1.283,1.503c-0.734,0.949-1.484,1.898-2.17,2.897
				c-1.418,1.966-2.689,4.044-3.803,6.186c-2.256,4.279-4.014,8.724-5.258,13.117c-1.291,4.398-2.145,8.725-2.916,12.9
				c-1.432,8.379-2.488,16.293-4.428,23.793c-1.863,7.405-4.578,14.04-8.594,19.67c-3.926,5.625-9.006,9.998-14.354,12.215
				c-5.346,2.318-10.756,2.279-15.551,1.107c-2.416-0.574-4.775-1.531-7.092-2.623c-1.162-0.561-2.305-1.16-3.463-1.803
				c-0.582-0.334-1.146-0.627-1.73-1.006l-0.863-0.508c0,0-3.031-2.289-3.199-2.568c-0.299-0.357-0.594-0.693-0.881-1.002
				c-0.223-0.365-0.439-0.676-0.662-0.957c-0.74-1.26-0.957-2.271-0.994-3.186c-0.051-0.898,0.021-1.727,0.059-2.842
				c0.041-1.404,0.082-2.809,0.123-4.205c0.141-3.451,0.508-8.18,1.539-13.477c1.045-5.309,2.471-11.115,4.402-17.008
				c3.805-11.821,9.273-23.79,14.982-34.959c5.758-11.188,12.162-21.534,18.27-30.831c3.742-5.604,7.451-10.791,11.018-15.548
				C87.935,71.293,61.503,99.36,43.95,132.818c4.836-9.209,10.34-18.016,16.457-26.346c-6.215,20.033-12.283,48.727-5.912,69.011
				c2.521,8.012,4.043,11.768,9.307,15.992c14.797,11.885,40.498,12.152,56.699,2.617c4.949-2.906,8.98-7.047,10.475-9.012
				c14.537-19.191,18.498-47.84,31.176-64.792c-0.002,0.012-0.006,0.021-0.014,0.031c0.797-1.729,1.637-3.336,2.541-4.791
				c0.717-1.141,1.457-2.217,2.234-3.242c0.377-0.521,0.799-1.004,1.205-1.5l0.502-0.59l0.238-0.289
				c0.061-0.084,0.283-0.311,0.42-0.457c2.012-2.09,3.992-4.082,6.014-5.667c3.984-3.303,7.928-5.532,11.74-6.406
				c3.781-0.901,7.533-0.641,10.955,0.639c3.404,1.263,6.283,3.64,7.965,5.96c0.445,0.579,0.75,1.152,1.035,1.693
				c0.098,0.182,0.09,0.16,0.137,0.205c0.045,0.035,0.096,0.066,0.16,0.107c0.057,0.242,0.117,0.604,0.182,0.896l0.088,0.467
				l0.023,0.113c-0.01-0.178,0.057,0.557-0.016-0.367l0.031,0.162c0.275,1.727,0.408,3.471,0.367,5.172
				c-0.1,3.408-0.969,6.563-2.104,9.215c-2.342,5.361-5.941,8.258-8.615,9.482c-1.32,0.647-2.594,0.946-3.17,1.102
				c-0.873,0.156-1.563,0.182-1.516,0.191c-2.445-0.135-4.529,1.732-4.666,4.172c-0.135,2.441,1.734,4.529,4.174,4.664
				c0.047-0.006,0.441,0.133,1.689,0.332c1.539,0.178,3.439,0.309,6.107-0.023c2.617-0.354,5.85-1.277,9.189-3.16
				c3.342-1.877,6.736-4.723,9.709-8.528c2.98-3.801,5.445-8.613,6.98-14.299c0.75-2.848,1.244-5.922,1.322-9.176
				C227.044,105.577,227.028,104.75,227.011,103.919z"/>
			<path fill="#231F20" d="M159.829,126.159c-0.043,0.115-0.074,0.232-0.119,0.344C159.755,126.392,159.786,126.274,159.829,126.159
				z"/>
			<path fill="#231F20" d="M40.44,139.826c1.039-2.174,2.117-4.328,3.227-6.457C42.558,135.498,41.479,137.652,40.44,139.826z"/>
			<path fill="#231F20" d="M31.069,163.012c-0.652,1.949-1.279,3.912-1.875,5.889C29.79,166.926,30.417,164.961,31.069,163.012z"/>
			<path fill="#231F20" d="M40.212,140.3c-3.291,6.947-6.207,14.1-8.719,21.444C34.007,154.4,36.915,147.246,40.212,140.3z"/>
			<path fill="#231F20" d="M28.679,170.635c-0.564,1.918-1.098,3.846-1.6,5.787C27.581,174.48,28.114,172.551,28.679,170.635z"/>
		</g>
		<g>
			<path fill="#6D6E71" d="M322.952,112.985c-3.143-0.041-5.742,3.949-5.809,8.906c-0.045,3.352,1.09,6.256,2.793,7.822
				c0.963,1.211,2.166,1.969,3.502,1.987c3.205,0.047,5.85-4.022,5.928-9.075c0.049-4.201-1.705-7.734-4.143-8.842
				C324.528,113.29,323.767,112.999,322.952,112.985z"/>
			<path fill="#6D6E71" d="M316.646,107.372c1.959,0.984,3.936,1.135,5.375,0.15c2.648-1.807,2.467-6.65-0.377-10.829
				c-2.211-3.225-5.373-5.084-7.926-4.928c-0.936-0.049-1.814,0.137-2.547,0.631c-2.588,1.771-2.416,6.531,0.383,10.629
				C312.989,105.124,314.837,106.63,316.646,107.372z"/>
			<path fill="#6D6E71" d="M292.124,149.208c-3.402-1.152-6.75-0.346-7.479,1.811c-0.16,0.475-0.16,0.979-0.057,1.484
				c-0.42,2.123,1.703,4.633,4.982,5.752c3.465,1.166,6.877,0.346,7.619-1.854c0.225-0.648,0.156-1.344-0.1-2.031
				C297.128,152.4,295.099,150.216,292.124,149.208z"/>
			<path fill="#6D6E71" d="M341.632,115.372c-0.6-0.352-1.24-0.58-1.916-0.588c-3.139-0.041-5.742,3.945-5.811,8.902
				c-0.055,3.906,1.49,7.215,3.68,8.485c0.854,0.828,1.854,1.342,2.938,1.359c3.205,0.047,5.85-4.02,5.924-9.077
				C346.505,119.874,344.411,116.073,341.632,115.372z"/>
			<path fill="#6D6E71" d="M319.821,138.353c-0.244-0.445-0.535-0.852-0.93-1.168c-2.453-1.959-6.953-0.398-10.047,3.473
				c-2.584,3.24-3.346,7.055-2.098,9.373c0.232,0.945,0.672,1.764,1.385,2.332c2.504,1.996,7.086,0.406,10.246-3.535
				C321.384,145.044,321.974,140.49,319.821,138.353z"/>
			<path fill="#6D6E71" d="M332.095,149.363c-0.238-0.408-0.518-0.779-0.885-1.078c-2.453-1.957-6.955-0.4-10.047,3.471
				c-2.771,3.477-3.459,7.614-1.813,9.854c0.246,0.834,0.68,1.547,1.33,2.066c2.504,2.002,7.086,0.412,10.246-3.529
				c3.143-3.958,3.678-8.776,1.178-10.778C332.099,149.365,332.095,149.365,332.095,149.363z"/>
		</g>
		<g>
			<path fill="#6D6E71" d="M327.259,121.175c-0.074,4.816-2.596,8.693-5.648,8.65c-3.049-0.043-5.471-3.982-5.404-8.803
				c0.068-4.814,2.59-8.688,5.643-8.646C324.899,112.419,327.315,116.364,327.259,121.175z"/>
			<path fill="#6D6E71" d="M319.899,96.462c2.713,3.978,2.885,8.597,0.359,10.318c-2.521,1.725-6.768-0.102-9.488-4.083
				c-2.715-3.977-2.879-8.597-0.363-10.318C312.935,90.654,317.179,92.489,319.899,96.462z"/>
			<path fill="#6D6E71" d="M343.544,122.919c-0.078,4.816-2.594,8.696-5.65,8.65c-3.051-0.043-5.475-3.98-5.404-8.797
				c0.068-4.82,2.592-8.693,5.643-8.652C341.183,114.163,343.599,118.108,343.544,122.919z"/>
			<path fill="#6D6E71" d="M316.79,146.148c-3.012,3.758-7.387,5.275-9.764,3.369c-2.391-1.904-1.883-6.498,1.121-10.264
				c3.004-3.762,7.375-5.277,9.76-3.373C320.294,137.785,319.782,142.382,316.79,146.148z"/>
			<path fill="#6D6E71" d="M289.331,155.134c-3.293-1.125-5.4-3.73-4.686-5.816c0.707-2.094,3.955-2.877,7.26-1.76
				c3.297,1.119,5.4,3.723,4.691,5.811C295.888,155.462,292.632,156.244,289.331,155.134z"/>
			<path fill="#6D6E71" d="M328.747,156.935c-3.008,3.754-7.381,5.272-9.766,3.366c-2.389-1.902-1.879-6.5,1.127-10.266
				c3.008-3.762,7.375-5.275,9.756-3.373C332.257,148.568,331.745,153.164,328.747,156.935z"/>
		</g>
		<g>
			<path d="M275.329,123.372c-0.188,0.459-0.357,0.918-0.49,1.391C274.972,124.29,275.146,123.831,275.329,123.372z"/>
			<path d="M356.636,110.909c-0.416-7.92-2.297-15.684-5.191-22.689c-2.893-6.988-6.725-13.335-10.734-18.953
				c-3.174-4.48-5.932-8.813-8.484-13.129c-1.539-2.641-2.928-5.262-4.211-7.853c-17.996-10.089-37.658-17.566-58.471-21.91
				c0.266,1.178,0.529,2.359,0.85,3.52c3.514,13.164,9.668,24.958,16.803,35.435c2.268,3.352,4.66,6.577,7.129,9.715
				c-1.705-2.176-3.381-4.394-4.998-6.667c13.91,12.771,31.021,22.839,45.199,37.02c6.984,8.723,10.656,21.373,6.984,33.153
				c-1.168,3.723-3.178,8.174-5.455,11.34c-2.887,4.004-8.289,9.815-13.521,11.559c-17.449,6.979-36.564,4.42-47.328-10.686
				c-5.672-7.963-5.482-21.176,0.436-28.137c0.732-1.609,1.734-3.127,2.908-4.5c3.418-3.947,8.064-6.467,11.994-7.648
				c3.982-1.262,7.336-1.275,9.537-1.045c1.121,0.113,1.967,0.305,2.443,0.387c0.672,0.205,1.012,0.309,1.012,0.309l0.041,0.014
				c1.48,0.451,3.143-0.076,4.07-1.412c1.158-1.656,0.748-3.941-0.914-5.1c0,0-0.303-0.214-0.889-0.623
				c-0.805-0.479-1.869-1.115-3.344-1.771c-2.959-1.287-7.662-2.627-13.711-2.342c-5.988,0.313-13.416,2.084-20.66,7.44
				c-3.574,2.688-7.029,6.402-9.561,11.225c-2.592,4.789-3.85,10.752-3.623,16.672c0.213,5.945,1.936,11.74,4.41,16.959
				c0.639,1.35,1.236,2.525,2.043,3.932l0.859,1.57l0.213,0.395l0.311,0.494l0.611,0.983c0.83,1.359,1.689,2.582,2.561,3.795
				c0.883,1.227,1.863,2.439,2.891,3.646c4.158,4.756,9.838,9.438,17.252,12.17c3.68,1.352,7.707,2.154,11.74,2.27
				c4.037,0.117,8.037-0.41,11.795-1.396c7.547-2.002,14.041-5.703,19.701-10.145c1.422-1.115,2.775-2.299,4.1-3.52l0.979-0.938
				l0.48-0.471l0.24-0.238l0.342-0.352l0.74-0.758c0.234-0.238,0.482-0.49,0.82-0.871c1.318-1.436,2.408-2.689,3.508-4.053
				c1.098-1.35,2.166-2.74,3.182-4.184c4.074-5.754,7.527-12.281,9.857-19.521C355.966,126.796,357.108,118.823,356.636,110.909z"/>
			<path d="M294.53,75.303c1.668,2.114,3.371,4.183,5.098,6.204C297.901,79.486,296.198,77.417,294.53,75.303z"/>
			<path d="M310.827,93.851c-1.756-1.832-3.502-3.706-5.246-5.613C307.325,90.143,309.071,92.019,310.827,93.851z"/>
			<path d="M305.14,87.761c-1.727-1.903-3.447-3.847-5.146-5.827C301.692,83.914,303.409,85.858,305.14,87.761z"/>
		</g>
		<g>
			<path fill="#6D6E71" d="M208.368,27.876c-0.145,0-0.281,0.05-0.422,0.068c-0.119-0.014-0.232-0.06-0.354-0.06
				c-0.309-0.002-0.611,0.069-0.904,0.141c-0.299-0.072-0.602-0.118-0.904-0.121c-3.346-0.011-6.08,4.27-6.098,9.559
				c-0.025,5.29,2.674,9.587,6.023,9.601c0.887,0.004,1.723-0.295,2.486-0.827c0.371-0.069,0.736-0.186,1.086-0.359
				c2.711-0.722,4.785-4.418,4.809-8.903C214.104,31.968,211.548,27.89,208.368,27.876z"/>
			<path fill="#6D6E71" d="M235.122,54.526c-2.67-2.55-6.152-3.252-7.773-1.558c-0.045,0.045-0.068,0.109-0.115,0.162
				c-0.117,0.086-0.244,0.157-0.35,0.263c-0.119,0.127-0.195,0.28-0.289,0.425c-0.289,0.15-0.555,0.333-0.781,0.572
				c-1.709,1.783-0.801,5.423,2.016,8.116c2.824,2.698,6.496,3.439,8.201,1.653c0.367-0.383,0.592-0.863,0.727-1.387
				c0.254-0.28,0.426-0.609,0.561-0.966C238.489,60.015,237.599,56.9,235.122,54.526z"/>
			<path fill="#6D6E71" d="M227.353,44.557c1.967-1.249,3.623-3.911,4.205-7.23c0.84-4.932-0.994-9.38-4.125-9.923
				c-0.398-0.072-0.799-0.068-1.197-0.009c-0.158,0.001-0.318-0.023-0.473-0.002c-3.256-0.443-6.58,3.281-7.471,8.417
				c-0.9,5.214,1.039,9.905,4.346,10.475c1.281,0.225,2.576-0.213,3.732-1.128C226.702,44.993,227.034,44.802,227.353,44.557z"/>
			<path fill="#6D6E71" d="M254.987,63.968c0.023-0.182,0.039-0.364,0.014-0.547c-0.229-1.747-2.652-2.868-5.414-2.514
				c-2.484,0.327-4.379,1.745-4.568,3.302c-0.135,0.329-0.203,0.67-0.182,1.018c-0.301,0.499-0.463,1.035-0.391,1.577
				c0.236,1.844,2.801,3.032,5.715,2.65c2.91-0.377,5.08-2.185,4.84-4.033c-0.02-0.15-0.076-0.282-0.123-0.421
				c0.109-0.319,0.168-0.645,0.123-0.979C255.001,64.001,254.991,63.986,254.987,63.968z"/>
		</g>
		<g>
			<path fill="#6D6E71" d="M232.466,36.943c-0.83,4.744-3.934,8.172-6.936,7.65c-3.012-0.521-4.781-4.791-3.955-9.537
				c0.82-4.747,3.924-8.178,6.926-7.658C231.511,27.921,233.278,32.197,232.466,36.943z"/>
			<path fill="#6D6E71" d="M215.681,36.6c-0.023,4.819-2.508,8.72-5.559,8.701c-3.057-0.009-5.516-3.923-5.492-8.742
				c0.02-4.816,2.5-8.715,5.551-8.704C213.237,27.866,215.692,31.786,215.681,36.6z"/>
			<path fill="#6D6E71" d="M235.894,53.472c2.572,2.459,3.393,5.77,1.836,7.396c-1.559,1.628-4.9,0.954-7.471-1.503
				c-2.566-2.455-3.393-5.768-1.84-7.392C229.981,50.345,233.323,51.02,235.894,53.472z"/>
			<path fill="#6D6E71" d="M249.798,59.603c2.656-0.34,4.984,0.738,5.203,2.416c0.223,1.686-1.754,3.329-4.406,3.672
				c-2.652,0.353-4.99-0.733-5.203-2.414C245.173,61.595,247.147,59.953,249.798,59.603z"/>
		</g>
		<g>
			<path fill="#231F20" d="M257.44,51.292c0.076,0.078,0.15,0.151,0.223,0.232C257.591,51.442,257.517,51.37,257.44,51.292z"/>
			<path fill="#231F20" d="M256.786,50.702c-0.068-0.055-0.137-0.112-0.199-0.164C256.649,50.59,256.718,50.647,256.786,50.702z"/>
			<path fill="#231F20" d="M267.019,56.86c-0.004-0.55-0.061-0.817-0.096-1.233c-0.436-3.022-1.809-5.393-3.379-7.218
				c-3.156-3.657-7.52-5.23-11.137-5.001c-1.803,0.109-3.373,0.575-4.592,1.172c-1.221,0.604-2.148,1.257-2.852,1.809
				c-1.555,1.315-1.848,1.724-1.918,1.751c-1.119,1.208-1.053,3.098,0.15,4.219c1.211,1.124,3.1,1.058,4.219-0.149
				c-0.035,0.063,0.605-0.789,1.26-1.361c0.813-0.737,2.172-1.626,3.982-1.683c0.617-0.032,1.316,0.087,2.025,0.341
				c0.463,0.032,0.91,0.057,1.33,0.057c1.746,0,3.49,1.747,5.236,3.49c1.746,3.488,1.746,8.725-1.746,12.212
				c-15.701,8.725-31.406,3.491-41.873-8.724c-9.104-7.585-12.916-23.083-6.877-33.88c2.662-0.209,5.332-0.37,8.02-0.481
				c-7.447,0.296-14.795,0.981-22.021,2.043c-0.041,1.722-0.027,3.424,0.088,5.099c0.131,2.077,0.385,4.056,0.74,6.344
				c0.08,0.625,0.176,0.896,0.266,1.306l0.279,1.142l0.033,0.143c0-0.041,0.051,0.595,0.043,0.373l0.02,0.091l0.076,0.373
				l0.162,0.737c0.109,0.492,0.213,0.983,0.346,1.474c1.967,7.825,5.527,15.4,10.76,21.591c5.195,6.179,12.146,10.965,19.922,12.902
				c0.979,0.246,1.926,0.427,2.953,0.588c0.541,0.08,1.16,0.171,1.635,0.216l0.545,0.018l0.268,0.011l0.137,0.006l0.064,0.003
				c-0.021-0.005,0.436,0.065,0.277,0.034c1.65,0.012,3.281-0.057,4.896-0.164c3.219-0.183,6.375-0.697,9.443-1.431
				c3.063-0.772,6.068-1.864,8.861-3.524c2.758-1.662,5.383-4.032,6.861-7.042c0.766-1.474,1.232-3.034,1.451-4.528
				c0.113-0.701,0.158-1.583,0.168-2.313L267.019,56.86z"/>
			<path fill="#231F20" d="M227.097,22.004c-2.748,0-5.48,0.061-8.195,0.167C221.616,22.063,224.349,22.004,227.097,22.004z"/>
		</g>
		<g>
			<path fill="#6D6E71" d="M113.724,314.063c0.715-0.207,1.336-0.639,1.852-1.215c0.445-0.264,0.846-0.6,1.189-1.021
				c0.158-0.088,0.291-0.219,0.438-0.324c2.688-1.553,3.77-6.121,2.391-10.895c-1.535-5.281-5.477-8.785-8.826-7.82
				c-1.373,0.396-2.414,1.508-3.076,3.016c-0.18,0.354-0.354,0.723-0.49,1.127c-0.322,0.449-0.586,0.967-0.801,1.543
				c-1.303,1.971-1.664,5.164-0.711,8.477C107.079,311.762,110.671,314.943,113.724,314.063z"/>
			<path fill="#6D6E71" d="M128.218,309.305c0.646-0.186,1.195-0.57,1.68-1.057c0.688-0.238,1.291-0.646,1.791-1.219
				c0.014-0.004,0.031-0.004,0.051-0.01c0.498-0.145,0.945-0.408,1.363-0.725c2.709-1.529,3.813-6.119,2.434-10.92
				c-1.531-5.283-5.482-8.783-8.834-7.82c-0.984,0.287-1.787,0.959-2.416,1.857c-0.377,0.424-0.713,0.9-0.977,1.463
				c-0.627,0.451-1.148,1.074-1.547,1.852c-1.986,1.717-2.717,5.512-1.574,9.467C121.579,307.004,125.171,310.186,128.218,309.305z"
				/>
			<path fill="#6D6E71" d="M103.095,353.549c-0.014-0.012-0.031-0.018-0.045-0.031c-0.051-0.055-0.078-0.121-0.129-0.172
				c-0.057-0.055-0.137-0.088-0.199-0.143c-0.148-0.232-0.289-0.475-0.49-0.672c-0.045-0.043-0.104-0.068-0.154-0.109
				c-0.117-0.168-0.219-0.354-0.367-0.498c-2.248-2.227-6.932-1.145-10.445,2.41c-2.4,2.43-3.604,5.369-3.434,7.705
				c-0.031,0.402-0.025,0.787,0.014,1.16c-0.01,0.127,0,0.242-0.004,0.369c-0.146,1.656,0.229,3.145,1.256,4.156
				c2.477,2.451,7.623,1.262,11.492-2.646C104.448,361.158,105.579,356.002,103.095,353.549z"/>
			<path fill="#6D6E71" d="M119.198,323.797c-1.162-0.391-2.42-0.223-3.637,0.373c-0.201,0.086-0.396,0.156-0.586,0.258
				c-0.412,0.115-0.826,0.283-1.232,0.508c-2.297,0.762-4.557,3.262-5.713,6.682c-1.598,4.744-0.457,9.408,2.549,10.42
				c0.188,0.063,0.381,0.064,0.574,0.1c0.094,0.037,0.176,0.107,0.275,0.143c0.252,0.084,0.508,0.098,0.764,0.129
				c0.125,0.059,0.234,0.15,0.367,0.193c0.086,0.027,0.174,0.041,0.254,0.063c0.016,0.004,0.02,0.012,0.031,0.018
				c3.303,1.117,7.398-2.213,9.156-7.426C123.755,330.045,122.505,324.91,119.198,323.797z"/>
			<path fill="#6D6E71" d="M135.64,330.523c-0.691-0.232-1.408-0.26-2.135-0.129c-0.453,0.029-0.904,0.119-1.357,0.281
				c-0.582-0.07-1.176-0.035-1.771,0.143c-2.807-0.193-5.957,2.656-7.393,6.916c-1.596,4.744-0.459,9.408,2.547,10.42
				c0.244,0.084,0.5,0.098,0.754,0.129c0.211,0.121,0.414,0.26,0.654,0.342c0.326,0.109,0.662,0.146,1.004,0.168
				c0.275,0.178,0.553,0.352,0.871,0.459c0.105,0.035,0.219,0.055,0.328,0.082c0.049,0.018,0.09,0.057,0.141,0.072
				c3.299,1.113,7.398-2.215,9.162-7.426C140.188,336.768,138.94,331.637,135.64,330.523z"/>
			<path fill="#6D6E71" d="M119.349,368.113c-0.064-0.074-0.104-0.168-0.17-0.236c-0.225-0.217-0.482-0.373-0.742-0.531
				c-0.186-0.348-0.412-0.666-0.693-0.949c-0.17-0.16-0.371-0.268-0.557-0.395c-0.154-0.252-0.313-0.504-0.525-0.713
				c-2.248-2.229-6.928-1.145-10.445,2.416c-3.17,3.211-4.293,7.326-2.832,9.736c0.115,0.662,0.373,1.244,0.734,1.762
				c0.07,0.559,0.217,1.082,0.438,1.559c0.219,0.623,0.518,1.201,0.982,1.658c2.471,2.451,7.615,1.258,11.484-2.648
				c3.861-3.918,4.992-9.074,2.514-11.527C119.479,368.191,119.407,368.164,119.349,368.113z"/>
		</g>
		<g>
			<path fill="#6D6E71" d="M98.995,361.404c-3.389,3.422-7.895,4.467-10.061,2.32c-2.176-2.146-1.186-6.658,2.199-10.09
				c3.383-3.424,7.891-4.467,10.059-2.322C103.362,353.459,102.372,357.971,98.995,361.404z"/>
			<path fill="#6D6E71" d="M117.749,335.293c-1.541,4.563-5.129,7.479-8.025,6.502c-2.893-0.973-3.986-5.463-2.445-10.029
				c1.535-4.563,5.123-7.482,8.01-6.506C118.187,326.236,119.278,330.729,117.749,335.293z"/>
			<path fill="#6D6E71" d="M132.144,341.184c-1.541,4.559-5.133,7.477-8.021,6.5c-2.898-0.975-3.986-5.465-2.453-10.031
				c1.541-4.563,5.129-7.479,8.016-6.502C132.579,332.121,133.673,336.615,132.144,341.184z"/>
			<path fill="#6D6E71" d="M115.64,304.949c1.33,4.631,0.045,9.074-2.891,9.914c-2.932,0.85-6.387-2.215-7.727-6.848
				c-1.336-4.623-0.047-9.066,2.883-9.91C110.839,297.258,114.3,300.326,115.64,304.949z"/>
			<path fill="#6D6E71" d="M129.595,300.371c1.334,4.629,0.045,9.07-2.883,9.91c-2.934,0.85-6.395-2.213-7.73-6.844
				c-1.336-4.625-0.051-9.066,2.883-9.914C124.8,292.678,128.257,295.744,129.595,300.371z"/>
			<path fill="#6D6E71" d="M113.39,374.271c-3.393,3.422-7.898,4.467-10.063,2.32c-2.172-2.145-1.186-6.658,2.203-10.088
				c3.383-3.426,7.887-4.467,10.057-2.322C117.761,366.326,116.769,370.84,113.39,374.271z"/>
		</g>
		<g>
			<path d="M96.05,388.611c2.08,1.703,4.18,3.377,6.322,5.002C100.229,391.988,98.13,390.314,96.05,388.611z"/>
			<path d="M76.222,370.064c1.85,1.973,3.742,3.898,5.668,5.797C79.964,373.965,78.071,372.037,76.222,370.064z"/>
			<path d="M83.64,377.547c1.402,1.35,2.816,2.684,4.25,3.994C86.456,380.23,85.042,378.896,83.64,377.547z"/>
			<path d="M89.835,383.287c1.492,1.33,3.01,2.631,4.539,3.92C92.845,385.922,91.327,384.617,89.835,383.287z"/>
			<path d="M156.05,331.355l-0.131-1.777l-0.033-0.445l-0.02-0.223l-0.006-0.107c0.002,0.762-0.016-1.164-0.02-1.021l-0.135-1.123
				c-0.188-1.5-0.355-2.998-0.578-4.486c-1.857-11.936-5.945-23.682-12.281-33.877c-6.313-10.201-14.664-18.887-24.516-25.133
				c-4.936-3.115-10.301-5.594-16.031-7.232c-5.689-1.664-11.945-2.324-18.287-1.479c-3.18,0.482-6.363,1.254-9.387,2.631
				c-1.375,0.531-3.373,1.656-4.971,2.652c-0.553,0.385-0.814,0.629-1.229,0.947l-0.57,0.455c-0.295,0.205,0.555-0.375-0.678,0.473
				l-0.084,0.082l-0.178,0.168l-0.346,0.336c-0.912,0.895-1.816,1.785-2.711,2.666l-1.313,1.32c-0.408,0.486-0.799,1.004-1.193,1.5
				c-0.77,1.004-1.527,1.998-2.275,2.986c-0.75,0.969-1.314,2.154-1.936,3.209c-2.557,4.232-3.783,9.047-4.424,13.424
				c-0.068,1.113-0.129,2.207-0.191,3.289c-0.014,0.535-0.031,1.066-0.049,1.594c0.035,0.521,0.082,1.043,0.117,1.559
				c0.092,1.025,0.172,2.033,0.295,3.01c0.156,0.973,0.414,1.906,0.619,2.824c1.797,7.342,5.346,12.643,8.814,16.295
				c0.805,0.955,1.789,1.711,2.607,2.457c0.805,0.76,1.713,1.355,2.52,1.908c1.486,1.117,3.299,1.988,4.602,2.594
				c0.705,0.367,1.117,0.404,1.549,0.539c0.414,0.117,0.768,0.215,1.049,0.291c0.559,0.154,0.855,0.236,0.855,0.236
				c1.406,0.391,2.977-0.072,3.939-1.295c1.281-1.625,1-3.977-0.631-5.258l-0.014-0.014c0,0-0.236-0.184-0.695-0.547
				c-0.23-0.18-0.516-0.408-0.859-0.674c-0.309-0.264-0.826-0.582-0.988-0.918c-0.867-1.141-2.635-3.334-3.957-6.418
				c-1.326-3.061-2.279-7.135-1.914-11.289c0.063-0.52,0.066-1.035,0.156-1.549c0.143-0.512,0.242-1.018,0.352-1.527l0.15-0.758
				l0.285-0.73c0.191-0.486,0.373-0.971,0.539-1.457c0.994-1.85,2.049-3.604,3.727-5.127c1.457-1.604,3.617-2.914,5.898-4.176
				l0.209-0.123c0,0,0.596-0.195,0.795-0.244c0.209-0.051,0.744-0.137,0.859-0.139h0.268c0.055-0.008,0.123,0.006,0.176,0H83.8
				c30.373-7.008,53.57,20.998,53.57,50.563c0,12.215-1.744,22.684-6.98,33.154c-3.488,8.721-12.213,17.443-20.936,22.68
				c-2.271,2.016-4.625,3.869-7.035,5.596c5.795,4.393,11.82,8.484,18.07,12.252c0.738-0.693,1.486-1.393,2.215-2.115
				c3.77-3.607,7.432-7.621,10.943-11.955c6.982-8.691,13.488-18.9,17.783-30.998c2.168-6.004,3.721-12.48,4.324-19.186
				c0.207-1.537,0.285-3.623,0.354-5.535l0.059-2.902C156.144,332.467,156.087,331.98,156.05,331.355z"/>
		</g>
		<g>
			<path fill="#6D6E71" d="M140.854,196.047c0.357-2.574-0.08-4.861-1.428-6.076c-2.338-2.131-6.475-0.184-9.227,4.326
				c-1.818,2.979-2.555,6.313-2.189,8.859c-0.105,0.846-0.125,1.652-0.023,2.393c-0.082,0.688-0.102,1.352-0.033,1.961
				c-0.193,1.971,0.283,3.686,1.514,4.635c2.344,1.814,6.477,0.156,9.234-3.699c1.77-2.498,2.523-5.291,2.211-7.455
				c0.09-0.787,0.08-1.533-0.031-2.219C141.009,197.795,140.999,196.879,140.854,196.047z"/>
			<path fill="#6D6E71" d="M44.694,225.172c-6.99-2.68-13.779-0.482-15.176,4.908c-0.211,0.801-0.27,1.627-0.229,2.463
				c-0.014,0.254-0.014,0.514,0,0.768c-0.014,0.211-0.014,0.42-0.004,0.629c-0.178,4.264,4.096,8.963,10.354,11.018
				c6.986,2.283,13.785,0.42,15.176-4.191c0.195-0.625,0.264-1.27,0.244-1.918c0.004-0.127,0-0.256-0.006-0.383
				c0.006-0.154,0.006-0.309,0-0.463C55.196,233.029,50.921,227.566,44.694,225.172z"/>
			<path fill="#6D6E71" d="M49.272,187.471c-6.988-2.682-13.779-0.488-15.172,4.906c-0.305,1.162-0.314,2.385-0.096,3.605
				c-0.182,0.9-0.191,1.824-0.037,2.756c-0.137,0.736-0.154,1.492-0.037,2.25c-0.721,4.439,3.686,9.557,10.291,11.727
				c6.986,2.279,13.779,0.42,15.176-4.191c0.258-0.846,0.309-1.725,0.189-2.609c0.09-0.67,0.072-1.35-0.031-2.037
				c0.121-0.805,0.104-1.631-0.033-2.461C60.407,196.17,55.976,190.043,49.272,187.471z"/>
			<path fill="#6D6E71" d="M92.149,235.963c-0.375-5.072-6.025-8.584-12.604-7.848c-6.379,0.719-11.277,5.164-11.225,10.061
				c-0.006,0.141,0,0.287,0,0.43c-0.006,0.119,0,0.234,0,0.352c-0.02,0.275-0.02,0.559,0.006,0.834
				c0.379,4.338,6.029,7.344,12.609,6.713c6.336-0.621,11.223-4.373,11.223-8.533c0.008-0.152,0-0.305-0.004-0.459
				c0.012-0.182,0.004-0.365,0-0.551C92.173,236.631,92.177,236.297,92.149,235.963z"/>
			<path fill="#6D6E71" d="M84.116,202.141c-6.549-1.098-12.313,2.1-12.893,7.15c-0.074,0.648-0.057,1.299,0.045,1.936
				c-0.016,0.076-0.033,0.148-0.045,0.227c-0.064,0.563-0.057,1.125,0.025,1.682c-0.01,0.039-0.018,0.076-0.025,0.115
				c-0.061,0.473-0.045,0.943,0.008,1.412c0,0.01-0.004,0.02-0.008,0.029c-0.578,4.309,4.268,8.574,10.813,9.516
				c6.545,0.934,12.322-1.787,12.889-6.109c0.061-0.432,0.051-0.863,0-1.293c0.064-0.51,0.055-1.016-0.014-1.52
				c0-0.029,0.01-0.055,0.014-0.082c0.072-0.594,0.061-1.186-0.027-1.768c0.004-0.053,0.018-0.107,0.027-0.162
				C95.507,208.232,90.657,203.242,84.116,202.141z"/>
			<path fill="#6D6E71" d="M120.438,218.447c-1.604-3.521-6.602-3.855-11.162-0.766c-3.762,2.555-5.998,6.637-5.777,9.969
				c-0.037,0.34-0.021,0.67-0.006,0.994c-0.031,0.275-0.014,0.539-0.002,0.805c-0.1,0.951,0.031,1.854,0.453,2.652
				c1.604,2.998,6.607,3.289,11.168,0.646c3.742-2.18,5.984-5.656,5.775-8.498c0.041-0.398,0.033-0.785-0.008-1.162
				c0.055-0.482,0.049-0.949-0.004-1.408C120.997,220.521,120.884,219.412,120.438,218.447z"/>
		</g>
		<g>
			<path fill="#6D6E71" d="M39.64,245.023c-6.984-2.207-11.521-7.58-10.121-11.996c1.396-4.432,8.186-6.23,15.176-4.031
				c6.982,2.203,11.523,7.58,10.121,12C53.425,245.428,46.626,247.213,39.64,245.023z"/>
			<path fill="#6D6E71" d="M44.222,214.053c-6.988-2.205-11.527-7.578-10.121-11.994c1.393-4.432,8.184-6.232,15.172-4.031
				c6.984,2.203,11.521,7.58,10.125,12C58.001,214.457,51.208,216.244,44.222,214.053z"/>
			<path fill="#6D6E71" d="M80.937,246.506c-6.58,0.605-12.23-2.279-12.609-6.441c-0.383-4.174,4.633-8.043,11.219-8.652
				c6.578-0.604,12.229,2.281,12.604,6.449C92.54,242.031,87.509,245.887,80.937,246.506z"/>
			<path fill="#6D6E71" d="M82.036,225.094c-6.545-0.906-11.391-5.004-10.813-9.143c0.58-4.148,6.344-6.777,12.893-5.875
				c6.541,0.908,11.391,5.006,10.809,9.146C94.358,223.373,88.581,225.988,82.036,225.094z"/>
			<path fill="#6D6E71" d="M115.112,233.297c-4.561,2.539-9.564,2.258-11.168-0.623c-1.607-2.893,0.775-7.287,5.332-9.83
				c4.561-2.539,9.559-2.262,11.162,0.625C122.056,226.357,119.657,230.75,115.112,233.297z"/>
			<path fill="#6D6E71" d="M138.702,209.951c-2.758,3.705-6.891,5.299-9.234,3.555c-2.354-1.742-2.025-6.162,0.732-9.871
				c2.752-3.705,6.889-5.299,9.227-3.551C141.788,201.824,141.444,206.24,138.702,209.951z"/>
		</g>
		<g>
			<path d="M23.192,194.693c-0.32,1.92-0.619,3.842-0.883,5.775C22.573,198.535,22.872,196.613,23.192,194.693z"/>
			<path d="M21.987,202.986c-0.209,1.703-0.398,3.412-0.572,5.123C21.589,206.398,21.778,204.689,21.987,202.986z"/>
			<path d="M24.931,185.406c-0.541,2.516-1.027,5.051-1.473,7.598C23.903,190.457,24.39,187.922,24.931,185.406z"/>
			<path d="M21.165,210.799c-0.154,1.762-0.277,3.537-0.381,5.314C20.888,214.336,21.011,212.561,21.165,210.799z"/>
			<path d="M26.651,178.035c-0.605,2.402-1.176,4.816-1.693,7.248C25.476,182.852,26.046,180.438,26.651,178.035z"/>
			<path d="M20.634,218.523c-0.121,2.564-0.213,5.137-0.244,7.725C20.421,223.66,20.513,221.088,20.634,218.523z"/>
			<path d="M158.878,129.157c-0.072,0.246-0.145,0.49-0.217,0.74C158.733,129.647,158.806,129.403,158.878,129.157z"/>
			<path d="M227.011,103.919l-0.219-1.771c-0.084-0.579-0.184-1.237-0.289-1.669c-0.414-1.939-0.977-3.861-1.742-5.656
				c-2.99-7.284-8.449-13.401-15.611-17.748c-3.58-2.171-7.619-3.87-11.957-4.916c-4.344-1.034-8.975-1.362-13.58-0.977
				c-9.268,0.779-18.133,4.507-25.441,9.671c-3.701,2.598-6.99,5.554-10.01,8.761l-0.508,0.549l-0.662,0.755
				c-0.426,0.495-0.902,1.026-1.283,1.503c-0.734,0.949-1.484,1.898-2.17,2.897c-1.418,1.966-2.689,4.044-3.803,6.186
				c-2.256,4.279-4.014,8.724-5.258,13.117c-1.291,4.398-2.145,8.725-2.916,12.9c-1.432,8.379-2.488,16.293-4.428,23.793
				c-1.863,7.405-4.578,14.04-8.594,19.67c-3.926,5.625-9.006,9.998-14.354,12.215c-5.346,2.318-10.756,2.279-15.551,1.107
				c-2.416-0.574-4.775-1.531-7.092-2.623c-1.162-0.561-2.305-1.16-3.463-1.803c-0.582-0.334-1.146-0.627-1.73-1.006l-0.863-0.508
				c0,0-3.031-2.289-3.199-2.568c-0.299-0.357-0.594-0.693-0.881-1.002c-0.223-0.365-0.439-0.676-0.662-0.957
				c-0.74-1.26-0.957-2.271-0.994-3.186c-0.051-0.898,0.021-1.727,0.059-2.842c0.041-1.404,0.082-2.809,0.123-4.205
				c0.141-3.451,0.508-8.18,1.539-13.477c1.045-5.309,2.471-11.115,4.402-17.008c3.805-11.821,9.273-23.79,14.982-34.959
				c5.758-11.188,12.162-21.534,18.27-30.831c3.742-5.604,7.451-10.791,11.018-15.548C87.935,71.293,61.503,99.36,43.95,132.818
				c4.836-9.209,10.34-18.016,16.457-26.346c-6.215,20.033-12.283,48.727-5.912,69.011c2.521,8.012,4.043,11.768,9.307,15.992
				c14.797,11.885,40.498,12.152,56.699,2.617c4.949-2.906,8.98-7.047,10.475-9.012c14.537-19.191,18.498-47.84,31.176-64.792
				c-0.002,0.012-0.006,0.021-0.014,0.031c0.797-1.729,1.637-3.336,2.541-4.791c0.717-1.141,1.457-2.217,2.234-3.242
				c0.377-0.521,0.799-1.004,1.205-1.5l0.502-0.59l0.238-0.289c0.061-0.084,0.283-0.311,0.42-0.457
				c2.012-2.09,3.992-4.082,6.014-5.667c3.984-3.303,7.928-5.532,11.74-6.406c3.781-0.901,7.533-0.641,10.955,0.639
				c3.404,1.263,6.283,3.64,7.965,5.96c0.445,0.579,0.75,1.152,1.035,1.693c0.098,0.182,0.09,0.16,0.137,0.205
				c0.045,0.035,0.096,0.066,0.16,0.107c0.057,0.242,0.117,0.604,0.182,0.896l0.088,0.467l0.023,0.113
				c-0.01-0.178,0.057,0.557-0.016-0.367l0.031,0.162c0.275,1.727,0.408,3.471,0.367,5.172c-0.1,3.408-0.969,6.563-2.104,9.215
				c-2.342,5.361-5.941,8.258-8.615,9.482c-1.32,0.647-2.594,0.946-3.17,1.102c-0.873,0.156-1.563,0.182-1.516,0.191
				c-2.445-0.135-4.529,1.732-4.666,4.172c-0.135,2.441,1.734,4.529,4.174,4.664c0.047-0.006,0.441,0.133,1.689,0.332
				c1.539,0.178,3.439,0.309,6.107-0.023c2.617-0.354,5.85-1.277,9.189-3.16c3.342-1.877,6.736-4.723,9.709-8.528
				c2.98-3.801,5.445-8.613,6.98-14.299c0.75-2.848,1.244-5.922,1.322-9.176C227.044,105.577,227.028,104.75,227.011,103.919z"/>
			<path d="M159.829,126.159c-0.043,0.115-0.074,0.232-0.119,0.344C159.755,126.392,159.786,126.274,159.829,126.159z"/>
			<path d="M40.44,139.826c1.039-2.174,2.117-4.328,3.227-6.457C42.558,135.498,41.479,137.652,40.44,139.826z"/>
			<path d="M31.069,163.012c-0.652,1.949-1.279,3.912-1.875,5.889C29.79,166.926,30.417,164.961,31.069,163.012z"/>
			<path d="M40.212,140.3c-3.291,6.947-6.207,14.1-8.719,21.444C34.007,154.4,36.915,147.246,40.212,140.3z"/>
			<path d="M28.679,170.635c-0.564,1.918-1.098,3.846-1.6,5.787C27.581,174.48,28.114,172.551,28.679,170.635z"/>
		</g>
		<g>
			<path fill="#6D6E71" d="M264.442,385.662c-0.279-5.688-3.424-10.164-7.033-9.984c-0.061,0.002-0.119,0.016-0.18,0.02
				c-0.234-0.021-0.465-0.031-0.707-0.02c-1.609,0.074-3.037,1.01-4.125,2.508c-3.074,1.336-5.182,5.633-4.918,10.621
				c0.313,5.926,3.824,10.574,7.859,10.387c0.107-0.006,0.213-0.027,0.314-0.039c0.273,0.037,0.541,0.053,0.818,0.039
				c2.361-0.105,4.355-2.004,5.488-4.811C263.616,392.449,264.62,389.24,264.442,385.662z"/>
			<path fill="#6D6E71" d="M252.274,404.209c-0.293-0.021-0.578-0.008-0.871,0.023c-0.059-0.004-0.117-0.02-0.176-0.023
				c-2.436-0.174-4.723,1.469-6.295,4.139c-2.875,1.721-5.086,5.68-5.455,10.42c-0.504,6.561,2.699,12.119,7.162,12.414
				c0.381,0.027,0.754,0,1.127-0.047c0.119,0.016,0.229,0.041,0.34,0.047c3.271,0.236,6.287-2.666,7.758-6.961
				c1.521-1.98,2.588-4.838,2.824-8.076C259.136,409.844,256.272,404.494,252.274,404.209z"/>
			<path fill="#6D6E71" d="M271.026,378.125c-1.396,2.033-2.197,4.93-2.029,8.119c0.311,5.922,3.826,10.572,7.857,10.385
				c0.018-0.002,0.037-0.004,0.061-0.008c0.08,0,0.168,0.014,0.248,0.008c3.711-0.17,6.514-4.738,6.479-10.34
				c0.006-0.258,0.016-0.514,0.016-0.777c0.074-0.746,0.102-1.521,0.061-2.313c-0.285-5.689-3.43-10.164-7.041-9.988
				c-0.02,0.002-0.031,0.006-0.049,0.008c-0.072,0-0.141-0.01-0.215-0.008C274.062,373.322,272.093,375.27,271.026,378.125z"/>
			<path fill="#6D6E71" d="M282.624,416.426c0-0.234-0.01-0.467-0.02-0.697c0.021-0.602,0.02-1.191-0.018-1.764
				c0.385-6.229-2.453-11.49-6.418-11.773c-0.068-0.006-0.133,0.002-0.201,0.002l-0.008-0.002c-3.605-0.258-6.906,3.459-7.988,8.617
				c-0.822,1.703-1.377,3.697-1.545,5.859c-0.508,6.563,2.695,12.121,7.158,12.418c0.113,0.008,0.223-0.002,0.338-0.002l0.014,0.002
				c4.287,0.307,8.146-4.77,8.641-11.334c0.027-0.385,0.047-0.768,0.047-1.148C282.624,416.545,282.624,416.486,282.624,416.426z"/>
			<path fill="#6D6E71" d="M270.505,366.846c0.533,0.027,1.063-0.008,1.568-0.184c1.408-0.482,2.383-1.73,2.906-3.363
				c1.281-2.006,1.494-5.299,0.309-8.629c-1.494-4.178-4.65-6.939-7.422-6.707c-0.518-0.023-1.025,0.01-1.516,0.178
				c-0.564,0.195-1.031,0.539-1.455,0.953c-0.021,0.01-0.045,0.008-0.066,0.014c-3.299,1.09-4.461,5.912-2.604,10.76
				C263.892,364.215,267.413,367.084,270.505,366.846z"/>
			<path fill="#6D6E71" d="M252.829,370.988c0.682,0.096,1.357,0.082,1.996-0.137c0.938-0.326,1.68-1.012,2.238-1.902
				c2.805-1.172,3.781-5.686,2.156-10.25c-1.529-4.279-4.795-7.053-7.611-6.674c-0.627-0.074-1.254-0.063-1.844,0.143
				c-0.545,0.188-1.002,0.527-1.422,0.922c-0.496-0.004-0.982,0.049-1.447,0.205c-3.303,1.094-4.461,5.912-2.607,10.762
				C245.999,368.531,249.679,371.422,252.829,370.988z"/>
			<path fill="#6D6E71" d="M254.47,341.17c1.029,0.113,2.012-0.016,2.844-0.508c0.063-0.039,0.104-0.098,0.168-0.139
				c0.611-0.045,1.207-0.184,1.729-0.5c2.678-1.625,2.758-6.371,0.188-10.604c-2.119-3.469-5.35-5.471-7.924-5.191
				c-0.324-0.037-0.635-0.033-0.936-0.014c-0.219-0.02-0.428-0.023-0.637-0.02c-0.367-0.025-0.719,0-1.066,0.053
				c-1.1-0.139-2.15-0.01-3.035,0.49c-2.988,1.695-3.074,6.635-0.209,11.035C247.962,339.395,251.587,341.477,254.47,341.17z"/>
		</g>
		<g>
			<path fill="#6D6E71" d="M283.747,382.996c0.27,5.541-2.35,10.178-5.855,10.342c-3.512,0.172-6.578-4.176-6.85-9.719
				c-0.273-5.537,2.352-10.174,5.857-10.342C280.415,373.102,283.474,377.461,283.747,382.996z"/>
			<path fill="#6D6E71" d="M264.991,385.395c0.275,5.543-2.352,10.178-5.855,10.342c-3.514,0.174-6.578-4.176-6.85-9.721
				c-0.268-5.535,2.357-10.172,5.857-10.34C261.659,375.502,264.716,379.857,264.991,385.395z"/>
			<path fill="#6D6E71" d="M282.583,413.098c-0.445,6.141-3.951,10.893-7.84,10.605c-3.887-0.277-6.682-5.479-6.236-11.617
				c0.439-6.137,3.951-10.889,7.836-10.605C280.233,401.758,283.017,406.967,282.583,413.098z"/>
			<path fill="#6D6E71" d="M259.392,415.061c-0.447,6.139-3.951,10.893-7.838,10.604c-3.893-0.277-6.682-5.477-6.238-11.617
				c0.443-6.135,3.951-10.889,7.832-10.605C257.04,403.719,259.823,408.928,259.392,415.061z"/>
			<path fill="#6D6E71" d="M275.548,355.232c1.615,4.539,0.602,9.049-2.271,10.068c-2.875,1.027-6.514-1.82-8.137-6.355
				c-1.613-4.539-0.607-9.049,2.27-10.07C270.286,347.844,273.927,350.697,275.548,355.232z"/>
			<path fill="#6D6E71" d="M259.911,359.148c1.617,4.539,0.6,9.051-2.271,10.072c-2.875,1.027-6.518-1.82-8.139-6.357
				c-1.615-4.537-0.604-9.049,2.271-10.068C254.646,351.764,258.284,354.615,259.911,359.148z"/>
			<path fill="#6D6E71" d="M260.079,330.654c2.504,4.119,2.426,8.74-0.184,10.32c-2.611,1.588-6.748-0.459-9.258-4.574
				c-2.498-4.115-2.422-8.738,0.186-10.324C253.435,324.49,257.571,326.543,260.079,330.654z"/>
		</g>
		<path d="M227.097,1.646C101.673,1.646-0.001,103.32-0.001,228.742c0,125.42,101.674,227.094,227.098,227.094
			c125.416,0,227.094-101.674,227.094-227.094C454.19,103.32,352.513,1.646,227.097,1.646z M227.097,435.479
			c-114.184,0-206.74-92.559-206.74-206.736c0-114.179,92.557-206.738,206.74-206.738c114.176,0,206.738,92.56,206.738,206.738
			C433.835,342.92,341.272,435.479,227.097,435.479z"/>
	</g>
</g>
<g id="Layer_4">
</g>
</svg>
