<?xml version="1.0" encoding="utf-8"?>
<!-- Generator: Adobe Illustrator 16.0.0, SVG Export Plug-In . SVG Version: 6.00 Build 0)  -->
<!DOCTYPE svg PUBLIC "-//W3C//DTD SVG 1.1//EN" "http://www.w3.org/Graphics/SVG/1.1/DTD/svg11.dtd">
<svg version="1.1" xmlns="http://www.w3.org/2000/svg" xmlns:xlink="http://www.w3.org/1999/xlink" x="0px" y="0px"
	 width="591.059px" height="140.47px" viewBox="0 0 591.059 140.47" enable-background="new 0 0 591.059 140.47"
	 xml:space="preserve">
<g id="Extras" display="none">
</g>
<g id="Fonts">
</g>
<g id="Logos">
	<g>
		<path d="M48.103,115.469c-10.596,0-19.23-3.354-25.663-9.969c-6.429-6.597-9.686-16.382-9.686-29.081
			c0-13.051,3.257-23.013,9.686-29.612c6.433-6.614,15.066-9.968,25.663-9.968c10.802,0,19.544,3.354,25.98,9.969
			c6.426,6.602,9.684,16.564,9.684,29.611c0,12.696-3.258,22.48-9.684,29.082C67.646,112.115,58.904,115.469,48.103,115.469z
			 M48.103,54.216c-3.602,0-6.367,1.492-8.462,4.562c-2.175,3.189-3.278,8.857-3.278,16.846c0,7.633,1.1,13.075,3.268,16.174
			c2.094,2.989,4.865,4.442,8.473,4.442c3.818,0,6.691-1.454,8.782-4.442c2.173-3.103,3.273-8.544,3.273-16.174
			c0-7.986-1.105-13.654-3.282-16.846C54.783,55.708,51.914,54.216,48.103,54.216z"/>
		<path d="M48.103,38.234c10.457,0,18.787,3.183,24.98,9.547c6.195,6.364,9.289,15.911,9.289,28.639
			c0,12.376-3.094,21.745-9.289,28.108c-6.193,6.363-14.523,9.547-24.98,9.547c-10.25,0-18.475-3.184-24.662-9.547
			c-6.2-6.363-9.292-15.732-9.292-28.108c0-12.728,3.092-22.274,9.292-28.639C29.628,41.417,37.853,38.234,48.103,38.234z
			 M48.103,52.821c-4.061,0-7.262,1.721-9.614,5.17c-2.35,3.446-3.519,9.327-3.519,17.632c0,7.957,1.169,13.615,3.519,16.973
			c2.353,3.36,5.554,5.038,9.614,5.038c4.269,0,7.574-1.678,9.925-5.038c2.351-3.358,3.524-9.016,3.524-16.973
			c0-8.306-1.174-14.187-3.524-17.632C55.677,54.542,52.371,52.821,48.103,52.821z"/>
		<path d="M130.096,115.469c-11.246,0-20.155-3.451-26.483-10.257c-6.304-6.767-9.5-16.455-9.5-28.792
			c0-13.081,3.598-23.059,10.694-29.66c7.062-6.582,17.079-9.92,29.772-9.92c8.701,0,15.902,1.292,21.404,3.841
			c0.583,0.269,0.906,0.901,0.784,1.531l-2.883,14.852c-0.083,0.436-0.37,0.805-0.771,0.995c-0.19,0.09-0.393,0.134-0.598,0.134
			c-0.229,0-0.456-0.056-0.662-0.167c-4.684-2.527-9.849-3.809-15.354-3.809c-6.565,0-11.261,1.738-13.959,5.167
			c-2.778,3.53-4.186,8.459-4.186,14.651c0,5.902,1.334,11.103,3.965,15.456c2.523,4.185,7.057,6.218,13.857,6.218
			c2.879,0,6.062-0.39,9.461-1.157c3.34-0.754,6.246-1.975,8.644-3.631c0.236-0.164,0.513-0.248,0.792-0.248
			c0.172,0,0.344,0.032,0.51,0.096c0.432,0.169,0.752,0.543,0.852,0.997l2.885,12.992c0.105,0.479-0.048,0.978-0.404,1.315
			c-3.135,2.963-7.355,5.3-12.548,6.946C141.233,114.645,135.759,115.469,130.096,115.469z"/>
		<path d="M152.517,56.798c-4.914-2.653-10.249-3.977-16.016-3.977c-7.047,0-12.066,1.899-15.055,5.7
			c-2.992,3.803-4.483,8.974-4.483,15.513c0,6.19,1.388,11.58,4.165,16.177c2.773,4.598,7.789,6.891,15.051,6.891
			c2.992,0,6.25-0.396,9.768-1.191c3.527-0.796,6.57-2.076,9.129-3.845l2.883,12.992c-2.992,2.829-6.992,5.039-12.012,6.63
			c-5.019,1.59-10.299,2.386-15.851,2.386c-10.89,0-19.378-3.27-25.462-9.813c-6.091-6.538-9.127-15.818-9.127-27.843
			c0-12.728,3.408-22.274,10.249-28.639c6.828-6.364,16.435-9.547,28.823-9.547c8.539,0,15.481,1.24,20.82,3.712L152.517,56.798z"/>
		<path d="M206.321,114.828c-8.861,0-15.693-2.112-20.31-6.278c-4.661-4.199-7.026-10.787-7.026-19.58V56.957h-13.02
			c-0.77,0-1.393-0.625-1.393-1.395V41.094c0-0.77,0.623-1.395,1.393-1.395h13.02V15.316c0-0.771,0.625-1.395,1.395-1.395h22.1
			c0.77,0,1.393,0.624,1.393,1.395V39.7h19.107c0.77,0,1.393,0.625,1.393,1.395v14.468c0,0.77-0.623,1.395-1.393,1.395h-19.107
			v29.381c0,3.563,0.734,5.936,2.182,7.053c1.554,1.204,4.017,1.813,7.317,1.813c1.616,0,3.245-0.167,4.841-0.497
			c1.53-0.312,2.865-0.858,3.975-1.623c0.237-0.164,0.514-0.248,0.793-0.248c0.178,0,0.357,0.034,0.529,0.104
			c0.434,0.178,0.752,0.566,0.841,1.028l2.563,13.416c0.1,0.522-0.105,1.056-0.531,1.376c-2.668,2.01-5.49,3.539-8.39,4.543
			C215.068,114.315,211.143,114.828,206.321,114.828z"/>
		<path d="M202.479,15.316v25.778h20.5v14.468h-20.5v30.775c0,4.038,0.906,6.755,2.722,8.157c1.813,1.405,4.535,2.104,8.17,2.104
			c1.711,0,3.415-0.173,5.124-0.526c1.709-0.349,3.207-0.96,4.484-1.842l2.563,13.416c-2.563,1.932-5.232,3.378-8.008,4.34
			c-2.778,0.961-6.515,1.446-11.214,1.446c-8.539,0-15.002-1.972-19.375-5.919c-4.382-3.946-6.566-10.127-6.566-18.545V55.562
			h-14.414V41.094h14.414V15.316H202.479z"/>
		<path d="M260.774,114.673c-7.146,0-13.217-2.074-18.039-6.165c-4.896-4.143-7.379-9.765-7.379-16.708
			c0-6.605,2.33-11.833,6.925-15.537c4.45-3.593,10.289-5.88,17.354-6.796l16.719-2.225v-3.551c0-2.969-0.943-4.854-2.883-5.766
			c-2.252-1.055-4.803-1.59-7.574-1.59c-3.488,0-7.075,0.517-10.666,1.536c-3.623,1.028-6.926,2.33-9.816,3.868
			c-0.205,0.109-0.43,0.164-0.656,0.164c-0.197,0-0.396-0.042-0.582-0.126c-0.395-0.183-0.682-0.538-0.778-0.962l-3.524-15.645
			c-0.146-0.654,0.191-1.32,0.807-1.587c9.534-4.123,19.204-6.214,28.741-6.214c3.259,0,6.673,0.273,10.145,0.813
			c3.551,0.551,6.825,1.628,9.735,3.201c2.954,1.603,5.38,3.755,7.212,6.397c1.864,2.711,2.81,6.099,2.81,10.075V91.27
			c0,1.803,0.443,3.022,1.318,3.623c1.051,0.728,2.258,1.08,3.693,1.08c0.853,0,1.697-0.212,2.584-0.648
			c0.194-0.097,0.405-0.145,0.617-0.145c0.283,0,0.561,0.085,0.801,0.253c0.418,0.292,0.641,0.79,0.586,1.296l-1.602,14.317
			c-0.058,0.506-0.385,0.941-0.854,1.135c-3.153,1.302-6.674,1.962-10.459,1.962c-6.734,0-11.807-1.845-15.101-5.488
			c-4.506,2.233-8.232,3.792-11.091,4.635C266.71,114.208,263.667,114.673,260.774,114.673z M267.713,81.775
			c-2.78,0.332-4.891,1.176-6.5,2.587c-1.511,1.326-2.247,3.239-2.247,5.848c0,4.72,2.335,6.825,7.572,6.825
			c1.552,0,3.075-0.244,4.525-0.725c1.397-0.463,3.175-1.205,5.291-2.208V80.435L267.713,81.775z"/>
		<path d="M241.235,44.864c9.396-4.063,18.787-6.1,28.187-6.1c3.202,0,6.513,0.266,9.933,0.797c3.408,0.529,6.511,1.55,9.283,3.049
			c2.773,1.505,5.016,3.492,6.732,5.966c1.703,2.479,2.559,5.568,2.559,9.28V91.27c0,2.3,0.641,3.891,1.922,4.772
			c1.282,0.888,2.776,1.325,4.484,1.325c1.064,0,2.132-0.265,3.201-0.793l-1.601,14.317c-2.993,1.235-6.299,1.857-9.927,1.857
			c-6.839,0-11.748-1.943-14.736-5.834c-4.91,2.478-8.863,4.157-11.851,5.04c-2.993,0.883-5.874,1.325-8.647,1.325
			c-6.836,0-12.548-1.943-17.139-5.834c-4.592-3.886-6.885-9.102-6.885-15.644c0-6.187,2.134-11.007,6.406-14.452
			c4.271-3.449,9.817-5.611,16.658-6.498l17.933-2.387v-4.772c0-3.535-1.229-5.875-3.683-7.028c-2.453-1.148-5.18-1.722-8.168-1.722
			c-3.633,0-7.313,0.529-11.047,1.589c-3.742,1.062-7.104,2.388-10.092,3.979L241.235,44.864z M267.499,80.397
			c-2.993,0.356-5.39,1.325-7.205,2.918c-1.814,1.59-2.724,3.891-2.724,6.896c0,5.48,2.99,8.22,8.968,8.22
			c1.705,0,3.365-0.266,4.965-0.796c1.604-0.533,3.686-1.412,6.245-2.653V78.807L267.499,80.397z"/>
		<path d="M350.78,114.828c-8.863,0-15.697-2.112-20.314-6.278c-4.66-4.2-7.021-10.788-7.021-19.58V56.957h-13.021
			c-0.771,0-1.396-0.625-1.396-1.395V41.094c0-0.77,0.624-1.395,1.396-1.395h13.021V15.316c0-0.771,0.625-1.395,1.395-1.395h22.098
			c0.771,0,1.395,0.624,1.395,1.395V39.7h19.104c0.771,0,1.396,0.625,1.396,1.395v14.468c0,0.77-0.625,1.395-1.396,1.395h-19.104
			v29.381c0,3.563,0.734,5.936,2.18,7.054c1.554,1.203,4.016,1.813,7.316,1.813c1.614,0,3.246-0.167,4.846-0.497
			c1.524-0.312,2.859-0.858,3.971-1.624c0.236-0.163,0.512-0.247,0.792-0.247c0.179,0,0.358,0.034,0.528,0.104
			c0.438,0.179,0.752,0.566,0.842,1.028l2.564,13.416c0.1,0.522-0.105,1.056-0.531,1.376c-2.666,2.008-5.488,3.537-8.388,4.543
			C359.527,114.315,355.602,114.828,350.78,114.828z"/>
		<path d="M346.937,15.316v25.778h20.499v14.468h-20.499v30.775c0,4.038,0.907,6.755,2.723,8.157
			c1.813,1.405,4.534,2.104,8.168,2.104c1.711,0,3.416-0.173,5.125-0.526c1.711-0.349,3.207-0.96,4.483-1.842l2.565,13.416
			c-2.565,1.932-5.233,3.378-8.007,4.34c-2.778,0.961-6.519,1.446-11.214,1.446c-8.541,0-15.006-1.972-19.38-5.919
			c-4.377-3.946-6.562-10.127-6.562-18.545V55.562h-14.416V41.094h14.416V15.316H346.937z"/>
		<path d="M401.39,114.143c-5.906,0-10.547-1.605-13.788-4.772c-3.254-3.172-4.904-8.37-4.904-15.448V40.621
			c0-0.77,0.624-1.395,1.395-1.395h22.098c0.771,0,1.395,0.625,1.395,1.395v47.997c0,3.084,0.61,4.461,1.122,5.073
			c0.666,0.802,2.123,1.224,4.213,1.224c3.646,0,8.234-1.42,13.658-4.222V40.621c0-0.77,0.623-1.395,1.393-1.395h21.783
			c0.771,0,1.395,0.625,1.395,1.395v70.802c0,0.77-0.624,1.395-1.395,1.395H427.97c-0.77,0-1.393-0.625-1.393-1.395v-4.779
			c-3.669,1.989-7.449,3.677-11.271,5.031C410.696,113.312,406.013,114.143,401.39,114.143z"/>
		<path d="M406.189,40.621v47.997c0,2.831,0.486,4.819,1.446,5.967c0.959,1.152,2.721,1.724,5.283,1.724
			c4.051,0,9.073-1.59,15.051-4.773V40.621h21.783v70.802H427.97v-7.161c-4.269,2.478-8.643,4.508-13.13,6.098
			c-4.483,1.593-8.966,2.388-13.45,2.388c-5.558,0-9.827-1.458-12.814-4.375c-2.992-2.917-4.483-7.732-4.483-14.451V40.621H406.189z
			"/>
		<path d="M554.808,112.818c-0.771,0-1.396-0.625-1.396-1.395V62.365c0-5.58-2.679-6.295-5.012-6.295
			c-3.454,0-8.155,1.428-13.979,4.249v51.104c0,0.77-0.624,1.395-1.395,1.395h-21.781c-0.77,0-1.393-0.625-1.393-1.395V62.365
			c0-5.58-2.85-6.295-5.332-6.295c-3.641,0-8.232,1.42-13.66,4.223v51.13c0,0.77-0.623,1.395-1.395,1.395h-22.099
			c-0.771,0-1.395-0.625-1.395-1.395V40.621c0-0.77,0.624-1.395,1.395-1.395h22.099c0.771,0,1.395,0.625,1.395,1.395v4.731
			c3.525-1.974,7.258-3.647,11.125-4.986c4.707-1.634,9.334-2.462,13.749-2.462c8.069,0,13.665,3.016,16.656,8.968
			c3.898-2.18,8.077-4.179,12.446-5.951c4.949-2.002,9.921-3.017,14.777-3.017c5.9,0,10.537,1.605,13.783,4.77
			c3.256,3.176,4.907,8.375,4.907,15.45v53.3c0,0.77-0.624,1.395-1.395,1.395H554.808z"/>
		<path d="M489.466,40.621v7.16c4.057-2.472,8.383-4.507,12.977-6.098c4.588-1.593,9.018-2.386,13.292-2.386
			c8.112,0,13.45,3.179,16.016,9.543c4.263-2.472,8.805-4.68,13.611-6.628c4.802-1.943,9.551-2.916,14.253-2.916
			c5.547,0,9.816,1.456,12.809,4.374c2.992,2.917,4.487,7.736,4.487,14.452v53.3h-22.103V62.365c0-5.125-2.135-7.689-6.407-7.689
			c-3.843,0-8.966,1.591-15.374,4.773v51.974h-21.781V62.365c0-5.125-2.24-7.689-6.725-7.689c-4.055,0-9.074,1.591-15.055,4.773
			v51.974h-22.099V40.621H489.466z"/>
	</g>
</g>
<g id="Layer_4">
</g>
</svg>
