<?xml version="1.0" encoding="utf-8"?>
<!-- Generator: Adobe Illustrator 16.0.0, SVG Export Plug-In . SVG Version: 6.00 Build 0)  -->
<!DOCTYPE svg PUBLIC "-//W3C//DTD SVG 1.1//EN" "http://www.w3.org/Graphics/SVG/1.1/DTD/svg11.dtd">
<svg version="1.1" xmlns="http://www.w3.org/2000/svg" xmlns:xlink="http://www.w3.org/1999/xlink" x="0px" y="0px"
	 width="479.976px" height="563.088px" viewBox="0 0 479.976 563.088" enable-background="new 0 0 479.976 563.088"
	 xml:space="preserve">
<g id="Extras" display="none">
</g>
<g id="Fonts">
</g>
<g id="Logos">
	<g>
		<path fill="#808285" d="M408.83,161.908c0.035,0.103,0.068,0.191,0.104,0.298c2.325,6.847,5.427,16.992,7.72,29.253
			c1.137,6.118,2.084,12.774,2.471,19.688c0.393,6.907,0.323,14.107-0.638,21.144c-0.479,3.513-1.13,7.02-2.112,10.356
			c-0.955,3.36-2.119,6.649-3.658,9.682l-0.549,1.16l-0.49,0.903l-0.473,0.936l-0.229,0.482c-0.123,0.196-0.324,0.462-0.488,0.688
			l-2.012,2.845l-0.133,0.177c0.777-0.869,0.189-0.206,0.349-0.383l-0.052,0.057l-0.196,0.242l-0.402,0.483l-0.792,0.977
			l-1.59,2.005l-1.797,1.747c-0.621,0.563-1.155,1.277-1.836,1.752l-2,1.558l-1.003,0.806c-0.349,0.235-0.723,0.436-1.086,0.662
			l-2.188,1.358c-0.717,0.5-1.55,0.751-2.321,1.157c-0.789,0.35-1.559,0.805-2.382,1.102l-2.503,0.869
			c-0.42,0.145-0.833,0.313-1.266,0.443l-1.297,0.306l-2.625,0.645l-2.682,0.382c-1.799,0.359-3.611,0.276-5.44,0.428
			c-0.909,0.013-1.81-0.067-2.72-0.088c-0.916-0.02-1.832-0.05-2.711-0.202l-2.685-0.333l-2.573-0.569
			c-0.895-0.15-1.686-0.43-2.5-0.688c-0.79-0.275-1.682-0.464-2.38-0.821c-0.737-0.316-1.476-0.626-2.206-0.939
			c-0.463-0.259-0.957-0.48-1.49-0.684l-0.209-0.075c-0.084-0.059-0.199-0.166-0.304-0.244l-0.61-0.497
			c14.84,24.887,51.666,12.828,70.381-3.871c6.972-7.129,11.517-14.61,15.27-22.211c-0.289-1.903-0.567-3.806-0.908-5.711
			C434.502,210.699,423.797,184.635,408.83,161.908z"/>
		<path fill="#231F20" d="M425.229,267.105c-18.715,16.699-55.541,28.758-70.381,3.871l-0.007-0.013l-1.249-1.021l-0.311-0.251
			l-0.151-0.129l-0.081-0.063c0.909,0.976,0.229,0.238,0.418,0.446l-0.412-0.416l-0.836-0.825c-2.162-2.239-3.833-4.86-4.876-7.608
			c-2.14-5.51-1.645-11.338,1.188-15.308c0.354-0.501,0.785-0.938,1.153-1.429c0.387-0.47,0.753-0.697,1.106-1.1l0.266-0.284
			c0.125-0.101,0.342-0.218,0.505-0.326l1.042-0.662l0.524-0.328l0.259-0.161l0.123-0.083l0.066-0.038
			c-0.159,0.074-0.244,0.117-0.285,0.137c0.033-0.017,0.064-0.034,0.021-0.013l0.861-0.417c2.285-1.161,4.545-1.851,6.676-1.894
			c4.268-0.167,8.096,1.792,10.693,4.188c2.658,2.335,4.338,4.895,5.304,6.517c0.495,0.77,0.87,1.588,1.122,2.088
			c0.252,0.509,0.374,0.769,0.374,0.769c0.591,1.186,1.976,1.785,3.261,1.348c1.398-0.473,2.148-1.992,1.671-3.392
			c0,0-0.09-0.279-0.274-0.813c-0.19-0.543-0.411-1.297-0.929-2.468c-0.976-2.271-2.458-5.413-5.505-8.962
			c-1.518-1.751-3.438-3.59-5.988-5.114c-2.497-1.56-5.64-2.833-9.2-3.261c-3.56-0.477-7.392,0.061-11.016,1.24
			c-0.46,0.146-0.927,0.293-1.39,0.441c-0.481,0.216-0.965,0.431-1.454,0.647l-1.132,0.497c-0.202,0.091-0.365,0.147-0.589,0.27
			l-0.749,0.447c-0.979,0.616-2.089,1.257-2.95,1.956c-0.847,0.714-1.746,1.41-2.56,2.208c-3.275,3.212-5.771,7.555-7.036,12.312
			c-1.281,4.76-1.393,9.897-0.447,14.917c0.96,5.022,2.975,9.941,5.869,14.429l1.132,1.663l0.578,0.831
			c0.229,0.257-0.424-0.423,0.541,0.597l0.063,0.077l0.129,0.153l0.257,0.304l1.046,1.22l0.523,0.617
			c0.094,0.104,0.162,0.196,0.273,0.311l0.443,0.406c1.189,1.08,2.432,2.147,3.71,3.18c1.153,0.836,2.272,1.569,3.439,2.351
			c1.151,0.833,2.346,1.379,3.54,2.052c1.199,0.647,2.416,1.312,3.662,1.798c1.248,0.525,2.5,1.048,3.75,1.577
			c1.289,0.418,2.573,0.836,3.863,1.251c1.297,0.454,2.617,0.768,3.947,1.061c1.328,0.293,2.669,0.634,4.02,0.871
			c2.721,0.345,5.469,0.878,8.266,0.913c1.4,0.062,2.803,0.136,4.213,0.161l4.262-0.197l2.145-0.122
			c0.707-0.073,1.424-0.193,2.136-0.289l4.3-0.655c1.43-0.244,2.832-0.673,4.259-1.018c1.411-0.404,2.88-0.671,4.255-1.216
			l4.166-1.563c0.695-0.272,1.398-0.524,2.081-0.82l2.001-1l4.002-2.057c1.346-0.67,2.525-1.582,3.799-2.379l3.74-2.515
			c1.153-0.929,2.287-1.891,3.426-2.85l1.709-1.449l0.852-0.73l0.428-0.369l0.104-0.094c0.209-0.226-0.322,0.388,0.499-0.537
			l0.156-0.152l2.489-2.442c0.216-0.215,0.4-0.379,0.643-0.637l0.791-0.917l1.584-1.851l1.563-1.871l1.312-1.747
			c0.261-0.343,0.493-0.693,0.75-1.039c-0.224-8.417-0.989-16.912-2.271-25.439C436.745,252.495,432.2,259.976,425.229,267.105z"/>
		<g>
			<path fill="#6D6E71" d="M420.139,212.472c0.375,0.084,0.758,0.118,1.142,0.096c0.435,0.129,0.879,0.197,1.329,0.196
				c0.188,0.04,0.382,0.068,0.576,0.083c0.491,0.088,0.984,0.101,1.477,0.02c3.62-0.587,5.777-5.705,4.854-11.411
				c-0.946-5.707-4.641-9.859-8.254-9.264c-0.084,0.012-0.16,0.042-0.242,0.061c-0.064,0.007-0.123,0.004-0.178,0.014
				c-0.184,0.031-0.354,0.08-0.527,0.132c-0.131,0.009-0.259,0.009-0.385,0.031c-0.268,0.044-0.523,0.122-0.771,0.212
				c-0.236,0.001-0.469,0.015-0.701,0.053c-0.186,0.029-0.363,0.079-0.532,0.131c-0.123,0.008-0.253,0.008-0.384,0.031
				c-3.418,0.559-5.469,5.401-4.582,10.804C413.797,208.732,416.924,212.5,420.139,212.472z"/>
			<path fill="#6D6E71" d="M417.199,239.76c0.346,0.238,0.709,0.417,1.096,0.538c0.389,0.332,0.816,0.576,1.271,0.746
				c0.264,0.179,0.531,0.351,0.813,0.464c0.477,0.261,0.968,0.459,1.509,0.51c3.246,0.305,6.259-3.614,6.743-8.742
				c0.435-4.72-1.448-8.792-4.287-9.648c-0.305-0.13-0.619-0.196-0.949-0.246c-0.368-0.165-0.755-0.27-1.164-0.308
				c-0.067-0.006-0.134,0.014-0.197,0.011c-0.359-0.183-0.741-0.307-1.143-0.368c-0.357-0.157-0.737-0.26-1.129-0.296
				c-3.07-0.286-5.928,3.421-6.379,8.273C412.977,235.035,414.648,238.804,417.199,239.76z"/>
			<path fill="#6D6E71" d="M379.646,277.775c-0.094-0.435-0.294-0.852-0.565-1.25c-0.046-0.453-0.157-0.9-0.396-1.318
				c-0.439-2.089-3.158-3.847-6.566-4.073c-3.826-0.265-7.063,1.491-7.228,3.912c-0.026,0.402,0.06,0.795,0.198,1.173
				c-0.005,0.444,0.102,0.872,0.293,1.286c-0.004,0.041-0.022,0.074-0.029,0.115c-0.027,0.416,0.061,0.816,0.203,1.211
				c0,0.28,0.03,0.565,0.113,0.84c0.313,2.305,3.234,4.268,6.956,4.528c4.038,0.268,7.462-1.575,7.64-4.149
				c0.031-0.464-0.081-0.913-0.25-1.349C379.936,278.383,379.82,278.074,379.646,277.775z"/>
			<path fill="#6D6E71" d="M440.707,226.329c0,0-0.014,0.003-0.021,0c-0.174-0.042-0.34-0.114-0.52-0.133
				c-0.018,0-0.031,0.001-0.045,0c-0.359-0.149-0.734-0.25-1.121-0.286c-0.146-0.014-0.291,0.025-0.434,0.028
				c-0.455-0.253-0.939-0.446-1.458-0.494c-0.019-0.001-0.03,0.004-0.05,0.004c-0.357-0.155-0.73-0.256-1.121-0.292
				c-3.066-0.287-5.923,3.422-6.376,8.273c-0.42,4.494,1.386,8.358,4.095,9.141c0.447,0.3,0.931,0.507,1.448,0.607
				c0.458,0.377,0.97,0.618,1.511,0.774c0.283,0.189,0.577,0.354,0.883,0.467c0.471,0.251,0.954,0.443,1.48,0.492
				c3.252,0.306,6.266-3.613,6.752-8.742C446.199,231.042,443.955,226.628,440.707,226.329z"/>
			<path fill="#6D6E71" d="M419.524,259.436c1.744-3.831,1.331-7.794-0.837-9.294c-0.255-0.239-0.542-0.432-0.857-0.582
				c-0.268-0.254-0.57-0.468-0.906-0.621c-0.096-0.042-0.199-0.05-0.297-0.083c-0.318-0.367-0.672-0.681-1.107-0.88
				c-0.264-0.244-0.547-0.456-0.881-0.604c-2.463-1.129-5.916,1.121-7.689,5.025c-1.631,3.569-1.282,7.261,0.683,8.733
				c0.278,0.394,0.626,0.709,1.021,0.951c0.264,0.449,0.6,0.814,0.995,1.108c0.184,0.258,0.386,0.492,0.622,0.691
				c0.32,0.353,0.682,0.666,1.113,0.866C413.996,265.944,417.635,263.558,419.524,259.436z"/>
			<path fill="#6D6E71" d="M431.887,256.434c-0.005-0.005-0.005-0.003-0.005-0.003c-0.159-0.105-0.304-0.235-0.477-0.314
				c-0.036-0.016-0.079-0.016-0.118-0.034c-0.275-0.261-0.58-0.489-0.932-0.647c-0.168-0.077-0.347-0.1-0.525-0.146
				c-0.33-0.403-0.707-0.75-1.178-0.964c-0.045-0.018-0.089-0.018-0.135-0.039c-0.269-0.261-0.572-0.488-0.912-0.644
				c-2.472-1.129-5.92,1.122-7.694,5.024c-1.692,3.711-1.253,7.553,0.923,8.893c0.354,0.466,0.764,0.857,1.283,1.095l0,0
				c0.309,0.507,0.725,0.893,1.206,1.194c0.194,0.261,0.417,0.493,0.669,0.692c0.32,0.341,0.667,0.638,1.09,0.832
				c2.609,1.197,6.252-1.188,8.141-5.311C435.098,261.94,434.518,257.625,431.887,256.434z"/>
			<path fill="#6D6E71" d="M408.526,281.838c-0.143-0.212-0.302-0.413-0.487-0.584c-0.018-0.042-0.021-0.086-0.036-0.13
				c-0.238-0.478-0.618-0.855-1.066-1.17c-0.046-0.165-0.076-0.338-0.151-0.499c-0.172-0.343-0.42-0.627-0.707-0.885
				c-0.021-0.046-0.024-0.097-0.045-0.141c-0.777-1.593-2.943-2.228-5.401-1.803c0.979-1.423,1.304-2.944,0.702-4.184
				c-0.146-0.297-0.334-0.558-0.566-0.789c-0.117-0.165-0.221-0.328-0.362-0.466c-0.016-0.017-0.016-0.04-0.022-0.057
				c-0.214-0.432-0.546-0.773-0.932-1.069c-0.041-0.126-0.053-0.26-0.117-0.38c-0.154-0.313-0.373-0.584-0.627-0.824
				c-0.004-0.023-0.01-0.049-0.019-0.071c-1.063-2.182-4.724-2.589-8.17-0.903c-3.452,1.682-5.382,4.818-4.315,7.001
				c0.088,0.163,0.206,0.298,0.313,0.44c0.044,0.184,0.078,0.367,0.166,0.538c0.126,0.268,0.302,0.505,0.498,0.718
				c0.045,0.303,0.131,0.595,0.269,0.871c0.079,0.165,0.199,0.298,0.309,0.442c0.045,0.181,0.081,0.366,0.161,0.539
				c0.041,0.074,0.102,0.129,0.144,0.204c0.032,0.082,0.037,0.17,0.082,0.25c0.84,1.741,3.236,2.407,5.933,1.875
				c-0.824,1.292-1.064,2.653-0.52,3.766c0.104,0.221,0.251,0.411,0.412,0.594c0.05,0.174,0.08,0.355,0.16,0.521
				c0.16,0.329,0.395,0.603,0.661,0.854c0.038,0.332,0.126,0.651,0.274,0.952c0.103,0.221,0.26,0.411,0.416,0.594
				c0.05,0.176,0.076,0.355,0.161,0.518c0.046,0.104,0.132,0.184,0.194,0.282c0.026,0.078,0.033,0.162,0.069,0.233
				c1.124,2.315,4.989,2.738,8.642,0.962c3.635-1.785,5.678-5.093,4.551-7.405C408.953,282.335,408.758,282.071,408.526,281.838z"/>
		</g>
		<g>
			<path fill="#58595B" d="M425.195,201.626c0.879,5.389-1.16,10.218-4.58,10.779c-3.416,0.563-6.902-3.354-7.787-8.746
				c-0.883-5.388,1.16-10.218,4.57-10.776C420.82,192.321,424.309,196.241,425.195,201.626z"/>
			<path fill="#58595B" d="M424.365,231.67c-0.462,4.839-3.306,8.542-6.371,8.253c-3.07-0.288-5.189-4.444-4.741-9.285
				c0.45-4.841,3.301-8.543,6.368-8.258C422.689,222.669,424.808,226.83,424.365,231.67z"/>
			<path fill="#58595B" d="M440.508,234.397c-0.459,4.843-3.307,8.544-6.374,8.254c-3.067-0.287-5.189-4.442-4.741-9.287
				c0.456-4.842,3.301-8.541,6.369-8.256C438.834,225.395,440.953,229.558,440.508,234.397z"/>
			<path fill="#58595B" d="M415.761,256.372c-1.78,3.888-5.216,6.14-7.683,5.012c-2.473-1.127-3.027-5.196-1.244-9.088
				c1.771-3.894,5.211-6.143,7.674-5.016C416.985,248.407,417.531,252.48,415.761,256.372z"/>
			<path fill="#58595B" d="M428.697,262.627c-1.781,3.89-5.221,6.142-7.688,5.011c-2.465-1.125-3.027-5.196-1.244-9.085
				c1.775-3.897,5.219-6.143,7.677-5.016C429.916,254.664,430.469,258.733,428.697,262.627z"/>
			<path fill="#58595B" d="M394.289,275.639c-3.447,1.677-7.092,1.276-8.158-0.905c-1.063-2.176,0.861-5.307,4.307-6.985
				c3.437-1.68,7.091-1.273,8.151,0.899C399.654,270.835,397.725,273.958,394.289,275.639z"/>
			<path fill="#58595B" d="M371.479,279.75c-3.817-0.268-6.783-2.432-6.612-4.854c0.16-2.417,3.391-4.17,7.214-3.907
				c3.82,0.254,6.775,2.43,6.612,4.844C378.523,278.259,375.295,280.003,371.479,279.75z"/>
			<path fill="#58595B" d="M401.623,285.258c-3.447,1.677-7.094,1.278-8.157-0.905c-1.067-2.175,0.858-5.307,4.302-6.983
				c3.441-1.683,7.088-1.276,8.15,0.899C406.981,280.456,405.055,283.581,401.623,285.258z"/>
		</g>
		<path d="M425.229,267.105c-18.715,16.699-55.541,28.758-70.381,3.871l-0.007-0.013l-1.249-1.021l-0.311-0.251l-0.151-0.129
			l-0.081-0.063c0.909,0.976,0.229,0.238,0.418,0.446l-0.412-0.416l-0.836-0.825c-2.162-2.239-3.833-4.86-4.876-7.608
			c-2.14-5.51-1.645-11.338,1.188-15.308c0.354-0.501,0.785-0.938,1.153-1.429c0.387-0.47,0.753-0.697,1.106-1.1l0.266-0.284
			c0.125-0.101,0.342-0.218,0.505-0.326l1.042-0.662l0.524-0.328l0.259-0.161l0.123-0.083l0.066-0.038
			c-0.159,0.074-0.244,0.117-0.285,0.137c0.033-0.017,0.064-0.034,0.021-0.013l0.861-0.417c2.285-1.161,4.545-1.851,6.676-1.894
			c4.268-0.167,8.096,1.792,10.693,4.188c2.658,2.335,4.338,4.895,5.304,6.517c0.495,0.77,0.87,1.588,1.122,2.088
			c0.252,0.509,0.374,0.769,0.374,0.769c0.591,1.186,1.976,1.785,3.261,1.348c1.398-0.473,2.148-1.992,1.671-3.392
			c0,0-0.09-0.279-0.274-0.813c-0.19-0.543-0.411-1.297-0.929-2.468c-0.976-2.271-2.458-5.413-5.505-8.962
			c-1.518-1.751-3.438-3.59-5.988-5.114c-2.497-1.56-5.64-2.833-9.2-3.261c-3.56-0.477-7.392,0.061-11.016,1.24
			c-0.46,0.146-0.927,0.293-1.39,0.441c-0.481,0.216-0.965,0.431-1.454,0.647l-1.132,0.497c-0.202,0.091-0.365,0.147-0.589,0.27
			l-0.749,0.447c-0.979,0.616-2.089,1.257-2.95,1.956c-0.847,0.714-1.746,1.41-2.56,2.208c-3.275,3.212-5.771,7.555-7.036,12.312
			c-1.281,4.76-1.393,9.897-0.447,14.917c0.96,5.022,2.975,9.941,5.869,14.429l1.132,1.663l0.578,0.831
			c0.229,0.257-0.424-0.423,0.541,0.597l0.063,0.077l0.129,0.153l0.257,0.304l1.046,1.22l0.523,0.617
			c0.094,0.104,0.162,0.196,0.273,0.311l0.443,0.406c1.189,1.08,2.432,2.147,3.71,3.18c1.153,0.836,2.272,1.569,3.439,2.351
			c1.151,0.833,2.346,1.379,3.54,2.052c1.199,0.647,2.416,1.312,3.662,1.798c1.248,0.525,2.5,1.048,3.75,1.577
			c1.289,0.418,2.573,0.836,3.863,1.251c1.297,0.454,2.617,0.768,3.947,1.061c1.328,0.293,2.669,0.634,4.02,0.871
			c2.721,0.345,5.469,0.878,8.266,0.913c1.4,0.062,2.803,0.136,4.213,0.161l4.262-0.197l2.145-0.122
			c0.707-0.073,1.424-0.193,2.136-0.289l4.3-0.655c1.43-0.244,2.832-0.673,4.259-1.018c1.411-0.404,2.88-0.671,4.255-1.216
			l4.166-1.563c0.695-0.272,1.398-0.524,2.081-0.82l2.001-1l4.002-2.057c1.346-0.67,2.525-1.582,3.799-2.379l3.74-2.515
			c1.153-0.929,2.287-1.891,3.426-2.85l1.709-1.449l0.852-0.73l0.428-0.369l0.104-0.094c0.209-0.226-0.322,0.388,0.499-0.537
			l0.156-0.152l2.489-2.442c0.216-0.215,0.4-0.379,0.643-0.637l0.791-0.917l1.584-1.851l1.563-1.871l1.312-1.747
			c0.261-0.343,0.493-0.693,0.75-1.039c-0.224-8.417-0.989-16.912-2.271-25.439C436.745,252.495,432.2,259.976,425.229,267.105z"/>
		<path fill="#808285" d="M356.115,338.546c-6.771-15.748-27.257-15.316-42.908-8.917c1.99-0.617,4.105-0.95,6.34-0.956
			c3.08-0.017,6.313,0.61,9.287,1.819c0.741,0.298,1.467,0.635,2.177,1l0.261,0.138l0.066,0.036
			c0.295,0.123-0.332-0.132-0.228-0.084l0.199,0.109l0.81,0.434c0.681,0.339,0.689,0.456,0.943,0.637
			c1.082,0.792,2.406,1.854,3.453,2.976c4.342,4.576,7.07,11.184,7.928,18.348c0.43,3.594,0.503,7.301,0.18,11.047
			c-0.139,1.87-0.388,3.748-0.717,5.625c-0.145,0.93-0.344,1.874-0.526,2.804l-0.614,3.746c-1.621,10.469-3.113,21.408-2.162,34.22
			c0.52,6.377,1.73,13.298,4.295,20.336c2.539,7.022,6.547,14.015,11.411,19.85c0.134,0.15,0.27,0.289,0.401,0.445
			c9.431-8.557,17.957-17.917,25.552-27.917C362.702,400.177,367.925,366.025,356.115,338.546z"/>
		<g>
			<path fill="#231F20" d="M367.111,442.018c0.344-0.359,0.671-0.725,1.016-1.083C367.782,441.293,367.455,441.659,367.111,442.018z
				"/>
			<path fill="#231F20" d="M376.613,431.35c0.564-0.68,1.115-1.367,1.676-2.058C377.729,429.983,377.178,430.67,376.613,431.35z"/>
			<path fill="#231F20" d="M371.475,437.286c0.496-0.545,0.989-1.095,1.473-1.647C372.464,436.191,371.966,436.739,371.475,437.286z
				"/>
			<path fill="#231F20" d="M361.521,447.634c0.387-0.374,0.772-0.747,1.153-1.125C362.293,446.887,361.907,447.26,361.521,447.634z"
				/>
			<path fill="#231F20" d="M315.637,329.049c0.393-0.073,0.788-0.139,1.191-0.188C316.428,328.913,316.029,328.977,315.637,329.049z
				"/>
			<path fill="#231F20" d="M368.914,326.147c-4.158-5.181-9.062-9.911-14.76-13.564c-2.87-1.857-5.727-3.4-9.018-4.761
				c-0.852-0.338-1.924-0.784-2.366-0.894l-0.876-0.276l-0.216-0.07c0.032,0.021-0.669-0.262-0.444-0.166l-0.146-0.042l-0.591-0.178
				c-1.565-0.487-3.141-0.901-4.726-1.228c-6.336-1.313-12.773-1.466-19.005-0.409c-6.227,1.059-12.239,3.411-17.354,6.901
				c-5.132,3.493-9.197,8.099-12.057,12.908c-1.407,2.427-2.527,4.894-3.445,7.337c-0.4,1.228-0.857,2.439-1.156,3.654l-0.481,1.801
				l-0.415,1.928c-0.313,1.399-0.352,2.192-0.516,3.236l-0.049,0.371c0.037-0.16-0.057,0.32-0.057,0.311l-0.016,0.113l-0.021,0.225
				l-0.088,0.892l-0.163,1.774c-0.115,2.383-0.146,4.727,0.1,7.046c0.4,4.619,1.668,9.042,3.512,12.894
				c1.893,3.84,4.349,7.126,7.093,9.664c5.486,5.144,11.676,7.462,16.722,8.221c5.105,0.765,9.132,0.061,11.717-0.648
				c2.852-0.82,3.692-1.393,3.77-1.371c1.58-0.5,2.461-2.197,1.96-3.783c-0.502-1.587-2.194-2.469-3.784-1.965
				c0.059-0.044-1.418,0.396-3.166,0.474c-1.993,0.124-5.002,0.003-8.438-1.285c-3.398-1.259-7.264-3.693-10.025-7.622
				c-2.785-3.881-4.3-9.084-3.631-14.841c0.121-1.432,0.459-2.913,0.821-4.4l0.335-1.123l0.17-0.562l0.039-0.142l0.025-0.071
				c0.015-0.068-0.073,0.354-0.021,0.133l0.114-0.352c0.317-0.89,0.655-2.07,0.944-2.599l0.432-0.998l0.529-1.097
				c0.322-0.748,0.757-1.41,1.12-2.122c0.831-1.349,1.726-2.621,2.714-3.767c2.91-3.347,6.578-5.54,10.785-6.483
				c-0.536,0.123-1.061,0.259-1.578,0.42c15.651-6.4,36.137-6.831,42.908,8.917c11.81,27.479,6.587,61.63,26.147,85.697
				c-0.55,0.725-1.116,1.441-1.677,2.161c4.938-6.327,9.51-12.905,13.66-19.727c-0.844-1.136-1.684-2.604-2.434-4.459
				c-2.366-5.675-3.883-14.239-4.891-23.415l-0.348-3.646c-0.123-1.538-0.244-3.071-0.424-4.615
				c-0.342-3.083-0.816-6.17-1.455-9.259c-1.236-6.171-3.131-12.325-5.712-18.266C376.357,337.088,373.035,331.361,368.914,326.147z
				"/>
			<path fill="#231F20" d="M317.547,328.78c0.658-0.061,1.319-0.101,2-0.106C318.866,328.678,318.205,328.718,317.547,328.78z"/>
		</g>
		<g>
			<path fill="#6D6E71" d="M345.103,373.261c0.935,0.011,1.82-0.37,2.62-0.99c0.14-0.087,0.261-0.219,0.399-0.326
				c0.142-0.087,0.267-0.219,0.405-0.324c0.137-0.088,0.263-0.224,0.396-0.325c2.201-1.394,3.816-4.692,3.94-8.556
				c0.14-5.148-2.425-9.35-5.747-9.372c-2.083-0.027-3.963,1.6-5.118,4.077c-0.097,0.181-0.206,0.344-0.299,0.534
				c-0.1,0.182-0.209,0.342-0.297,0.535c-0.097,0.18-0.211,0.343-0.299,0.535c-0.81,1.488-1.339,3.348-1.402,5.401
				C339.558,369.294,341.969,373.234,345.103,373.261z"/>
			<path fill="#6D6E71" d="M354.696,339.43c0.625-0.343,1.069-0.904,1.374-1.587c0.218-0.256,0.396-0.549,0.541-0.875
				c0.218-0.255,0.395-0.553,0.539-0.876c0.215-0.261,0.396-0.553,0.538-0.877c1.421-1.709,1.356-4.953-0.327-7.957
				c-1.998-3.551-5.494-5.383-7.821-4.096c-0.876,0.481-1.454,1.345-1.732,2.424c-0.163,0.309-0.294,0.653-0.387,1.021
				c-0.163,0.307-0.292,0.652-0.384,1.019c-0.164,0.31-0.295,0.655-0.39,1.023c-0.916,1.699-0.704,4.409,0.707,6.927
				C349.231,338.911,352.516,340.637,354.696,339.43z"/>
			<path fill="#6D6E71" d="M334.435,334.419c-0.091,0.291-0.147,0.599-0.194,0.919c-0.549,1.778-0.226,4.216,1.062,6.506
				c1.985,3.521,5.45,5.341,7.758,4.068c0.751-0.416,1.257-1.128,1.571-1.998c0.14-0.235,0.254-0.497,0.352-0.773
				c0.143-0.236,0.257-0.495,0.356-0.773c0.146-0.236,0.253-0.497,0.354-0.771c1.13-1.895,0.947-5.02-0.684-7.932
				c-2.119-3.739-5.804-5.68-8.257-4.325c-1.101,0.609-1.732,1.796-1.937,3.244c-0.088,0.291-0.145,0.596-0.191,0.92
				C334.539,333.79,334.477,334.102,334.435,334.419z"/>
			<path fill="#6D6E71" d="M348.255,419.221c-0.129-0.132-0.26-0.271-0.396-0.399c-0.13-0.136-0.264-0.274-0.398-0.401
				c-2.113-2.174-4.67-3.196-6.934-2.435c-3.799,1.272-5.314,7.043-3.381,12.884c0.159,0.494,0.35,0.965,0.551,1.426
				c0.076,0.202,0.158,0.393,0.242,0.589c0.078,0.202,0.161,0.396,0.242,0.593c0.076,0.199,0.161,0.396,0.246,0.591
				c2.218,5.684,6.865,9.189,10.721,7.896c4.039-1.348,5.646-7.486,3.592-13.71c-0.912-2.735-2.382-5.034-4.08-6.632
				C348.527,419.487,348.393,419.351,348.255,419.221z"/>
			<path fill="#6D6E71" d="M350.639,394.391c0.301-5.916-2.541-10.821-6.373-10.936c-0.779-0.025-1.538,0.165-2.257,0.513
				c-0.103,0.041-0.206,0.089-0.304,0.136c-0.1,0.042-0.199,0.089-0.297,0.137c-0.102,0.042-0.207,0.09-0.304,0.137
				c-2.769,1.134-4.958,4.947-5.198,9.535c-0.219,4.305,1.34,8.005,3.718,9.527c0.088,0.06,0.183,0.105,0.274,0.161
				c0.091,0.066,0.182,0.11,0.277,0.168c0.086,0.064,0.184,0.105,0.271,0.166c0.818,0.593,1.73,0.943,2.713,0.974
				C346.979,405.028,350.328,400.321,350.639,394.391z"/>
			<path fill="#6D6E71" d="M363.24,382.092c-0.379,0.027-0.752,0.114-1.109,0.238c-0.212,0.036-0.406,0.091-0.61,0.162
				c-0.204,0.039-0.408,0.093-0.604,0.161c-0.209,0.039-0.414,0.096-0.607,0.163c-3.161,0.594-5.465,4.873-5.204,9.881
				c0.249,4.781,2.733,8.545,5.745,9.021c0.199,0.065,0.402,0.106,0.607,0.142c0.205,0.062,0.405,0.106,0.615,0.141
				c0.203,0.06,0.406,0.103,0.611,0.136c0.521,0.166,1.061,0.264,1.609,0.227c3.622-0.243,6.32-4.986,6.028-10.59
				C370.027,386.178,366.866,381.838,363.24,382.092z"/>
			<path fill="#6D6E71" d="M366.111,410.494c-0.218-0.103-0.438-0.188-0.664-0.264c-0.219-0.102-0.441-0.189-0.666-0.265
				c-0.218-0.101-0.445-0.19-0.666-0.264c-1.008-0.475-2.068-0.65-3.112-0.437c-3.727,0.756-5.842,6.035-4.738,11.774
				c0.629,3.241,2.154,5.94,4.031,7.54c0.199,0.197,0.402,0.389,0.607,0.563c0.197,0.204,0.399,0.396,0.607,0.569
				c0.202,0.203,0.401,0.392,0.61,0.568c1.67,1.691,3.682,2.54,5.64,2.14c3.966-0.799,6.21-6.409,5.026-12.525
				C371.871,415.149,369.145,411.498,366.111,410.494z"/>
			<path fill="#6D6E71" d="M363.193,350.44c-1.205,0.151-2.264,0.831-3.105,1.873c-0.27,0.245-0.516,0.512-0.747,0.815
				c-0.187,0.196-0.386,0.376-0.562,0.607c-0.189,0.196-0.391,0.374-0.564,0.606c-1.713,1.727-2.676,4.889-2.285,8.38
				c0.564,4.965,3.619,8.652,6.844,8.238c0.586-0.073,1.113-0.314,1.623-0.629c0.23-0.095,0.448-0.225,0.662-0.357
				c0.209-0.088,0.408-0.2,0.605-0.319c0.289-0.11,0.576-0.246,0.846-0.424c2.768-1.206,4.488-5.363,3.965-10.028
				C369.873,353.925,366.617,349.993,363.193,350.44z"/>
		</g>
		<g>
			<path fill="#58595B" d="M348.301,394.564c-0.225,5.545-3.25,9.925-6.758,9.776c-3.516-0.142-6.178-4.749-5.951-10.297
				c0.223-5.538,3.26-9.919,6.764-9.772C345.869,384.411,348.527,389.026,348.301,394.564z"/>
			<path fill="#58595B" d="M366.341,392.296c0.319,5.246-2.112,9.662-5.429,9.856c-3.33,0.203-6.273-3.885-6.591-9.131
				c-0.32-5.234,2.118-9.654,5.434-9.852C363.08,382.966,366.021,387.059,366.341,392.296z"/>
			<path fill="#58595B" d="M350.534,424.413c1.94,5.841,0.524,11.576-3.177,12.798c-3.696,1.234-8.27-2.5-10.215-8.339
				c-1.943-5.838-0.52-11.572,3.176-12.8C344.014,414.84,348.582,418.583,350.534,424.413z"/>
			<path fill="#58595B" d="M368.867,418.643c1.141,5.732-0.873,10.964-4.5,11.678c-3.633,0.725-7.492-3.332-8.637-9.062
				c-1.137-5.725,0.881-10.962,4.506-11.676C363.862,408.855,367.722,412.925,368.867,418.643z"/>
			<path fill="#58595B" d="M350.051,364.955c-0.1,4.821-2.646,8.679-5.688,8.616c-3.059-0.06-5.45-4.008-5.358-8.828
				c0.096-4.813,2.635-8.678,5.686-8.611C347.741,356.188,350.133,360.143,350.051,364.955z"/>
			<path fill="#58595B" d="M342.576,337.67c1.965,3.531,1.75,7.4-0.484,8.641c-2.24,1.247-5.637-0.601-7.607-4.127
				c-1.963-3.525-1.758-7.402,0.477-8.638C337.199,332.293,340.602,334.147,342.576,337.67z"/>
			<path fill="#58595B" d="M353.85,331.784c1.867,3.344,1.664,7.009-0.456,8.188c-2.124,1.18-5.341-0.573-7.204-3.913
				c-1.863-3.339-1.67-7.009,0.449-8.184C348.76,326.691,351.977,328.445,353.85,331.784z"/>
			<path fill="#58595B" d="M366.176,361.812c0.596,4.951-1.458,9.272-4.589,9.642c-3.142,0.378-6.157-3.324-6.761-8.273
				c-0.593-4.947,1.462-9.273,4.592-9.641C362.553,353.157,365.576,356.866,366.176,361.812z"/>
		</g>
		<g>
			<path d="M367.111,442.018c0.344-0.359,0.671-0.725,1.016-1.083C367.782,441.293,367.455,441.659,367.111,442.018z"/>
			<path d="M376.613,431.35c0.564-0.68,1.115-1.367,1.676-2.058C377.729,429.983,377.178,430.67,376.613,431.35z"/>
			<path d="M371.475,437.286c0.496-0.545,0.989-1.095,1.473-1.647C372.464,436.191,371.966,436.739,371.475,437.286z"/>
			<path d="M361.521,447.634c0.387-0.374,0.772-0.747,1.153-1.125C362.293,446.887,361.907,447.26,361.521,447.634z"/>
			<path d="M315.637,329.049c0.393-0.073,0.788-0.139,1.191-0.188C316.428,328.913,316.029,328.977,315.637,329.049z"/>
			<path d="M368.914,326.147c-4.158-5.181-9.062-9.911-14.76-13.564c-2.87-1.857-5.727-3.4-9.018-4.761
				c-0.852-0.338-1.924-0.784-2.366-0.894l-0.876-0.276l-0.216-0.07c0.032,0.021-0.669-0.262-0.444-0.166l-0.146-0.042l-0.591-0.178
				c-1.565-0.487-3.141-0.901-4.726-1.228c-6.336-1.313-12.773-1.466-19.005-0.409c-6.227,1.059-12.239,3.411-17.354,6.901
				c-5.132,3.493-9.197,8.099-12.057,12.908c-1.407,2.427-2.527,4.894-3.445,7.337c-0.4,1.228-0.857,2.439-1.156,3.654l-0.481,1.801
				l-0.415,1.928c-0.313,1.399-0.352,2.192-0.516,3.236l-0.049,0.371c0.037-0.16-0.057,0.32-0.057,0.311l-0.016,0.113l-0.021,0.225
				l-0.088,0.892l-0.163,1.774c-0.115,2.383-0.146,4.727,0.1,7.046c0.4,4.619,1.668,9.042,3.512,12.894
				c1.893,3.84,4.349,7.126,7.093,9.664c5.486,5.144,11.676,7.462,16.722,8.221c5.105,0.765,9.132,0.061,11.717-0.648
				c2.852-0.82,3.692-1.393,3.77-1.371c1.58-0.5,2.461-2.197,1.96-3.783c-0.502-1.587-2.194-2.469-3.784-1.965
				c0.059-0.044-1.418,0.396-3.166,0.474c-1.993,0.124-5.002,0.003-8.438-1.285c-3.398-1.259-7.264-3.693-10.025-7.622
				c-2.785-3.881-4.3-9.084-3.631-14.841c0.121-1.432,0.459-2.913,0.821-4.4l0.335-1.123l0.17-0.562l0.039-0.142l0.025-0.071
				c0.015-0.068-0.073,0.354-0.021,0.133l0.114-0.352c0.317-0.89,0.655-2.07,0.944-2.599l0.432-0.998l0.529-1.097
				c0.322-0.748,0.757-1.41,1.12-2.122c0.831-1.349,1.726-2.621,2.714-3.767c2.91-3.347,6.578-5.54,10.785-6.483
				c-0.536,0.123-1.061,0.259-1.578,0.42c15.651-6.4,36.137-6.831,42.908,8.917c11.81,27.479,6.587,61.63,26.147,85.697
				c-0.55,0.725-1.116,1.441-1.677,2.161c4.938-6.327,9.51-12.905,13.66-19.727c-0.844-1.136-1.684-2.604-2.434-4.459
				c-2.366-5.675-3.883-14.239-4.891-23.415l-0.348-3.646c-0.123-1.538-0.244-3.071-0.424-4.615
				c-0.342-3.083-0.816-6.17-1.455-9.259c-1.236-6.171-3.131-12.325-5.712-18.266C376.357,337.088,373.035,331.361,368.914,326.147z
				"/>
			<path d="M317.547,328.78c0.658-0.061,1.319-0.101,2-0.106C318.866,328.678,318.205,328.718,317.547,328.78z"/>
		</g>
		<path d="M282.91,421.245c-0.218-1.112-0.495-2.198-0.744-3.294l-0.396-1.64l-0.199-0.818l-0.1-0.409l-0.05-0.204
			c-0.509-1.569-1.14-3.61-1.14-3.61l-0.49-1.135c-0.072-0.118-0.196-0.522-0.309-0.899l-0.35-1.103
			c-0.475-1.47-0.963-2.926-1.482-4.365c-0.253-0.768-0.521-1.34-0.785-1.932l-0.807-1.781c-4.233-9.54-10.346-17.928-16.592-24.899
			c-6.326-6.926-12.882-12.543-19.039-17.56c-6.158-5.055-11.992-9.604-17.635-13.809c-11.189-8.443-21.1-16.384-27.326-25.197
			c-0.394-0.545-0.744-1.097-1.122-1.646l-0.28-0.416l-0.133-0.207l-0.073-0.104c-0.157-0.283,0.143,0.272,0.078,0.159l-0.667-1.149
			l-0.795-1.396c-0.272-0.527-0.55-1.056-0.799-1.604c-1.039-2.17-1.787-4.538-2.402-6.98c-1.218-4.896-1.568-10.209-1.091-15.474
			c0.458-5.265,1.689-10.491,3.562-15.319c1.889-4.825,4.408-9.242,7.365-13.016c5.95-7.573,13.506-12.377,22.117-14.097
			c0.537-0.126,1.082-0.208,1.625-0.304l0.411-0.073c-0.95,0.023-0.183,0-0.354,0l0.141-0.011l0.28-0.025l1.127-0.1l1.121-0.103
			c0.345-0.026,0.832-0.079,0.977-0.072c0.427-0.016,0.858-0.039,1.296-0.073c0.402-0.057,0.93-0.034,1.461-0.016l1.58,0.036
			c1.014,0.141,2.076,0.136,3.062,0.358c2.031,0.267,3.925,0.883,5.842,1.458c1.829,0.725,3.688,1.458,5.344,2.508
			c6.751,3.992,11.89,10.325,14.726,16.898c3.009,6.558,3.918,13.207,3.91,18.702c-0.055,5.524-0.959,9.968-1.771,12.948
			c-0.359,1.517-0.783,2.634-1.031,3.408c-0.256,0.774-0.391,1.172-0.391,1.172l-0.09,0.276c-0.471,1.415,0.012,3.027,1.288,3.936
			c1.571,1.117,3.747,0.749,4.864-0.818c0,0,0.273-0.391,0.809-1.14c0.522-0.754,1.367-1.855,2.281-3.41
			c1.883-3.066,4.425-7.848,6.207-14.608c0.84-3.374,1.59-7.232,1.768-11.528c0.168-4.292-0.106-9.011-1.115-14.011
			c-1.025-4.991-2.838-10.241-5.676-15.436c-2.821-5.191-6.693-10.341-11.809-14.758c-2.506-2.277-5.39-4.23-8.433-6.097
			c-3.102-1.737-6.403-3.363-9.94-4.472c-1.75-0.655-3.566-1.042-5.392-1.546c-0.923-0.182-1.844-0.363-2.776-0.549
			c-0.92-0.177-1.846-0.354-2.924-0.454c-1.049-0.108-2.1-0.218-3.152-0.327c-0.604-0.063-0.864-0.065-1.262-0.096l-1.126-0.067
			l-1.132-0.072l-0.281-0.019l-0.141-0.01c-0.268,0.002,0.4-0.022-0.641,0.007l-0.717,0.002c-0.969,0.009-1.937,0.009-2.912,0.065
			c-7.798,0.366-16.01,2.287-23.583,5.952c-7.617,3.615-14.513,8.891-20.274,15.131c-5.732,6.278-10.383,13.5-13.797,21.276
			c-3.451,7.765-5.79,16.061-6.86,24.664c-1.056,8.592-0.97,17.505,0.665,26.442c0.813,4.467,2.049,8.92,3.67,13.314
			c0.392,1.1,0.83,2.189,1.285,3.277c0.203,0.516,0.527,1.19,0.79,1.776l0.749,1.602l0.572,1.196l0.932,1.732
			c0.527,0.972,1.035,1.971,1.586,2.922c2.17,3.831,4.6,7.374,7.025,10.816c2.447,3.386,5.019,6.555,7.539,9.624
			c2.523,3.032,5.08,5.94,7.562,8.718c2.411,2.709,4.814,5.411,7.206,8.1c2.308,2.625,4.502,5.207,6.545,7.689
			c2.076,2.487,3.938,4.941,5.545,7.398c3.234,4.904,5.242,9.823,5.938,14.187c0.635,4.379-0.133,8.089-1.521,11.035
			c0,0-0.679,1.673-1.527,3.304c-0.871,1.675-1.912,3.31-2.021,3.528c-0.454,0.854-0.764,1.712-1.227,2.484
			c-3.452,6.299-6.899,10.009-10.463,13.788c-3.569,3.702-7.616,7.307-11.872,10.88c-4.25,3.554-8.557,6.982-12.344,10
			c-3.762,2.993-7.086,5.673-9.174,7.437c-0.183,0.159-0.355,0.304-0.533,0.452c22.622,8.503,47.119,13.163,72.715,13.163
			c15.751,0,31.084-1.769,45.826-5.104c0.836-2.466,1.616-4.981,2.293-7.575c0.576-2.071,1.034-4.235,1.494-6.381
			c0.404-2.175,0.754-4.383,1.075-6.594c1.182-8.901,1.173-18.184-0.062-27.199C283.756,425.689,283.318,423.478,282.91,421.245z"/>
		<path fill="#808285" d="M284.033,427.956c-0.277-2.266-0.715-4.478-1.123-6.71c-0.218-1.112-0.495-2.198-0.744-3.294l-0.396-1.64
			l-0.199-0.818l-0.1-0.409l-0.05-0.204c-0.509-1.569-1.14-3.61-1.14-3.61l-0.49-1.135c-0.072-0.118-0.196-0.522-0.309-0.899
			l-0.35-1.103c-0.475-1.47-0.963-2.926-1.482-4.365c-0.253-0.768-0.521-1.34-0.785-1.932l-0.807-1.781
			c-4.233-9.54-10.346-17.928-16.592-24.899c-6.326-6.926-12.882-12.543-19.039-17.56c-5.59-4.585-10.903-8.743-16.057-12.617
			c8.731,9.713,15.758,20.564,18.76,32.57c9.602,35.213,7.434,80.681-23.957,102.778c4.701,0.32,9.447,0.483,14.232,0.483
			c15.751,0,31.084-1.769,45.826-5.104c0.836-2.466,1.616-4.981,2.293-7.575c0.576-2.071,1.034-4.235,1.494-6.381
			c0.404-2.175,0.754-4.383,1.075-6.594C285.276,446.253,285.268,436.971,284.033,427.956z"/>
		<path fill="#808285" d="M136.699,410.702c5.236-10.47,6.98-20.938,6.98-33.153c0-29.565-23.197-57.571-53.576-50.563
			c0.639-0.048,1.394,0.043,2.188,0.143c1.791,0.336,3.975,1.013,6.311,2.294c2.318,1.258,4.722,2.977,6.942,5.129
			c4.466,4.308,8.185,10.071,10.505,16.402c2.334,6.349,3.434,13.211,3.201,20.16l-0.157,2.611l-0.038,0.649
			c0,0.218-0.019-1.636-0.012-0.8l-0.014,0.114l-0.02,0.222l-0.045,0.442l-0.178,1.774c-0.064,0.559-0.107,1.256-0.189,1.698
			c-0.096,0.214-0.191,0.425-0.27,0.632c-0.182,0.44-0.227,0.717-0.514,1.494c-0.795,2.643-2.02,5.234-3.527,7.802
			c-2.967,5.127-7.334,10.066-12.344,14.449c-5.023,4.375-10.632,8.277-16.305,11.517c-1.039,0.583-2.074,1.128-3.106,1.676
			c8.039,8.582,16.808,16.47,26.196,23.582c2.41-1.726,4.765-3.579,7.035-5.595C124.487,428.146,133.211,419.424,136.699,410.702z"
			/>
		<g>
			<path fill="#231F20" d="M102.359,433.943c2.081,1.703,4.18,3.376,6.322,5.002C106.539,437.32,104.44,435.646,102.359,433.943z"/>
			<path fill="#231F20" d="M82.532,415.396c1.849,1.974,3.742,3.899,5.667,5.797C86.274,419.297,84.381,417.369,82.532,415.396z"/>
			<path fill="#231F20" d="M89.949,422.877c1.402,1.35,2.816,2.685,4.25,3.994C92.766,425.562,91.352,424.227,89.949,422.877z"/>
			<path fill="#231F20" d="M96.145,428.618c1.493,1.331,3.01,2.632,4.54,3.92C99.154,431.252,97.638,429.949,96.145,428.618z"/>
			<path fill="#231F20" d="M162.359,376.688l-0.131-1.778l-0.033-0.445l-0.02-0.223l-0.006-0.109
				c0.003,0.763-0.015-1.163-0.02-1.021l-0.135-1.122c-0.188-1.5-0.355-2.998-0.577-4.487c-1.858-11.935-5.946-23.682-12.282-33.875
				c-6.313-10.203-14.664-18.888-24.516-25.133c-4.936-3.115-10.301-5.595-16.031-7.232c-5.689-1.665-11.944-2.325-18.287-1.479
				c-3.18,0.481-6.363,1.254-9.387,2.63c-1.374,0.531-3.372,1.657-4.971,2.652c-0.553,0.386-0.813,0.629-1.229,0.948l-0.569,0.455
				c-0.295,0.205,0.555-0.375-0.677,0.473l-0.085,0.082l-0.178,0.168l-0.345,0.336c-0.913,0.894-1.817,1.784-2.712,2.665
				l-1.313,1.321c-0.408,0.486-0.799,1.004-1.193,1.5c-0.769,1.003-1.527,1.998-2.275,2.985c-0.75,0.97-1.313,2.155-1.936,3.209
				c-2.557,4.232-3.783,9.047-4.424,13.425c-0.068,1.113-0.128,2.208-0.191,3.288c-0.013,0.536-0.031,1.068-0.049,1.594
				c0.036,0.522,0.082,1.042,0.117,1.558c0.092,1.026,0.173,2.034,0.295,3.011c0.156,0.972,0.414,1.907,0.618,2.825
				c1.799,7.341,5.347,12.641,8.815,16.295c0.805,0.954,1.789,1.71,2.607,2.457c0.805,0.759,1.713,1.354,2.52,1.908
				c1.486,1.117,3.299,1.989,4.602,2.593c0.705,0.369,1.117,0.405,1.549,0.541c0.414,0.116,0.768,0.213,1.049,0.291
				c0.559,0.154,0.855,0.236,0.855,0.236c1.406,0.391,2.977-0.072,3.94-1.294c1.281-1.625,0.999-3.978-0.631-5.259l-0.015-0.014
				c0,0-0.236-0.184-0.695-0.547c-0.23-0.179-0.516-0.407-0.859-0.672c-0.308-0.265-0.825-0.583-0.988-0.919
				c-0.867-1.14-2.635-3.333-3.956-6.417c-1.326-3.062-2.279-7.135-1.915-11.291c0.063-0.518,0.066-1.035,0.156-1.548
				c0.143-0.512,0.242-1.018,0.352-1.527l0.15-0.758l0.285-0.731c0.191-0.486,0.373-0.97,0.54-1.456
				c0.994-1.851,2.049-3.604,3.726-5.127c1.457-1.604,3.618-2.913,5.899-4.176l0.208-0.123c0,0,0.596-0.195,0.796-0.245
				c0.208-0.05,0.744-0.137,0.858-0.139h0.268c0.055-0.006,0.123,0.007,0.177,0h-0.003c30.373-7.007,53.57,20.999,53.57,50.563
				c0,12.215-1.744,22.683-6.98,33.153c-3.488,8.722-12.212,17.444-20.936,22.681c-2.271,2.016-4.625,3.869-7.035,5.595
				c5.795,4.392,11.821,8.484,18.071,12.253c0.737-0.694,1.485-1.394,2.215-2.116c3.77-3.607,7.431-7.621,10.942-11.956
				c6.983-8.69,13.487-18.9,17.783-30.998c2.168-6.004,3.721-12.48,4.324-19.184c0.207-1.537,0.285-3.624,0.354-5.536l0.06-2.901
				C162.454,377.799,162.396,377.312,162.359,376.688z"/>
		</g>
		<path fill="#808285" d="M223.939,101.876c10.467,12.214,26.172,17.449,41.873,8.724c3.492-3.487,3.492-8.724,1.747-12.212
			c-1.747-1.744-3.491-3.49-5.237-3.49c-0.42,0-0.871-0.025-1.334-0.057c1.341,0.473,2.73,1.446,3.732,2.96
			c0.754,1.126,1.223,2.525,1.137,3.741c-0.05,0.384-0.096,0.774-0.145,1.169c-0.1,0.345-0.16,0.556-0.297,0.938
			c-0.254,0.676-0.591,1.27-1.032,1.787c-1.687,2.016-5.493,3.133-9.935,2.92c-2.209-0.068-4.542-0.463-6.894-1.04
			c-1.177-0.297-2.354-0.668-3.523-1.077c-0.202-0.036,0.216,0.03,0.145,0.016l-0.063-0.023l-0.129-0.038l-0.258-0.087l-0.514-0.164
			c-0.223-0.102-0.305-0.182-0.46-0.263c-0.371-0.202-0.802-0.432-1.193-0.676c-3.192-1.989-5.868-5.3-7.483-9.192
			c-1.659-3.887-2.3-8.316-1.928-12.755c0.01-0.274,0.041-0.552,0.069-0.833l0.045-0.416l0.019-0.207l0.004-0.053
			c-0.013-0.271,0.032,0.318,0.027,0.23l0.02-0.148l0.121-1.171c0.049-0.366,0.072-0.865,0.151-1.013
			c0.257-0.801,0.513-1.914,0.852-2.913c0.659-1.999,1.519-3.756,2.513-5.296c0.954-1.454,2.058-2.696,3.27-3.815
			c-1.943-0.055-3.881-0.086-5.832-0.086c-5.504,0-10.953,0.235-16.344,0.658C211.023,78.793,214.836,94.291,223.939,101.876z"/>
		<g>
			<path fill="#231F20" d="M263.75,96.625c0.076,0.078,0.15,0.151,0.223,0.232C263.9,96.776,263.826,96.703,263.75,96.625z"/>
			<path fill="#231F20" d="M263.097,96.036c-0.07-0.055-0.137-0.112-0.2-0.164C262.96,95.924,263.026,95.98,263.097,96.036z"/>
			<path fill="#231F20" d="M273.328,102.193c-0.004-0.55-0.061-0.817-0.096-1.233c-0.435-3.022-1.809-5.393-3.379-7.218
				c-3.156-3.657-7.52-5.23-11.137-5.001c-1.802,0.109-3.373,0.575-4.591,1.172c-1.222,0.604-2.148,1.257-2.853,1.809
				c-1.554,1.315-1.848,1.724-1.917,1.751c-1.121,1.208-1.054,3.098,0.149,4.219c1.211,1.124,3.1,1.058,4.219-0.149
				c-0.035,0.063,0.605-0.789,1.26-1.361c0.813-0.737,2.172-1.626,3.982-1.683c0.617-0.032,1.316,0.087,2.026,0.341
				c0.462,0.032,0.909,0.057,1.329,0.057c1.746,0,3.49,1.747,5.237,3.49c1.745,3.488,1.745,8.725-1.747,12.212
				c-15.701,8.725-31.406,3.491-41.873-8.724c-9.104-7.585-12.916-23.083-6.877-33.88c2.662-0.209,5.332-0.37,8.02-0.481
				c-7.447,0.296-14.795,0.981-22.021,2.043c-0.041,1.722-0.026,3.424,0.088,5.099c0.131,2.077,0.385,4.056,0.74,6.344
				c0.08,0.625,0.176,0.896,0.267,1.306l0.278,1.142l0.033,0.143c0-0.041,0.052,0.595,0.043,0.373l0.02,0.091l0.076,0.373
				l0.163,0.737c0.109,0.492,0.212,0.983,0.345,1.474c1.967,7.825,5.528,15.4,10.76,21.591c5.195,6.179,12.146,10.965,19.923,12.902
				c0.978,0.246,1.926,0.427,2.952,0.588c0.541,0.08,1.16,0.171,1.635,0.216l0.545,0.018l0.269,0.011l0.136,0.006l0.064,0.003
				c-0.021-0.005,0.436,0.065,0.277,0.034c1.65,0.012,3.282-0.057,4.896-0.164c3.219-0.183,6.375-0.697,9.444-1.431
				c3.063-0.772,6.067-1.864,8.861-3.524c2.757-1.662,5.383-4.032,6.861-7.042c0.765-1.474,1.231-3.034,1.45-4.528
				c0.113-0.701,0.158-1.583,0.168-2.313L273.328,102.193z"/>
			<path fill="#231F20" d="M233.406,67.337c-2.748,0-5.48,0.061-8.195,0.167C227.926,67.396,230.658,67.337,233.406,67.337z"/>
		</g>
		<path fill="#808285" d="M281.517,196.095c10.763,15.105,29.878,17.664,47.327,10.686c5.232-1.744,10.635-7.555,13.521-11.558
			c2.277-3.166,4.287-7.617,5.455-11.34c3.672-11.779,0-24.429-6.984-33.151c-14.178-14.181-31.289-24.25-45.199-37.02
			c6.604,9.281,14.068,17.693,21.5,25.473c6.338,6.285,10.609,13.134,11.971,20.28c0.676,3.585,0.654,7.312-0.113,11.17
			c-0.791,3.84-2.344,7.773-4.482,11.531c-0.527,0.944-1.104,1.872-1.713,2.782c-0.592,0.906-1.279,1.846-1.795,2.554
			c-0.104,0.159-0.332,0.434-0.563,0.718l-0.666,0.818l-0.084,0.102c-0.153,0.174,0.115-0.12,0.064-0.066l-0.118,0.143l-0.239,0.293
			l-0.482,0.581c-0.664,0.754-1.34,1.492-2.05,2.18c-2.805,2.764-5.925,4.896-8.782,6.018c-2.884,1.105-5.313,1.38-7.865,0.926
			c-2.549-0.472-5.355-1.998-8.08-4.337c-0.681-0.595-1.361-1.199-2.021-1.876c-0.672-0.69-1.326-1.367-1.86-2.003l-0.432-0.481
			l-0.219-0.241l-0.271-0.364l-1.072-1.43c-0.499-0.582-1.076-1.454-1.542-2.162c-1.952-2.989-3.164-5.916-3.78-8.609
			c-0.587-2.704-0.454-5.202,0.208-7.616c0.203-0.731,0.48-1.442,0.804-2.137C276.034,174.917,275.845,188.134,281.517,196.095z"/>
		<g>
			<path fill="#231F20" d="M281.639,168.705c-0.188,0.459-0.357,0.919-0.49,1.392C281.281,169.624,281.456,169.164,281.639,168.705z
				"/>
			<path fill="#231F20" d="M362.946,156.243c-0.417-7.92-2.298-15.685-5.191-22.689c-2.893-6.988-6.725-13.335-10.735-18.953
				c-3.174-4.48-5.932-8.813-8.484-13.129c-1.538-2.641-2.928-5.262-4.21-7.853c-17.997-10.089-37.659-17.566-58.472-21.91
				c0.266,1.178,0.529,2.359,0.85,3.52c3.515,13.164,9.668,24.958,16.803,35.435c2.268,3.352,4.66,6.577,7.13,9.715
				c-1.706-2.176-3.382-4.394-4.999-6.667c13.91,12.771,31.021,22.839,45.199,37.02c6.984,8.722,10.656,21.372,6.984,33.151
				c-1.168,3.724-3.178,8.175-5.455,11.34c-2.887,4.003-8.289,9.814-13.521,11.558c-17.449,6.978-36.564,4.419-47.327-10.686
				c-5.672-7.961-5.482-21.176,0.436-28.136c0.731-1.609,1.734-3.127,2.907-4.5c3.419-3.946,8.064-6.467,11.994-7.648
				c3.982-1.263,7.337-1.276,9.537-1.044c1.121,0.113,1.967,0.304,2.443,0.386c0.672,0.204,1.012,0.309,1.012,0.309l0.042,0.014
				c1.48,0.45,3.142-0.077,4.069-1.413c1.158-1.657,0.748-3.942-0.914-5.1c0,0-0.303-0.214-0.889-0.623
				c-0.805-0.479-1.868-1.115-3.344-1.771c-2.959-1.287-7.662-2.627-13.711-2.343c-5.988,0.313-13.416,2.084-20.66,7.441
				c-3.573,2.686-7.029,6.401-9.56,11.224c-2.593,4.79-3.851,10.751-3.624,16.672c0.214,5.945,1.936,11.74,4.41,16.958
				c0.64,1.349,1.235,2.525,2.043,3.931l0.859,1.571l0.213,0.395l0.311,0.494l0.611,0.983c0.831,1.358,1.689,2.582,2.561,3.794
				c0.883,1.227,1.863,2.439,2.891,3.646c4.159,4.755,9.838,9.438,17.252,12.169c3.68,1.351,7.707,2.155,11.74,2.269
				c4.037,0.117,8.038-0.409,11.795-1.395c7.547-2.002,14.041-5.704,19.701-10.146c1.422-1.115,2.775-2.298,4.1-3.52l0.979-0.938
				l0.48-0.47l0.24-0.238l0.342-0.353l0.74-0.756c0.234-0.238,0.482-0.491,0.821-0.872c1.317-1.436,2.407-2.688,3.507-4.053
				c1.099-1.35,2.166-2.739,3.182-4.183c4.074-5.755,7.527-12.281,9.857-19.522C362.275,172.128,363.418,164.156,362.946,156.243z"
				/>
			<path fill="#231F20" d="M300.84,120.637c1.668,2.114,3.371,4.183,5.098,6.204C304.211,124.82,302.508,122.751,300.84,120.637z"/>
			<path fill="#231F20" d="M317.137,139.185c-1.755-1.832-3.502-3.706-5.246-5.613C313.635,135.476,315.382,137.353,317.137,139.185
				z"/>
			<path fill="#231F20" d="M311.449,133.094c-1.726-1.903-3.447-3.847-5.146-5.827C308.002,129.248,309.719,131.191,311.449,133.094
				z"/>
		</g>
		<path fill="#808285" d="M126.812,239.423c-16.202,9.535-41.903,9.267-56.701-2.618c-5.263-4.224-6.784-7.98-9.306-15.991
			c-6.371-20.283-0.303-48.977,5.912-69.009C42.021,185.427,27.23,226.784,26.699,271.58c6.331,4.769,13.328,8.488,20.337,10.922
			c1.776,0.595,3.56,1.165,5.349,1.665c1.769,0.429,3.533,0.833,5.297,1.21c1.916,0.377,4.009,0.75,6.004,1.022l0.758,0.104
			l0.373,0.05l0.214,0.002h0.84l1.681,0.002h0.84l0.209,0.002c-0.791-0.175,1.303,0.239,1.203,0.198l0.6,0.011l2.375,0.025
			c1.562,0.019,3.179-0.058,4.771-0.129c3.189-0.139,6.414-0.479,9.625-0.979c6.42-0.985,12.834-2.721,18.921-5.205
			c12.249-4.884,22.833-12.994,30.415-22.09c15.34-18.375,20.036-38.894,22.961-56.256c1.463-8.557,2.793-16.622,4.633-23.698
			c1.207-4.849,2.662-9.129,4.358-12.816c-12.678,16.951-16.64,45.599-31.177,64.79C135.791,232.377,131.76,236.517,126.812,239.423
			z"/>
		<g>
			<path fill="#231F20" d="M29.502,240.026c-0.32,1.918-0.619,3.842-0.883,5.774C28.883,243.868,29.182,241.944,29.502,240.026z"/>
			<path fill="#231F20" d="M28.297,248.318c-0.209,1.703-0.398,3.411-0.572,5.123C27.898,251.729,28.088,250.021,28.297,248.318z"/>
			<path fill="#231F20" d="M31.24,230.738c-0.54,2.516-1.026,5.05-1.473,7.597C30.214,235.788,30.7,233.254,31.24,230.738z"/>
			<path fill="#231F20" d="M27.476,256.13c-0.155,1.762-0.278,3.538-0.382,5.315C27.197,259.668,27.32,257.892,27.476,256.13z"/>
			<path fill="#231F20" d="M32.961,223.368c-0.604,2.402-1.176,4.815-1.693,7.248C31.785,228.183,32.356,225.77,32.961,223.368z"/>
			<path fill="#231F20" d="M26.943,263.855c-0.121,2.563-0.213,5.136-0.244,7.725C26.73,268.991,26.822,266.418,26.943,263.855z"/>
			<path fill="#231F20" d="M165.188,174.491c-0.071,0.245-0.145,0.491-0.217,0.74C165.043,174.981,165.116,174.736,165.188,174.491z
				"/>
			<path fill="#231F20" d="M233.32,149.253l-0.218-1.771c-0.085-0.579-0.185-1.237-0.29-1.669c-0.413-1.939-0.976-3.861-1.743-5.656
				c-2.989-7.284-8.447-13.401-15.61-17.748c-3.579-2.171-7.619-3.87-11.957-4.916c-4.343-1.034-8.975-1.362-13.58-0.977
				c-9.268,0.779-18.133,4.507-25.441,9.671c-3.701,2.598-6.99,5.554-10.009,8.761l-0.509,0.549l-0.661,0.754
				c-0.426,0.495-0.903,1.026-1.284,1.503c-0.734,0.95-1.484,1.898-2.17,2.897c-1.417,1.966-2.689,4.044-3.802,6.186
				c-2.257,4.278-4.015,8.725-5.259,13.116c-1.29,4.398-2.145,8.724-2.916,12.9c-1.431,8.38-2.488,16.292-4.428,23.793
				c-1.862,7.404-4.578,14.038-8.594,19.669c-3.925,5.625-9.006,9.999-14.354,12.215c-5.346,2.318-10.756,2.28-15.552,1.108
				c-2.415-0.575-4.774-1.531-7.09-2.623c-1.163-0.561-2.306-1.16-3.464-1.802c-0.582-0.334-1.146-0.627-1.73-1.006l-0.863-0.509
				c0,0-3.03-2.29-3.199-2.568c-0.299-0.357-0.594-0.693-0.88-1.002c-0.224-0.365-0.44-0.676-0.662-0.956
				c-0.74-1.26-0.958-2.272-0.995-3.186c-0.05-0.899,0.022-1.728,0.059-2.843c0.041-1.403,0.082-2.809,0.123-4.206
				c0.141-3.451,0.509-8.179,1.539-13.475c1.045-5.309,2.471-11.116,4.402-17.008c3.806-11.821,9.273-23.789,14.982-34.958
				c5.758-11.188,12.162-21.534,18.271-30.831c3.741-5.604,7.45-10.791,11.017-15.548c-32.209,19.508-58.64,47.576-76.193,81.033
				c4.836-9.21,10.34-18.016,16.457-26.345c-6.215,20.033-12.283,48.727-5.912,69.009c2.521,8.011,4.043,11.767,9.306,15.991
				c14.798,11.885,40.499,12.153,56.701,2.618c4.948-2.906,8.979-7.046,10.474-9.012c14.537-19.191,18.499-47.839,31.177-64.79
				c-0.003,0.011-0.007,0.022-0.015,0.032c0.798-1.729,1.638-3.336,2.541-4.792c0.717-1.141,1.457-2.216,2.234-3.243
				c0.377-0.52,0.799-1.003,1.205-1.499l0.502-0.591l0.238-0.288c0.062-0.084,0.284-0.312,0.42-0.458
				c2.012-2.089,3.993-4.081,6.014-5.666c3.984-3.302,7.929-5.532,11.74-6.406c3.781-0.901,7.534-0.64,10.955,0.639
				c3.404,1.263,6.283,3.64,7.965,5.96c0.445,0.58,0.75,1.151,1.035,1.692c0.098,0.182,0.09,0.162,0.137,0.205
				c0.046,0.036,0.096,0.068,0.16,0.109c0.057,0.241,0.118,0.604,0.182,0.896l0.088,0.466l0.024,0.114
				c-0.01-0.177,0.056,0.556-0.017-0.368l0.031,0.164c0.275,1.726,0.408,3.469,0.367,5.17c-0.1,3.408-0.969,6.563-2.104,9.215
				c-2.342,5.361-5.94,8.258-8.615,9.482c-1.32,0.647-2.593,0.945-3.17,1.102c-0.873,0.156-1.563,0.181-1.516,0.191
				c-2.444-0.135-4.529,1.734-4.665,4.173c-0.136,2.441,1.734,4.529,4.174,4.664c0.046-0.007,0.441,0.131,1.689,0.331
				c1.538,0.177,3.438,0.309,6.107-0.022c2.616-0.354,5.849-1.278,9.188-3.161c3.343-1.877,6.736-4.723,9.709-8.527
				c2.98-3.801,5.445-8.613,6.98-14.298c0.75-2.848,1.244-5.922,1.322-9.177C233.354,150.911,233.339,150.084,233.32,149.253z"/>
			<path fill="#231F20" d="M166.139,171.493c-0.043,0.114-0.073,0.232-0.118,0.343C166.065,171.725,166.096,171.607,166.139,171.493
				z"/>
			<path fill="#231F20" d="M46.75,185.158c1.039-2.174,2.117-4.327,3.227-6.458C48.867,180.831,47.789,182.984,46.75,185.158z"/>
			<path fill="#231F20" d="M37.38,208.343c-0.653,1.949-1.28,3.913-1.876,5.888C36.1,212.258,36.727,210.292,37.38,208.343z"/>
			<path fill="#231F20" d="M46.521,185.634c-3.291,6.946-6.207,14.099-8.719,21.442C40.317,199.732,43.225,192.578,46.521,185.634z"
				/>
			<path fill="#231F20" d="M34.988,215.967c-0.564,1.918-1.097,3.846-1.6,5.786C33.892,219.813,34.424,217.883,34.988,215.967z"/>
		</g>
		<g>
			<path fill="#6D6E71" d="M329.262,158.318c-3.142-0.041-5.741,3.949-5.809,8.906c-0.045,3.352,1.09,6.256,2.793,7.823
				c0.963,1.21,2.166,1.968,3.502,1.986c3.206,0.046,5.85-4.021,5.928-9.074c0.049-4.201-1.704-7.734-4.143-8.842
				C330.838,158.623,330.076,158.332,329.262,158.318z"/>
			<path fill="#6D6E71" d="M322.955,152.705c1.959,0.985,3.936,1.135,5.375,0.151c2.649-1.808,2.467-6.65-0.377-10.829
				c-2.211-3.224-5.372-5.083-7.926-4.927c-0.936-0.05-1.814,0.136-2.547,0.631c-2.588,1.771-2.416,6.531,0.383,10.628
				C319.299,150.457,321.146,151.962,322.955,152.705z"/>
			<path fill="#6D6E71" d="M298.434,194.542c-3.402-1.153-6.749-0.346-7.479,1.81c-0.16,0.474-0.16,0.979-0.057,1.485
				c-0.42,2.123,1.703,4.633,4.982,5.752c3.465,1.165,6.877,0.345,7.62-1.854c0.224-0.649,0.155-1.344-0.101-2.032
				C303.438,197.732,301.408,195.55,298.434,194.542z"/>
			<path fill="#6D6E71" d="M347.941,160.705c-0.599-0.352-1.239-0.58-1.916-0.588c-3.139-0.041-5.742,3.947-5.81,8.903
				c-0.055,3.906,1.489,7.214,3.679,8.484c0.854,0.829,1.854,1.342,2.938,1.36c3.206,0.046,5.851-4.02,5.924-9.077
				C352.814,165.207,350.722,161.406,347.941,160.705z"/>
			<path fill="#6D6E71" d="M326.132,183.685c-0.244-0.445-0.535-0.852-0.931-1.167c-2.453-1.96-6.953-0.399-10.046,3.472
				c-2.584,3.24-3.347,7.055-2.098,9.373c0.231,0.945,0.671,1.763,1.385,2.333c2.503,1.996,7.085,0.406,10.245-3.536
				C327.693,190.377,328.284,185.822,326.132,183.685z"/>
			<path fill="#6D6E71" d="M338.404,194.696c-0.237-0.408-0.518-0.78-0.885-1.078c-2.453-1.958-6.955-0.4-10.047,3.471
				c-2.771,3.475-3.459,7.612-1.812,9.852c0.245,0.835,0.68,1.548,1.329,2.067c2.504,2.002,7.086,0.413,10.246-3.53
				c3.144-3.956,3.678-8.774,1.178-10.777C338.409,194.698,338.404,194.698,338.404,194.696z"/>
		</g>
		<g>
			<path fill="#58595B" d="M333.568,166.509c-0.073,4.816-2.596,8.692-5.647,8.649c-3.05-0.043-5.472-3.983-5.405-8.802
				c0.068-4.814,2.59-8.688,5.643-8.647C331.21,157.753,333.625,161.697,333.568,166.509z"/>
			<path fill="#58595B" d="M326.209,141.796c2.713,3.978,2.885,8.598,0.359,10.318c-2.521,1.723-6.768-0.102-9.487-4.083
				c-2.716-3.976-2.88-8.597-0.363-10.318C319.244,135.987,323.488,137.822,326.209,141.796z"/>
			<path fill="#58595B" d="M349.854,168.253c-0.078,4.816-2.594,8.695-5.65,8.649c-3.051-0.043-5.474-3.98-5.404-8.797
				c0.068-4.819,2.593-8.692,5.643-8.651C347.492,159.497,349.908,163.441,349.854,168.253z"/>
			<path fill="#58595B" d="M323.1,191.48c-3.012,3.758-7.387,5.276-9.764,3.37c-2.391-1.905-1.883-6.499,1.121-10.264
				c3.004-3.763,7.375-5.277,9.76-3.374C326.604,183.117,326.092,187.716,323.1,191.48z"/>
			<path fill="#58595B" d="M295.641,200.467c-3.293-1.124-5.4-3.729-4.686-5.816c0.707-2.094,3.955-2.877,7.261-1.76
				c3.296,1.12,5.399,3.722,4.69,5.811C302.198,200.795,298.941,201.577,295.641,200.467z"/>
			<path fill="#58595B" d="M335.057,202.267c-3.007,3.755-7.38,5.272-9.765,3.365c-2.39-1.903-1.88-6.499,1.127-10.264
				c3.007-3.762,7.375-5.275,9.755-3.374C338.566,193.901,338.055,198.497,335.057,202.267z"/>
		</g>
		<g>
			<path d="M281.639,168.705c-0.188,0.459-0.357,0.919-0.49,1.392C281.281,169.624,281.456,169.164,281.639,168.705z"/>
			<path d="M362.946,156.243c-0.417-7.92-2.298-15.685-5.191-22.689c-2.893-6.988-6.725-13.335-10.735-18.953
				c-3.174-4.48-5.932-8.813-8.484-13.129c-1.538-2.641-2.928-5.262-4.21-7.853c-17.997-10.089-37.659-17.566-58.472-21.91
				c0.266,1.178,0.529,2.359,0.85,3.52c3.515,13.164,9.668,24.958,16.803,35.435c2.268,3.352,4.66,6.577,7.13,9.715
				c-1.706-2.176-3.382-4.394-4.999-6.667c13.91,12.771,31.021,22.839,45.199,37.02c6.984,8.722,10.656,21.372,6.984,33.151
				c-1.168,3.724-3.178,8.175-5.455,11.34c-2.887,4.003-8.289,9.814-13.521,11.558c-17.449,6.978-36.564,4.419-47.327-10.686
				c-5.672-7.961-5.482-21.176,0.436-28.136c0.731-1.609,1.734-3.127,2.907-4.5c3.419-3.946,8.064-6.467,11.994-7.648
				c3.982-1.263,7.337-1.276,9.537-1.044c1.121,0.113,1.967,0.304,2.443,0.386c0.672,0.204,1.012,0.309,1.012,0.309l0.042,0.014
				c1.48,0.45,3.142-0.077,4.069-1.413c1.158-1.657,0.748-3.942-0.914-5.1c0,0-0.303-0.214-0.889-0.623
				c-0.805-0.479-1.868-1.115-3.344-1.771c-2.959-1.287-7.662-2.627-13.711-2.343c-5.988,0.313-13.416,2.084-20.66,7.441
				c-3.573,2.686-7.029,6.401-9.56,11.224c-2.593,4.79-3.851,10.751-3.624,16.672c0.214,5.945,1.936,11.74,4.41,16.958
				c0.64,1.349,1.235,2.525,2.043,3.931l0.859,1.571l0.213,0.395l0.311,0.494l0.611,0.983c0.831,1.358,1.689,2.582,2.561,3.794
				c0.883,1.227,1.863,2.439,2.891,3.646c4.159,4.755,9.838,9.438,17.252,12.169c3.68,1.351,7.707,2.155,11.74,2.269
				c4.037,0.117,8.038-0.409,11.795-1.395c7.547-2.002,14.041-5.704,19.701-10.146c1.422-1.115,2.775-2.298,4.1-3.52l0.979-0.938
				l0.48-0.47l0.24-0.238l0.342-0.353l0.74-0.756c0.234-0.238,0.482-0.491,0.821-0.872c1.317-1.436,2.407-2.688,3.507-4.053
				c1.099-1.35,2.166-2.739,3.182-4.183c4.074-5.755,7.527-12.281,9.857-19.522C362.275,172.128,363.418,164.156,362.946,156.243z"
				/>
			<path d="M300.84,120.637c1.668,2.114,3.371,4.183,5.098,6.204C304.211,124.82,302.508,122.751,300.84,120.637z"/>
			<path d="M317.137,139.185c-1.755-1.832-3.502-3.706-5.246-5.613C313.635,135.476,315.382,137.353,317.137,139.185z"/>
			<path d="M311.449,133.094c-1.726-1.903-3.447-3.847-5.146-5.827C308.002,129.248,309.719,131.191,311.449,133.094z"/>
		</g>
		<g>
			<path fill="#6D6E71" d="M214.678,73.209c-0.145,0-0.28,0.05-0.422,0.068c-0.118-0.014-0.232-0.06-0.354-0.06
				c-0.309-0.002-0.61,0.069-0.904,0.141c-0.299-0.072-0.601-0.118-0.904-0.121c-3.346-0.011-6.08,4.27-6.098,9.559
				c-0.024,5.29,2.674,9.587,6.023,9.601c0.887,0.004,1.723-0.295,2.486-0.827c0.371-0.069,0.736-0.186,1.086-0.359
				c2.711-0.722,4.785-4.418,4.809-8.903C220.415,77.301,217.857,73.223,214.678,73.209z"/>
			<path fill="#6D6E71" d="M241.432,99.859c-2.67-2.55-6.152-3.252-7.773-1.558c-0.045,0.045-0.068,0.109-0.114,0.162
				c-0.118,0.086-0.244,0.157-0.351,0.263c-0.118,0.127-0.195,0.28-0.29,0.425c-0.287,0.15-0.554,0.333-0.78,0.572
				c-1.709,1.783-0.8,5.423,2.017,8.116c2.823,2.698,6.495,3.439,8.2,1.653c0.368-0.383,0.592-0.863,0.727-1.387
				c0.255-0.28,0.427-0.609,0.561-0.966C244.799,105.348,243.908,102.234,241.432,99.859z"/>
			<path fill="#6D6E71" d="M233.662,89.891c1.968-1.249,3.624-3.911,4.205-7.23c0.84-4.932-0.994-9.38-4.124-9.923
				c-0.398-0.072-0.8-0.068-1.198-0.009c-0.158,0.001-0.318-0.023-0.473-0.002c-3.255-0.443-6.58,3.281-7.471,8.417
				c-0.9,5.214,1.039,9.905,4.346,10.475c1.281,0.225,2.576-0.213,3.732-1.128C233.013,90.326,233.345,90.135,233.662,89.891z"/>
			<path fill="#6D6E71" d="M261.298,109.301c0.021-0.182,0.039-0.364,0.013-0.547c-0.228-1.747-2.652-2.868-5.414-2.514
				c-2.484,0.327-4.379,1.745-4.568,3.302c-0.135,0.329-0.203,0.67-0.182,1.018c-0.3,0.499-0.463,1.035-0.391,1.577
				c0.236,1.844,2.802,3.032,5.715,2.65c2.911-0.377,5.08-2.185,4.84-4.033c-0.019-0.15-0.076-0.282-0.123-0.421
				c0.11-0.319,0.168-0.645,0.123-0.979C261.311,109.335,261.301,109.319,261.298,109.301z"/>
		</g>
		<g>
			<path fill="#58595B" d="M238.775,82.276c-0.83,4.744-3.934,8.172-6.936,7.65c-3.011-0.521-4.781-4.791-3.955-9.537
				c0.821-4.747,3.924-8.178,6.926-7.658C237.821,73.255,239.588,77.531,238.775,82.276z"/>
			<path fill="#58595B" d="M221.99,81.934c-0.023,4.819-2.508,8.72-5.559,8.701c-3.057-0.009-5.516-3.923-5.491-8.742
				c0.019-4.816,2.499-8.715,5.55-8.704C219.547,73.2,222.002,77.12,221.99,81.934z"/>
			<path fill="#58595B" d="M242.203,98.806c2.572,2.459,3.394,5.77,1.836,7.396c-1.558,1.628-4.9,0.954-7.471-1.503
				c-2.566-2.455-3.393-5.768-1.84-7.392C236.292,95.678,239.634,96.354,242.203,98.806z"/>
			<path fill="#58595B" d="M256.107,104.937c2.656-0.34,4.985,0.738,5.203,2.416c0.223,1.686-1.753,3.329-4.406,3.672
				c-2.652,0.353-4.99-0.733-5.203-2.414C251.482,106.929,253.458,105.286,256.107,104.937z"/>
		</g>
		<g>
			<path fill="#231F20" d="M263.75,96.625c0.076,0.078,0.15,0.151,0.223,0.232C263.9,96.776,263.826,96.703,263.75,96.625z"/>
			<path fill="#231F20" d="M263.097,96.036c-0.07-0.055-0.137-0.112-0.2-0.164C262.96,95.924,263.026,95.98,263.097,96.036z"/>
			<path fill="#231F20" d="M273.328,102.193c-0.004-0.55-0.061-0.817-0.096-1.233c-0.435-3.022-1.809-5.393-3.379-7.218
				c-3.156-3.657-7.52-5.23-11.137-5.001c-1.802,0.109-3.373,0.575-4.591,1.172c-1.222,0.604-2.148,1.257-2.853,1.809
				c-1.554,1.315-1.848,1.724-1.917,1.751c-1.121,1.208-1.054,3.098,0.149,4.219c1.211,1.124,3.1,1.058,4.219-0.149
				c-0.035,0.063,0.605-0.789,1.26-1.361c0.813-0.737,2.172-1.626,3.982-1.683c0.617-0.032,1.316,0.087,2.026,0.341
				c0.462,0.032,0.909,0.057,1.329,0.057c1.746,0,3.49,1.747,5.237,3.49c1.745,3.488,1.745,8.725-1.747,12.212
				c-15.701,8.725-31.406,3.491-41.873-8.724c-9.104-7.585-12.916-23.083-6.877-33.88c2.662-0.209,5.332-0.37,8.02-0.481
				c-7.447,0.296-14.795,0.981-22.021,2.043c-0.041,1.722-0.026,3.424,0.088,5.099c0.131,2.077,0.385,4.056,0.74,6.344
				c0.08,0.625,0.176,0.896,0.267,1.306l0.278,1.142l0.033,0.143c0-0.041,0.052,0.595,0.043,0.373l0.02,0.091l0.076,0.373
				l0.163,0.737c0.109,0.492,0.212,0.983,0.345,1.474c1.967,7.825,5.528,15.4,10.76,21.591c5.195,6.179,12.146,10.965,19.923,12.902
				c0.978,0.246,1.926,0.427,2.952,0.588c0.541,0.08,1.16,0.171,1.635,0.216l0.545,0.018l0.269,0.011l0.136,0.006l0.064,0.003
				c-0.021-0.005,0.436,0.065,0.277,0.034c1.65,0.012,3.282-0.057,4.896-0.164c3.219-0.183,6.375-0.697,9.444-1.431
				c3.063-0.772,6.067-1.864,8.861-3.524c2.757-1.662,5.383-4.032,6.861-7.042c0.765-1.474,1.231-3.034,1.45-4.528
				c0.113-0.701,0.158-1.583,0.168-2.313L273.328,102.193z"/>
			<path fill="#231F20" d="M233.406,67.337c-2.748,0-5.48,0.061-8.195,0.167C227.926,67.396,230.658,67.337,233.406,67.337z"/>
		</g>
		<g>
			<path fill="#6D6E71" d="M120.033,359.393c0.716-0.207,1.336-0.638,1.853-1.214c0.444-0.263,0.845-0.599,1.188-1.021
				c0.159-0.087,0.291-0.219,0.438-0.323c2.688-1.553,3.77-6.122,2.391-10.895c-1.535-5.282-5.477-8.786-8.826-7.82
				c-1.373,0.395-2.414,1.508-3.075,3.016c-0.181,0.354-0.354,0.721-0.49,1.126c-0.323,0.449-0.587,0.967-0.801,1.544
				c-1.303,1.971-1.665,5.164-0.712,8.477C113.389,357.093,116.98,360.274,120.033,359.393z"/>
			<path fill="#6D6E71" d="M134.528,354.636c0.646-0.186,1.194-0.57,1.68-1.058c0.687-0.237,1.291-0.646,1.79-1.218
				c0.015-0.004,0.032-0.004,0.051-0.009c0.499-0.145,0.945-0.409,1.363-0.726c2.709-1.528,3.813-6.118,2.434-10.918
				c-1.53-5.284-5.482-8.783-8.834-7.82c-0.984,0.286-1.787,0.958-2.416,1.857c-0.377,0.422-0.713,0.899-0.977,1.462
				c-0.627,0.45-1.148,1.074-1.547,1.851c-1.986,1.717-2.717,5.512-1.574,9.467C127.889,352.336,131.481,355.518,134.528,354.636z"
				/>
			<path fill="#6D6E71" d="M109.404,398.88c-0.013-0.011-0.031-0.018-0.045-0.032c-0.05-0.054-0.078-0.12-0.128-0.17
				c-0.058-0.056-0.138-0.088-0.199-0.143c-0.149-0.233-0.29-0.474-0.491-0.672c-0.045-0.043-0.104-0.068-0.153-0.109
				c-0.117-0.168-0.22-0.354-0.368-0.499c-2.248-2.226-6.931-1.145-10.445,2.412c-2.399,2.43-3.603,5.368-3.434,7.705
				c-0.031,0.402-0.024,0.786,0.014,1.16c-0.01,0.127,0,0.241-0.004,0.369c-0.146,1.657,0.229,3.145,1.257,4.157
				c2.476,2.45,7.622,1.26,11.491-2.647C110.758,406.49,111.889,401.333,109.404,398.88z"/>
			<path fill="#6D6E71" d="M125.509,369.128c-1.163-0.391-2.42-0.223-3.638,0.373c-0.2,0.086-0.396,0.156-0.586,0.259
				c-0.412,0.115-0.826,0.283-1.231,0.506c-2.297,0.763-4.558,3.263-5.714,6.683c-1.597,4.743-0.457,9.407,2.55,10.418
				c0.187,0.063,0.381,0.065,0.573,0.1c0.095,0.038,0.176,0.108,0.275,0.143c0.252,0.083,0.508,0.097,0.764,0.129
				c0.126,0.059,0.234,0.15,0.367,0.193c0.086,0.026,0.174,0.041,0.254,0.063c0.016,0.003,0.02,0.012,0.031,0.017
				c3.303,1.117,7.398-2.212,9.157-7.426C130.064,375.375,128.815,370.241,125.509,369.128z"/>
			<path fill="#6D6E71" d="M141.95,375.854c-0.691-0.232-1.409-0.259-2.136-0.129c-0.453,0.029-0.904,0.121-1.357,0.281
				c-0.581-0.07-1.176-0.034-1.771,0.143c-2.807-0.193-5.957,2.657-7.393,6.917c-1.596,4.744-0.459,9.408,2.547,10.418
				c0.244,0.084,0.5,0.098,0.754,0.129c0.212,0.121,0.414,0.261,0.654,0.343c0.326,0.109,0.663,0.146,1.005,0.168
				c0.275,0.177,0.553,0.352,0.87,0.458c0.105,0.034,0.219,0.055,0.328,0.082c0.05,0.019,0.09,0.057,0.141,0.073
				c3.3,1.112,7.398-2.216,9.163-7.426C146.499,382.099,145.251,376.967,141.95,375.854z"/>
			<path fill="#6D6E71" d="M125.658,413.444c-0.064-0.075-0.104-0.168-0.17-0.235c-0.225-0.218-0.482-0.373-0.742-0.532
				c-0.186-0.348-0.412-0.667-0.693-0.949c-0.169-0.161-0.371-0.268-0.556-0.396c-0.154-0.252-0.313-0.504-0.526-0.713
				c-2.248-2.228-6.927-1.144-10.445,2.417c-3.17,3.21-4.293,7.326-2.832,9.737c0.115,0.661,0.373,1.244,0.734,1.762
				c0.07,0.559,0.217,1.082,0.438,1.558c0.218,0.623,0.517,1.202,0.981,1.658c2.471,2.452,7.615,1.258,11.485-2.647
				c3.86-3.919,4.991-9.074,2.513-11.527C125.79,413.522,125.718,413.496,125.658,413.444z"/>
		</g>
		<g>
			<path fill="#58595B" d="M105.305,406.735c-3.389,3.422-7.894,4.468-10.061,2.321c-2.176-2.146-1.185-6.658,2.199-10.09
				c3.383-3.424,7.892-4.466,10.059-2.323C109.673,398.79,108.682,403.303,105.305,406.735z"/>
			<path fill="#58595B" d="M124.059,380.624c-1.541,4.564-5.129,7.479-8.024,6.503c-2.893-0.974-3.986-5.464-2.446-10.031
				c1.535-4.561,5.123-7.481,8.011-6.506C124.496,371.567,125.588,376.059,124.059,380.624z"/>
			<path fill="#58595B" d="M138.453,386.514c-1.54,4.559-5.133,7.477-8.021,6.5c-2.898-0.974-3.987-5.463-2.454-10.03
				c1.541-4.564,5.129-7.479,8.016-6.503C138.889,377.453,139.983,381.947,138.453,386.514z"/>
			<path fill="#58595B" d="M121.949,350.281c1.33,4.63,0.045,9.074-2.89,9.915c-2.933,0.849-6.388-2.216-7.728-6.849
				c-1.336-4.624-0.047-9.065,2.883-9.91C117.148,342.59,120.609,345.657,121.949,350.281z"/>
			<path fill="#58595B" d="M135.904,345.703c1.335,4.628,0.045,9.069-2.883,9.91c-2.934,0.849-6.395-2.214-7.729-6.844
				c-1.336-4.625-0.052-9.067,2.882-9.915C131.109,338.01,134.566,341.075,135.904,345.703z"/>
			<path fill="#58595B" d="M119.7,419.604c-3.394,3.422-7.899,4.466-10.063,2.32c-2.172-2.146-1.185-6.658,2.203-10.089
				c3.383-3.426,7.887-4.467,10.058-2.323C124.07,411.658,123.079,416.17,119.7,419.604z"/>
		</g>
		<g>
			<path d="M102.359,433.943c2.081,1.703,4.18,3.376,6.322,5.002C106.539,437.32,104.44,435.646,102.359,433.943z"/>
			<path d="M82.532,415.396c1.849,1.974,3.742,3.899,5.667,5.797C86.274,419.297,84.381,417.369,82.532,415.396z"/>
			<path d="M89.949,422.877c1.402,1.35,2.816,2.685,4.25,3.994C92.766,425.562,91.352,424.227,89.949,422.877z"/>
			<path d="M96.145,428.618c1.493,1.331,3.01,2.632,4.54,3.92C99.154,431.252,97.638,429.949,96.145,428.618z"/>
			<path d="M162.359,376.688l-0.131-1.778l-0.033-0.445l-0.02-0.223l-0.006-0.109c0.003,0.763-0.015-1.163-0.02-1.021l-0.135-1.122
				c-0.188-1.5-0.355-2.998-0.577-4.487c-1.858-11.935-5.946-23.682-12.282-33.875c-6.313-10.203-14.664-18.888-24.516-25.133
				c-4.936-3.115-10.301-5.595-16.031-7.232c-5.689-1.665-11.944-2.325-18.287-1.479c-3.18,0.481-6.363,1.254-9.387,2.63
				c-1.374,0.531-3.372,1.657-4.971,2.652c-0.553,0.386-0.813,0.629-1.229,0.948l-0.569,0.455c-0.295,0.205,0.555-0.375-0.677,0.473
				l-0.085,0.082l-0.178,0.168l-0.345,0.336c-0.913,0.894-1.817,1.784-2.712,2.665l-1.313,1.321c-0.408,0.486-0.799,1.004-1.193,1.5
				c-0.769,1.003-1.527,1.998-2.275,2.985c-0.75,0.97-1.313,2.155-1.936,3.209c-2.557,4.232-3.783,9.047-4.424,13.425
				c-0.068,1.113-0.128,2.208-0.191,3.288c-0.013,0.536-0.031,1.068-0.049,1.594c0.036,0.522,0.082,1.042,0.117,1.558
				c0.092,1.026,0.173,2.034,0.295,3.011c0.156,0.972,0.414,1.907,0.618,2.825c1.799,7.341,5.347,12.641,8.815,16.295
				c0.805,0.954,1.789,1.71,2.607,2.457c0.805,0.759,1.713,1.354,2.52,1.908c1.486,1.117,3.299,1.989,4.602,2.593
				c0.705,0.369,1.117,0.405,1.549,0.541c0.414,0.116,0.768,0.213,1.049,0.291c0.559,0.154,0.855,0.236,0.855,0.236
				c1.406,0.391,2.977-0.072,3.94-1.294c1.281-1.625,0.999-3.978-0.631-5.259l-0.015-0.014c0,0-0.236-0.184-0.695-0.547
				c-0.23-0.179-0.516-0.407-0.859-0.672c-0.308-0.265-0.825-0.583-0.988-0.919c-0.867-1.14-2.635-3.333-3.956-6.417
				c-1.326-3.062-2.279-7.135-1.915-11.291c0.063-0.518,0.066-1.035,0.156-1.548c0.143-0.512,0.242-1.018,0.352-1.527l0.15-0.758
				l0.285-0.731c0.191-0.486,0.373-0.97,0.54-1.456c0.994-1.851,2.049-3.604,3.726-5.127c1.457-1.604,3.618-2.913,5.899-4.176
				l0.208-0.123c0,0,0.596-0.195,0.796-0.245c0.208-0.05,0.744-0.137,0.858-0.139h0.268c0.055-0.006,0.123,0.007,0.177,0h-0.003
				c30.373-7.007,53.57,20.999,53.57,50.563c0,12.215-1.744,22.683-6.98,33.153c-3.488,8.722-12.212,17.444-20.936,22.681
				c-2.271,2.016-4.625,3.869-7.035,5.595c5.795,4.392,11.821,8.484,18.071,12.253c0.737-0.694,1.485-1.394,2.215-2.116
				c3.77-3.607,7.431-7.621,10.942-11.956c6.983-8.69,13.487-18.9,17.783-30.998c2.168-6.004,3.721-12.48,4.324-19.184
				c0.207-1.537,0.285-3.624,0.354-5.536l0.06-2.901C162.454,377.799,162.396,377.312,162.359,376.688z"/>
		</g>
		<g>
			<path fill="#6D6E71" d="M147.164,241.378c0.357-2.574-0.079-4.861-1.427-6.076c-2.339-2.13-6.476-0.184-9.228,4.326
				c-1.818,2.979-2.554,6.313-2.19,8.861c-0.104,0.845-0.124,1.651-0.021,2.391c-0.083,0.688-0.103,1.353-0.033,1.962
				c-0.194,1.971,0.282,3.685,1.512,4.635c2.345,1.814,6.478,0.156,9.235-3.699c1.77-2.499,2.524-5.292,2.211-7.456
				c0.09-0.788,0.081-1.533-0.031-2.219C147.318,243.127,147.309,242.21,147.164,241.378z"/>
			<path fill="#6D6E71" d="M51.004,270.504c-6.99-2.68-13.778-0.483-15.176,4.907c-0.211,0.802-0.27,1.628-0.229,2.464
				c-0.013,0.254-0.013,0.513,0,0.768c-0.013,0.21-0.013,0.42-0.004,0.628c-0.178,4.263,4.096,8.963,10.354,11.018
				c6.985,2.282,13.784,0.42,15.175-4.192c0.194-0.624,0.264-1.269,0.244-1.918c0.004-0.127,0-0.255-0.005-0.382
				c0.005-0.155,0.005-0.309,0-0.463C61.506,278.36,57.23,272.897,51.004,270.504z"/>
			<path fill="#6D6E71" d="M55.582,232.802c-6.988-2.682-13.779-0.487-15.172,4.907c-0.305,1.163-0.313,2.385-0.096,3.606
				c-0.182,0.899-0.191,1.824-0.037,2.754c-0.136,0.736-0.154,1.493-0.036,2.25c-0.722,4.44,3.685,9.556,10.291,11.727
				c6.985,2.279,13.779,0.42,15.175-4.192c0.258-0.844,0.309-1.724,0.189-2.609c0.09-0.67,0.073-1.348-0.031-2.037
				c0.121-0.804,0.104-1.63-0.033-2.461C66.717,241.502,62.285,235.375,55.582,232.802z"/>
			<path fill="#6D6E71" d="M98.459,281.294c-0.375-5.073-6.025-8.583-12.603-7.848c-6.38,0.718-11.278,5.164-11.226,10.06
				c-0.006,0.141,0,0.289,0,0.431c-0.006,0.118,0,0.234,0,0.35c-0.02,0.276-0.02,0.559,0.007,0.835
				c0.378,4.337,6.029,7.344,12.608,6.712c6.336-0.621,11.223-4.373,11.223-8.533c0.009-0.152,0-0.304-0.004-0.458
				c0.013-0.182,0.004-0.366,0-0.552C98.482,281.962,98.487,281.628,98.459,281.294z"/>
			<path fill="#6D6E71" d="M90.426,247.473c-6.549-1.099-12.312,2.099-12.893,7.149c-0.074,0.649-0.057,1.299,0.045,1.937
				c-0.015,0.075-0.033,0.148-0.045,0.226c-0.064,0.563-0.057,1.126,0.025,1.682c-0.01,0.038-0.017,0.076-0.025,0.116
				c-0.06,0.472-0.045,0.943,0.009,1.411c0,0.011-0.005,0.02-0.009,0.029c-0.577,4.31,4.268,8.574,10.813,9.517
				c6.545,0.934,12.322-1.787,12.889-6.11c0.061-0.432,0.051-0.863,0-1.292c0.064-0.511,0.055-1.015-0.014-1.52
				c0-0.029,0.01-0.054,0.014-0.082c0.072-0.595,0.061-1.186-0.027-1.768c0.004-0.054,0.019-0.108,0.027-0.162
				C101.816,253.563,96.967,248.575,90.426,247.473z"/>
			<path fill="#6D6E71" d="M126.748,263.778c-1.604-3.52-6.602-3.855-11.162-0.765c-3.762,2.555-5.998,6.638-5.777,9.968
				c-0.036,0.341-0.021,0.67-0.006,0.995c-0.03,0.274-0.014,0.538-0.002,0.804c-0.1,0.952,0.031,1.855,0.453,2.652
				c1.604,3,6.608,3.291,11.168,0.647c3.742-2.18,5.985-5.656,5.776-8.498c0.04-0.399,0.033-0.785-0.009-1.162
				c0.055-0.483,0.049-0.949-0.004-1.408C127.308,265.853,127.193,264.743,126.748,263.778z"/>
		</g>
		<g>
			<path fill="#58595B" d="M45.95,290.355c-6.984-2.207-11.522-7.58-10.122-11.997c1.397-4.431,8.186-6.231,15.176-4.03
				c6.981,2.203,11.523,7.579,10.121,11.999C59.734,290.76,52.936,292.544,45.95,290.355z"/>
			<path fill="#58595B" d="M50.532,259.384c-6.989-2.205-11.527-7.578-10.122-11.995c1.393-4.431,8.184-6.231,15.172-4.03
				c6.985,2.203,11.521,7.58,10.125,11.999C64.312,259.788,57.518,261.576,50.532,259.384z"/>
			<path fill="#58595B" d="M87.246,291.838c-6.579,0.604-12.23-2.28-12.608-6.442c-0.384-4.174,4.632-8.043,11.219-8.652
				c6.577-0.604,12.228,2.28,12.603,6.45C98.85,287.362,93.818,291.218,87.246,291.838z"/>
			<path fill="#58595B" d="M88.346,270.424c-6.545-0.906-11.39-5.002-10.813-9.143c0.581-4.148,6.344-6.775,12.893-5.874
				c6.541,0.908,11.391,5.005,10.809,9.147C100.668,268.705,94.891,271.319,88.346,270.424z"/>
			<path fill="#58595B" d="M121.422,278.629c-4.56,2.539-9.564,2.257-11.168-0.625c-1.607-2.891,0.775-7.287,5.332-9.83
				c4.561-2.539,9.559-2.262,11.162,0.626C128.365,271.689,125.967,276.081,121.422,278.629z"/>
			<path fill="#58595B" d="M145.012,255.283c-2.758,3.706-6.891,5.298-9.235,3.554c-2.352-1.742-2.024-6.16,0.733-9.871
				c2.752-3.704,6.889-5.297,9.228-3.549C148.098,247.156,147.754,251.573,145.012,255.283z"/>
		</g>
		<g>
			<path d="M29.502,240.026c-0.32,1.918-0.619,3.842-0.883,5.774C28.883,243.868,29.182,241.944,29.502,240.026z"/>
			<path d="M28.297,248.318c-0.209,1.703-0.398,3.411-0.572,5.123C27.898,251.729,28.088,250.021,28.297,248.318z"/>
			<path d="M31.24,230.738c-0.54,2.516-1.026,5.05-1.473,7.597C30.214,235.788,30.7,233.254,31.24,230.738z"/>
			<path d="M27.476,256.13c-0.155,1.762-0.278,3.538-0.382,5.315C27.197,259.668,27.32,257.892,27.476,256.13z"/>
			<path d="M32.961,223.368c-0.604,2.402-1.176,4.815-1.693,7.248C31.785,228.183,32.356,225.77,32.961,223.368z"/>
			<path d="M26.943,263.855c-0.121,2.563-0.213,5.136-0.244,7.725C26.73,268.991,26.822,266.418,26.943,263.855z"/>
			<path d="M165.188,174.491c-0.071,0.245-0.145,0.491-0.217,0.74C165.043,174.981,165.116,174.736,165.188,174.491z"/>
			<path d="M233.32,149.253l-0.218-1.771c-0.085-0.579-0.185-1.237-0.29-1.669c-0.413-1.939-0.976-3.861-1.743-5.656
				c-2.989-7.284-8.447-13.401-15.61-17.748c-3.579-2.171-7.619-3.87-11.957-4.916c-4.343-1.034-8.975-1.362-13.58-0.977
				c-9.268,0.779-18.133,4.507-25.441,9.671c-3.701,2.598-6.99,5.554-10.009,8.761l-0.509,0.549l-0.661,0.754
				c-0.426,0.495-0.903,1.026-1.284,1.503c-0.734,0.95-1.484,1.898-2.17,2.897c-1.417,1.966-2.689,4.044-3.802,6.186
				c-2.257,4.278-4.015,8.725-5.259,13.116c-1.29,4.398-2.145,8.724-2.916,12.9c-1.431,8.38-2.488,16.292-4.428,23.793
				c-1.862,7.404-4.578,14.038-8.594,19.669c-3.925,5.625-9.006,9.999-14.354,12.215c-5.346,2.318-10.756,2.28-15.552,1.108
				c-2.415-0.575-4.774-1.531-7.09-2.623c-1.163-0.561-2.306-1.16-3.464-1.802c-0.582-0.334-1.146-0.627-1.73-1.006l-0.863-0.509
				c0,0-3.03-2.29-3.199-2.568c-0.299-0.357-0.594-0.693-0.88-1.002c-0.224-0.365-0.44-0.676-0.662-0.956
				c-0.74-1.26-0.958-2.272-0.995-3.186c-0.05-0.899,0.022-1.728,0.059-2.843c0.041-1.403,0.082-2.809,0.123-4.206
				c0.141-3.451,0.509-8.179,1.539-13.475c1.045-5.309,2.471-11.116,4.402-17.008c3.806-11.821,9.273-23.789,14.982-34.958
				c5.758-11.188,12.162-21.534,18.271-30.831c3.741-5.604,7.45-10.791,11.017-15.548c-32.209,19.508-58.64,47.576-76.193,81.033
				c4.836-9.21,10.34-18.016,16.457-26.345c-6.215,20.033-12.283,48.727-5.912,69.009c2.521,8.011,4.043,11.767,9.306,15.991
				c14.798,11.885,40.499,12.153,56.701,2.618c4.948-2.906,8.979-7.046,10.474-9.012c14.537-19.191,18.499-47.839,31.177-64.79
				c-0.003,0.011-0.007,0.022-0.015,0.032c0.798-1.729,1.638-3.336,2.541-4.792c0.717-1.141,1.457-2.216,2.234-3.243
				c0.377-0.52,0.799-1.003,1.205-1.499l0.502-0.591l0.238-0.288c0.062-0.084,0.284-0.312,0.42-0.458
				c2.012-2.089,3.993-4.081,6.014-5.666c3.984-3.302,7.929-5.532,11.74-6.406c3.781-0.901,7.534-0.64,10.955,0.639
				c3.404,1.263,6.283,3.64,7.965,5.96c0.445,0.58,0.75,1.151,1.035,1.692c0.098,0.182,0.09,0.162,0.137,0.205
				c0.046,0.036,0.096,0.068,0.16,0.109c0.057,0.241,0.118,0.604,0.182,0.896l0.088,0.466l0.024,0.114
				c-0.01-0.177,0.056,0.556-0.017-0.368l0.031,0.164c0.275,1.726,0.408,3.469,0.367,5.17c-0.1,3.408-0.969,6.563-2.104,9.215
				c-2.342,5.361-5.94,8.258-8.615,9.482c-1.32,0.647-2.593,0.945-3.17,1.102c-0.873,0.156-1.563,0.181-1.516,0.191
				c-2.444-0.135-4.529,1.734-4.665,4.173c-0.136,2.441,1.734,4.529,4.174,4.664c0.046-0.007,0.441,0.131,1.689,0.331
				c1.538,0.177,3.438,0.309,6.107-0.022c2.616-0.354,5.849-1.278,9.188-3.161c3.343-1.877,6.736-4.723,9.709-8.527
				c2.98-3.801,5.445-8.613,6.98-14.298c0.75-2.848,1.244-5.922,1.322-9.177C233.354,150.911,233.339,150.084,233.32,149.253z"/>
			<path d="M166.139,171.493c-0.043,0.114-0.073,0.232-0.118,0.343C166.065,171.725,166.096,171.607,166.139,171.493z"/>
			<path d="M46.75,185.158c1.039-2.174,2.117-4.327,3.227-6.458C48.867,180.831,47.789,182.984,46.75,185.158z"/>
			<path d="M37.38,208.343c-0.653,1.949-1.28,3.913-1.876,5.888C36.1,212.258,36.727,210.292,37.38,208.343z"/>
			<path d="M46.521,185.634c-3.291,6.946-6.207,14.099-8.719,21.442C40.317,199.732,43.225,192.578,46.521,185.634z"/>
			<path d="M34.988,215.967c-0.564,1.918-1.097,3.846-1.6,5.786C33.892,219.813,34.424,217.883,34.988,215.967z"/>
		</g>
		<g>
			<path fill="#6D6E71" d="M270.752,430.993c-0.279-5.688-3.424-10.163-7.033-9.984c-0.061,0.002-0.118,0.016-0.179,0.021
				c-0.235-0.022-0.466-0.032-0.707-0.021c-1.61,0.075-3.038,1.01-4.125,2.509c-3.075,1.336-5.183,5.633-4.919,10.621
				c0.313,5.924,3.825,10.573,7.859,10.386c0.108-0.006,0.212-0.027,0.314-0.039c0.273,0.036,0.541,0.052,0.819,0.039
				c2.36-0.106,4.354-2.005,5.487-4.812C269.927,437.781,270.93,434.572,270.752,430.993z"/>
			<path fill="#6D6E71" d="M258.584,449.541c-0.293-0.022-0.578-0.009-0.87,0.022c-0.06-0.004-0.118-0.02-0.176-0.022
				c-2.436-0.174-4.724,1.468-6.295,4.138c-2.876,1.721-5.087,5.68-5.455,10.421c-0.505,6.56,2.698,12.119,7.161,12.414
				c0.382,0.028,0.754,0,1.127-0.047c0.119,0.017,0.229,0.042,0.34,0.047c3.271,0.237,6.287-2.666,7.758-6.962
				c1.521-1.979,2.588-4.836,2.824-8.075C265.444,455.175,262.583,449.825,258.584,449.541z"/>
			<path fill="#6D6E71" d="M277.337,423.457c-1.397,2.032-2.197,4.93-2.03,8.118c0.311,5.922,3.826,10.573,7.857,10.386
				c0.019-0.002,0.037-0.004,0.061-0.008c0.08,0,0.168,0.013,0.248,0.008c3.711-0.17,6.514-4.738,6.479-10.341
				c0.007-0.257,0.017-0.513,0.017-0.776c0.073-0.747,0.101-1.521,0.06-2.314c-0.285-5.688-3.43-10.164-7.041-9.987
				c-0.019,0.002-0.03,0.004-0.049,0.007c-0.072,0-0.141-0.01-0.215-0.007C280.372,418.654,278.401,420.6,277.337,423.457z"/>
			<path fill="#6D6E71" d="M288.934,461.758c0-0.236-0.01-0.468-0.02-0.699c0.022-0.6,0.02-1.19-0.017-1.762
				c0.384-6.229-2.454-11.491-6.419-11.774c-0.068-0.007-0.133,0.002-0.2,0.002l-0.009-0.002c-3.605-0.257-6.906,3.458-7.988,8.617
				c-0.821,1.703-1.377,3.697-1.544,5.858c-0.509,6.563,2.694,12.122,7.157,12.419c0.114,0.007,0.224-0.002,0.338-0.002l0.014,0.002
				c4.287,0.307,8.146-4.771,8.641-11.335c0.027-0.384,0.047-0.766,0.047-1.147C288.934,461.876,288.934,461.817,288.934,461.758z"
				/>
			<path fill="#6D6E71" d="M276.814,412.178c0.533,0.027,1.063-0.009,1.568-0.184c1.408-0.483,2.383-1.73,2.907-3.364
				c1.28-2.007,1.493-5.299,0.309-8.628c-1.495-4.178-4.651-6.94-7.423-6.708c-0.517-0.023-1.025,0.009-1.516,0.177
				c-0.563,0.195-1.031,0.54-1.455,0.953c-0.021,0.009-0.045,0.007-0.066,0.013c-3.298,1.09-4.461,5.914-2.603,10.76
				C270.202,409.546,273.723,412.416,276.814,412.178z"/>
			<path fill="#6D6E71" d="M259.14,416.32c0.681,0.095,1.357,0.082,1.995-0.137c0.938-0.326,1.68-1.012,2.238-1.903
				c2.806-1.171,3.782-5.686,2.156-10.25c-1.529-4.278-4.795-7.053-7.611-6.674c-0.627-0.075-1.253-0.062-1.844,0.143
				c-0.545,0.187-1.002,0.527-1.422,0.922c-0.496-0.005-0.982,0.048-1.447,0.205c-3.303,1.094-4.461,5.913-2.607,10.762
				C252.309,413.863,255.988,416.753,259.14,416.32z"/>
			<path fill="#6D6E71" d="M260.779,386.5c1.029,0.115,2.012-0.014,2.844-0.507c0.063-0.038,0.104-0.097,0.168-0.138
				c0.611-0.045,1.207-0.184,1.729-0.5c2.677-1.626,2.757-6.372,0.188-10.605c-2.119-3.467-5.351-5.47-7.925-5.191
				c-0.323-0.036-0.635-0.034-0.936-0.013c-0.219-0.019-0.428-0.023-0.637-0.019c-0.367-0.026-0.719,0-1.066,0.051
				c-1.1-0.137-2.149-0.01-3.035,0.49c-2.988,1.696-3.073,6.635-0.209,11.036C254.271,384.726,257.896,386.808,260.779,386.5z"/>
		</g>
		<g>
			<path fill="#58595B" d="M290.058,428.328c0.269,5.541-2.351,10.178-5.856,10.341c-3.512,0.173-6.577-4.175-6.85-9.719
				c-0.273-5.536,2.353-10.173,5.858-10.341C286.725,418.432,289.783,422.792,290.058,428.328z"/>
			<path fill="#58595B" d="M271.302,430.726c0.274,5.543-2.353,10.178-5.857,10.342c-3.512,0.174-6.577-4.176-6.849-9.72
				c-0.268-5.536,2.357-10.172,5.857-10.341C267.969,420.834,271.025,425.189,271.302,430.726z"/>
			<path fill="#58595B" d="M288.893,458.429c-0.445,6.14-3.951,10.893-7.84,10.605c-3.887-0.277-6.682-5.478-6.236-11.618
				c0.439-6.136,3.951-10.888,7.836-10.604C286.543,447.089,289.327,452.298,288.893,458.429z"/>
			<path fill="#58595B" d="M265.701,460.391c-0.447,6.14-3.951,10.893-7.838,10.604c-3.892-0.277-6.682-5.477-6.238-11.617
				c0.443-6.135,3.951-10.889,7.833-10.604C263.35,449.051,266.133,454.26,265.701,460.391z"/>
			<path fill="#58595B" d="M281.857,400.563c1.615,4.539,0.603,9.049-2.271,10.068c-2.875,1.029-6.513-1.819-8.136-6.355
				c-1.614-4.538-0.607-9.048,2.269-10.069C276.597,393.176,280.235,396.028,281.857,400.563z"/>
			<path fill="#58595B" d="M266.221,404.48c1.617,4.539,0.599,9.051-2.271,10.071c-2.875,1.029-6.518-1.819-8.139-6.356
				c-1.615-4.538-0.604-9.049,2.271-10.069C260.955,397.095,264.595,399.947,266.221,404.48z"/>
			<path fill="#58595B" d="M266.389,375.986c2.504,4.119,2.426,8.74-0.183,10.32c-2.612,1.588-6.748-0.46-9.259-4.575
				c-2.498-4.114-2.422-8.737,0.186-10.323C259.745,369.821,263.881,371.874,266.389,375.986z"/>
		</g>
		<path d="M233.406,46.979C107.983,46.979,6.31,148.653,6.31,274.073c0,125.419,101.674,227.094,227.097,227.094
			c125.416,0,227.094-101.675,227.094-227.094C460.5,148.653,358.822,46.979,233.406,46.979z M233.406,480.81
			c-114.184,0-206.74-92.559-206.74-206.736c0-114.177,92.557-206.736,206.74-206.736c114.176,0,206.738,92.559,206.738,206.736
			C440.145,388.251,347.582,480.81,233.406,480.81z"/>
	</g>
</g>
<g id="Layer_4">
</g>
</svg>
