<svg width="460" height="460" xmlns="http://www.w3.org/2000/svg">

 <g>
  <title>background</title>
  <rect fill="none" id="canvas_background" height="462" width="462" y="-1" x="-1"/>
 </g>
 <g>
  <title>Layer 1</title>
  <g display="none" id="Extras"/>
  <g id="Fonts"/>
  <g id="Logos">
   <g id="svg_1">
    <path id="svg_2" d="m407.328334,119.828272c0.035,0.103 0.068,0.191 0.104,0.298c2.325,6.847 5.427,16.992 7.72,29.253c1.137,6.118 2.084,12.774 2.471,19.688c0.393,6.907 0.323,14.107 -0.638,21.144c-0.479,3.513 -1.13,7.02 -2.112,10.356c-0.955,3.36 -2.119,6.649 -3.658,9.682l-0.549,1.16l-0.49,0.903l-0.473,0.936l-0.229,0.482c-0.123,0.196 -0.324,0.462 -0.488,0.688l-2.012,2.845l-0.133,0.177c0.777,-0.869 0.189,-0.206 0.349,-0.383l-0.052,0.057l-0.196,0.242l-0.402,0.483l-0.792,0.977l-1.59,2.005l-1.797,1.747c-0.621,0.563 -1.155,1.277 -1.836,1.752l-2,1.558l-1.003,0.806c-0.349,0.235 -0.723,0.436 -1.086,0.662l-2.188,1.358c-0.717,0.5 -1.55,0.751 -2.321,1.157c-0.789,0.35 -1.559,0.805 -2.382,1.102l-2.503,0.869c-0.42,0.145 -0.833,0.313 -1.266,0.443l-1.297,0.306l-2.625,0.645l-2.682,0.382c-1.799,0.359 -3.611,0.276 -5.44,0.428c-0.909,0.013 -1.81,-0.067 -2.72,-0.088c-0.916,-0.02 -1.832,-0.05 -2.711,-0.202l-2.685,-0.333l-2.573,-0.569c-0.895,-0.15 -1.686,-0.43 -2.5,-0.688c-0.79,-0.275 -1.682,-0.464 -2.38,-0.821c-0.737,-0.316 -1.476,-0.626 -2.206,-0.939c-0.463,-0.259 -0.957,-0.48 -1.49,-0.684l-0.209,-0.075c-0.084,-0.059 -0.199,-0.166 -0.304,-0.244l-0.61,-0.497c14.84,24.887 51.666,12.828 70.381,-3.871c6.972,-7.129 11.517,-14.61 15.27,-22.211c-0.289,-1.903 -0.567,-3.806 -0.908,-5.711c-5.087,-28.484 -15.792,-54.548 -30.759,-77.275z" fill="#808285"/>
    <path id="svg_3" d="m423.727334,225.025272c-18.715,16.699 -55.541,28.758 -70.381,3.871l-0.007,-0.013l-1.249,-1.021l-0.311,-0.251l-0.151,-0.129l-0.081,-0.063c0.909,0.976 0.229,0.238 0.418,0.446l-0.412,-0.416l-0.836,-0.825c-2.162,-2.239 -3.833,-4.86 -4.876,-7.608c-2.14,-5.51 -1.645,-11.338 1.188,-15.308c0.354,-0.501 0.785,-0.938 1.153,-1.429c0.387,-0.47 0.753,-0.697 1.106,-1.1l0.266,-0.284c0.125,-0.101 0.342,-0.218 0.505,-0.326l1.042,-0.662l0.524,-0.328l0.259,-0.161l0.123,-0.083l0.066,-0.038c-0.159,0.074 -0.244,0.117 -0.285,0.137c0.033,-0.017 0.064,-0.034 0.021,-0.013l0.861,-0.417c2.285,-1.161 4.545,-1.851 6.676,-1.894c4.268,-0.167 8.096,1.792 10.693,4.188c2.658,2.335 4.338,4.895 5.304,6.517c0.495,0.77 0.87,1.588 1.122,2.088c0.252,0.509 0.374,0.769 0.374,0.769c0.591,1.186 1.976,1.785 3.261,1.348c1.398,-0.473 2.148,-1.992 1.671,-3.392c0,0 -0.09,-0.279 -0.274,-0.813c-0.19,-0.543 -0.411,-1.297 -0.929,-2.468c-0.976,-2.271 -2.458,-5.413 -5.505,-8.962c-1.518,-1.751 -3.438,-3.59 -5.988,-5.114c-2.497,-1.56 -5.64,-2.833 -9.2,-3.261c-3.56,-0.477 -7.392,0.061 -11.016,1.24c-0.46,0.146 -0.927,0.293 -1.39,0.441c-0.481,0.216 -0.965,0.431 -1.454,0.647l-1.132,0.497c-0.202,0.091 -0.365,0.147 -0.589,0.27l-0.749,0.447c-0.979,0.616 -2.089,1.257 -2.95,1.956c-0.847,0.714 -1.746,1.41 -2.56,2.208c-3.275,3.212 -5.771,7.555 -7.036,12.312c-1.281,4.76 -1.393,9.897 -0.447,14.917c0.96,5.022 2.975,9.941 5.869,14.429l1.132,1.663l0.578,0.831c0.229,0.257 -0.424,-0.423 0.541,0.597l0.063,0.077l0.129,0.153l0.257,0.304l1.046,1.22l0.523,0.617c0.094,0.104 0.162,0.196 0.273,0.311l0.443,0.406c1.189,1.08 2.432,2.147 3.71,3.18c1.153,0.836 2.272,1.569 3.439,2.351c1.151,0.833 2.346,1.379 3.54,2.052c1.199,0.647 2.416,1.312 3.662,1.798c1.248,0.525 2.5,1.048 3.75,1.577c1.289,0.418 2.573,0.836 3.863,1.251c1.297,0.454 2.617,0.768 3.947,1.061c1.328,0.293 2.669,0.634 4.02,0.871c2.721,0.345 5.469,0.878 8.266,0.913c1.4,0.062 2.803,0.136 4.213,0.161l4.262,-0.197l2.145,-0.122c0.707,-0.073 1.424,-0.193 2.136,-0.289l4.3,-0.655c1.43,-0.244 2.832,-0.673 4.259,-1.018c1.411,-0.404 2.88,-0.671 4.255,-1.216l4.166,-1.563c0.695,-0.272 1.398,-0.524 2.081,-0.82l2.001,-1l4.002,-2.057c1.346,-0.67 2.525,-1.582 3.799,-2.379l3.74,-2.515c1.153,-0.929 2.287,-1.891 3.426,-2.85l1.709,-1.449l0.852,-0.73l0.428,-0.369l0.104,-0.094c0.209,-0.226 -0.322,0.388 0.499,-0.537l0.156,-0.152l2.489,-2.442c0.216,-0.215 0.4,-0.379 0.643,-0.637l0.791,-0.917l1.584,-1.851l1.563,-1.871l1.312,-1.747c0.261,-0.343 0.493,-0.693 0.75,-1.039c-0.224,-8.417 -0.989,-16.912 -2.271,-25.439c-3.754,7.602 -8.299,15.083 -15.27,22.212z" fill="#231F20"/>
    <g id="svg_4">
     <path id="svg_5" d="m418.637334,170.392272c0.375,0.084 0.758,0.118 1.142,0.096c0.435,0.129 0.879,0.197 1.329,0.196c0.188,0.04 0.382,0.068 0.576,0.083c0.491,0.088 0.984,0.101 1.477,0.02c3.62,-0.587 5.777,-5.705 4.854,-11.411c-0.946,-5.707 -4.641,-9.859 -8.254,-9.264c-0.084,0.012 -0.16,0.042 -0.242,0.061c-0.064,0.007 -0.123,0.004 -0.178,0.014c-0.184,0.031 -0.354,0.08 -0.527,0.132c-0.131,0.009 -0.259,0.009 -0.385,0.031c-0.268,0.044 -0.523,0.122 -0.771,0.212c-0.236,0.001 -0.469,0.015 -0.701,0.053c-0.186,0.029 -0.363,0.079 -0.532,0.131c-0.123,0.008 -0.253,0.008 -0.384,0.031c-3.418,0.559 -5.469,5.401 -4.582,10.804c0.836,5.071 3.963,8.839 7.178,8.811z" fill="#6D6E71"/>
     <path id="svg_6" d="m415.697334,197.680272c0.346,0.238 0.709,0.417 1.096,0.538c0.389,0.332 0.816,0.576 1.271,0.746c0.264,0.179 0.531,0.351 0.813,0.464c0.477,0.261 0.968,0.459 1.509,0.51c3.246,0.305 6.259,-3.614 6.743,-8.742c0.435,-4.72 -1.448,-8.792 -4.287,-9.648c-0.305,-0.13 -0.619,-0.196 -0.949,-0.246c-0.368,-0.165 -0.755,-0.27 -1.164,-0.308c-0.067,-0.006 -0.134,0.014 -0.197,0.011c-0.359,-0.183 -0.741,-0.307 -1.143,-0.368c-0.357,-0.157 -0.737,-0.26 -1.129,-0.296c-3.07,-0.286 -5.928,3.421 -6.379,8.273c-0.406,4.341 1.265,8.11 3.816,9.066z" fill="#6D6E71"/>
     <path id="svg_7" d="m378.144334,235.695272c-0.094,-0.435 -0.294,-0.852 -0.565,-1.25c-0.046,-0.453 -0.157,-0.9 -0.396,-1.318c-0.439,-2.089 -3.158,-3.847 -6.566,-4.073c-3.826,-0.265 -7.063,1.491 -7.228,3.912c-0.026,0.402 0.06,0.795 0.198,1.173c-0.005,0.444 0.102,0.872 0.293,1.286c-0.004,0.041 -0.022,0.074 -0.029,0.115c-0.027,0.416 0.061,0.816 0.203,1.211c0,0.28 0.03,0.565 0.113,0.84c0.313,2.305 3.234,4.268 6.956,4.528c4.038,0.268 7.462,-1.575 7.64,-4.149c0.031,-0.464 -0.081,-0.913 -0.25,-1.349c-0.079,-0.318 -0.195,-0.627 -0.369,-0.926z" fill="#6D6E71"/>
     <path id="svg_8" d="m439.205334,184.249272c0,0 -0.014,0.003 -0.021,0c-0.174,-0.042 -0.34,-0.114 -0.52,-0.133c-0.018,0 -0.031,0.001 -0.045,0c-0.359,-0.149 -0.734,-0.25 -1.121,-0.286c-0.146,-0.014 -0.291,0.025 -0.434,0.028c-0.455,-0.253 -0.939,-0.446 -1.458,-0.494c-0.019,-0.001 -0.03,0.004 -0.05,0.004c-0.357,-0.155 -0.73,-0.256 -1.121,-0.292c-3.066,-0.287 -5.923,3.422 -6.376,8.273c-0.42,4.494 1.386,8.358 4.095,9.141c0.447,0.3 0.931,0.507 1.448,0.607c0.458,0.377 0.97,0.618 1.511,0.774c0.283,0.189 0.577,0.354 0.883,0.467c0.471,0.251 0.954,0.443 1.48,0.492c3.252,0.306 6.266,-3.613 6.752,-8.742c0.469,-5.126 -1.775,-9.54 -5.023,-9.839z" fill="#6D6E71"/>
     <path id="svg_9" d="m418.022334,217.356272c1.744,-3.831 1.331,-7.794 -0.837,-9.294c-0.255,-0.239 -0.542,-0.432 -0.857,-0.582c-0.268,-0.254 -0.57,-0.468 -0.906,-0.621c-0.096,-0.042 -0.199,-0.05 -0.297,-0.083c-0.318,-0.367 -0.672,-0.681 -1.107,-0.88c-0.264,-0.244 -0.547,-0.456 -0.881,-0.604c-2.463,-1.129 -5.916,1.121 -7.689,5.025c-1.631,3.569 -1.282,7.261 0.683,8.733c0.278,0.394 0.626,0.709 1.021,0.951c0.264,0.449 0.6,0.814 0.995,1.108c0.184,0.258 0.386,0.492 0.622,0.691c0.32,0.353 0.682,0.666 1.113,0.866c2.612,1.198 6.251,-1.188 8.14,-5.31z" fill="#6D6E71"/>
     <path id="svg_10" d="m430.385334,214.354272c-0.005,-0.005 -0.005,-0.003 -0.005,-0.003c-0.159,-0.105 -0.304,-0.235 -0.477,-0.314c-0.036,-0.016 -0.079,-0.016 -0.118,-0.034c-0.275,-0.261 -0.58,-0.489 -0.932,-0.647c-0.168,-0.077 -0.347,-0.1 -0.525,-0.146c-0.33,-0.403 -0.707,-0.75 -1.178,-0.964c-0.045,-0.018 -0.089,-0.018 -0.135,-0.039c-0.269,-0.261 -0.572,-0.488 -0.912,-0.644c-2.472,-1.129 -5.92,1.122 -7.694,5.024c-1.692,3.711 -1.253,7.553 0.923,8.893c0.354,0.466 0.764,0.857 1.283,1.095l0,0c0.309,0.507 0.725,0.893 1.206,1.194c0.194,0.261 0.417,0.493 0.669,0.692c0.32,0.341 0.667,0.638 1.09,0.832c2.609,1.197 6.252,-1.188 8.141,-5.311c1.875,-4.122 1.295,-8.437 -1.336,-9.628z" fill="#6D6E71"/>
     <path id="svg_11" d="m407.024334,239.758272c-0.143,-0.212 -0.302,-0.413 -0.487,-0.584c-0.018,-0.042 -0.021,-0.086 -0.036,-0.13c-0.238,-0.478 -0.618,-0.855 -1.066,-1.17c-0.046,-0.165 -0.076,-0.338 -0.151,-0.499c-0.172,-0.343 -0.42,-0.627 -0.707,-0.885c-0.021,-0.046 -0.024,-0.097 -0.045,-0.141c-0.777,-1.593 -2.943,-2.228 -5.401,-1.803c0.979,-1.423 1.304,-2.944 0.702,-4.184c-0.146,-0.297 -0.334,-0.558 -0.566,-0.789c-0.117,-0.165 -0.221,-0.328 -0.362,-0.466c-0.016,-0.017 -0.016,-0.04 -0.022,-0.057c-0.214,-0.432 -0.546,-0.773 -0.932,-1.069c-0.041,-0.126 -0.053,-0.26 -0.117,-0.38c-0.154,-0.313 -0.373,-0.584 -0.627,-0.824c-0.004,-0.023 -0.01,-0.049 -0.019,-0.071c-1.063,-2.182 -4.724,-2.589 -8.17,-0.903c-3.452,1.682 -5.382,4.818 -4.315,7.001c0.088,0.163 0.206,0.298 0.313,0.44c0.044,0.184 0.078,0.367 0.166,0.538c0.126,0.268 0.302,0.505 0.498,0.718c0.045,0.303 0.131,0.595 0.269,0.871c0.079,0.165 0.199,0.298 0.309,0.442c0.045,0.181 0.081,0.366 0.161,0.539c0.041,0.074 0.102,0.129 0.144,0.204c0.032,0.082 0.037,0.17 0.082,0.25c0.84,1.741 3.236,2.407 5.933,1.875c-0.824,1.292 -1.064,2.653 -0.52,3.766c0.104,0.221 0.251,0.411 0.412,0.594c0.05,0.174 0.08,0.355 0.16,0.521c0.16,0.329 0.395,0.603 0.661,0.854c0.038,0.332 0.126,0.651 0.274,0.952c0.103,0.221 0.26,0.411 0.416,0.594c0.05,0.176 0.076,0.355 0.161,0.518c0.046,0.104 0.132,0.184 0.194,0.282c0.026,0.078 0.033,0.162 0.069,0.233c1.124,2.315 4.989,2.738 8.642,0.962c3.635,-1.785 5.678,-5.093 4.551,-7.405c-0.147,-0.297 -0.342,-0.561 -0.574,-0.794z" fill="#6D6E71"/>
    </g>
    <g id="svg_12">
     <path id="svg_13" d="m423.693334,159.546272c0.879,5.389 -1.16,10.218 -4.58,10.779c-3.416,0.563 -6.902,-3.354 -7.787,-8.746c-0.883,-5.388 1.16,-10.218 4.57,-10.776c3.422,-0.562 6.911,3.358 7.797,8.743z" fill="#58595B"/>
     <path id="svg_14" d="m422.863334,189.590272c-0.462,4.839 -3.306,8.542 -6.371,8.253c-3.07,-0.288 -5.189,-4.444 -4.741,-9.285c0.45,-4.841 3.301,-8.543 6.368,-8.258c3.068,0.289 5.187,4.45 4.744,9.29z" fill="#58595B"/>
     <path id="svg_15" d="m439.006334,192.317272c-0.459,4.843 -3.307,8.544 -6.374,8.254c-3.067,-0.287 -5.189,-4.442 -4.741,-9.287c0.456,-4.842 3.301,-8.541 6.369,-8.256c3.072,0.287 5.191,4.45 4.746,9.289z" fill="#58595B"/>
     <path id="svg_16" d="m414.259334,214.292272c-1.78,3.888 -5.216,6.14 -7.683,5.012c-2.473,-1.127 -3.027,-5.196 -1.244,-9.088c1.771,-3.894 5.211,-6.143 7.674,-5.016c2.477,1.127 3.023,5.2 1.253,9.092z" fill="#58595B"/>
     <path id="svg_17" d="m427.195334,220.547272c-1.781,3.89 -5.221,6.142 -7.688,5.011c-2.465,-1.125 -3.027,-5.196 -1.244,-9.085c1.775,-3.897 5.219,-6.143 7.677,-5.016c2.474,1.127 3.027,5.196 1.255,9.09z" fill="#58595B"/>
     <path id="svg_18" d="m392.787334,233.559272c-3.447,1.677 -7.092,1.276 -8.158,-0.905c-1.063,-2.176 0.861,-5.307 4.307,-6.985c3.437,-1.68 7.091,-1.273 8.151,0.899c1.065,2.187 -0.864,5.31 -4.3,6.991z" fill="#58595B"/>
     <path id="svg_19" d="m369.977334,237.670272c-3.817,-0.268 -6.783,-2.432 -6.612,-4.854c0.16,-2.417 3.391,-4.17 7.214,-3.907c3.82,0.254 6.775,2.43 6.612,4.844c-0.17,2.426 -3.398,4.17 -7.214,3.917z" fill="#58595B"/>
     <path id="svg_20" d="m400.121334,243.178272c-3.447,1.677 -7.094,1.278 -8.157,-0.905c-1.067,-2.175 0.858,-5.307 4.302,-6.983c3.441,-1.683 7.088,-1.276 8.15,0.899c1.063,2.187 -0.863,5.312 -4.295,6.989z" fill="#58595B"/>
    </g>
    <path id="svg_21" d="m423.727334,225.025272c-18.715,16.699 -55.541,28.758 -70.381,3.871l-0.007,-0.013l-1.249,-1.021l-0.311,-0.251l-0.151,-0.129l-0.081,-0.063c0.909,0.976 0.229,0.238 0.418,0.446l-0.412,-0.416l-0.836,-0.825c-2.162,-2.239 -3.833,-4.86 -4.876,-7.608c-2.14,-5.51 -1.645,-11.338 1.188,-15.308c0.354,-0.501 0.785,-0.938 1.153,-1.429c0.387,-0.47 0.753,-0.697 1.106,-1.1l0.266,-0.284c0.125,-0.101 0.342,-0.218 0.505,-0.326l1.042,-0.662l0.524,-0.328l0.259,-0.161l0.123,-0.083l0.066,-0.038c-0.159,0.074 -0.244,0.117 -0.285,0.137c0.033,-0.017 0.064,-0.034 0.021,-0.013l0.861,-0.417c2.285,-1.161 4.545,-1.851 6.676,-1.894c4.268,-0.167 8.096,1.792 10.693,4.188c2.658,2.335 4.338,4.895 5.304,6.517c0.495,0.77 0.87,1.588 1.122,2.088c0.252,0.509 0.374,0.769 0.374,0.769c0.591,1.186 1.976,1.785 3.261,1.348c1.398,-0.473 2.148,-1.992 1.671,-3.392c0,0 -0.09,-0.279 -0.274,-0.813c-0.19,-0.543 -0.411,-1.297 -0.929,-2.468c-0.976,-2.271 -2.458,-5.413 -5.505,-8.962c-1.518,-1.751 -3.438,-3.59 -5.988,-5.114c-2.497,-1.56 -5.64,-2.833 -9.2,-3.261c-3.56,-0.477 -7.392,0.061 -11.016,1.24c-0.46,0.146 -0.927,0.293 -1.39,0.441c-0.481,0.216 -0.965,0.431 -1.454,0.647l-1.132,0.497c-0.202,0.091 -0.365,0.147 -0.589,0.27l-0.749,0.447c-0.979,0.616 -2.089,1.257 -2.95,1.956c-0.847,0.714 -1.746,1.41 -2.56,2.208c-3.275,3.212 -5.771,7.555 -7.036,12.312c-1.281,4.76 -1.393,9.897 -0.447,14.917c0.96,5.022 2.975,9.941 5.869,14.429l1.132,1.663l0.578,0.831c0.229,0.257 -0.424,-0.423 0.541,0.597l0.063,0.077l0.129,0.153l0.257,0.304l1.046,1.22l0.523,0.617c0.094,0.104 0.162,0.196 0.273,0.311l0.443,0.406c1.189,1.08 2.432,2.147 3.71,3.18c1.153,0.836 2.272,1.569 3.439,2.351c1.151,0.833 2.346,1.379 3.54,2.052c1.199,0.647 2.416,1.312 3.662,1.798c1.248,0.525 2.5,1.048 3.75,1.577c1.289,0.418 2.573,0.836 3.863,1.251c1.297,0.454 2.617,0.768 3.947,1.061c1.328,0.293 2.669,0.634 4.02,0.871c2.721,0.345 5.469,0.878 8.266,0.913c1.4,0.062 2.803,0.136 4.213,0.161l4.262,-0.197l2.145,-0.122c0.707,-0.073 1.424,-0.193 2.136,-0.289l4.3,-0.655c1.43,-0.244 2.832,-0.673 4.259,-1.018c1.411,-0.404 2.88,-0.671 4.255,-1.216l4.166,-1.563c0.695,-0.272 1.398,-0.524 2.081,-0.82l2.001,-1l4.002,-2.057c1.346,-0.67 2.525,-1.582 3.799,-2.379l3.74,-2.515c1.153,-0.929 2.287,-1.891 3.426,-2.85l1.709,-1.449l0.852,-0.73l0.428,-0.369l0.104,-0.094c0.209,-0.226 -0.322,0.388 0.499,-0.537l0.156,-0.152l2.489,-2.442c0.216,-0.215 0.4,-0.379 0.643,-0.637l0.791,-0.917l1.584,-1.851l1.563,-1.871l1.312,-1.747c0.261,-0.343 0.493,-0.693 0.75,-1.039c-0.224,-8.417 -0.989,-16.912 -2.271,-25.439c-3.754,7.602 -8.299,15.083 -15.27,22.212z"/>
    <path id="svg_22" d="m354.613334,296.466272c-6.771,-15.748 -27.257,-15.316 -42.908,-8.917c1.99,-0.617 4.105,-0.95 6.34,-0.956c3.08,-0.017 6.313,0.61 9.287,1.819c0.741,0.298 1.467,0.635 2.177,1l0.261,0.138l0.066,0.036c0.295,0.123 -0.332,-0.132 -0.228,-0.084l0.199,0.109l0.81,0.434c0.681,0.339 0.689,0.456 0.943,0.637c1.082,0.792 2.406,1.854 3.453,2.976c4.342,4.576 7.07,11.184 7.928,18.348c0.43,3.594 0.503,7.301 0.18,11.047c-0.139,1.87 -0.388,3.748 -0.717,5.625c-0.145,0.93 -0.344,1.874 -0.526,2.804l-0.614,3.746c-1.621,10.469 -3.113,21.408 -2.162,34.22c0.52,6.377 1.73,13.298 4.295,20.336c2.539,7.022 6.547,14.015 11.411,19.85c0.134,0.15 0.27,0.289 0.401,0.445c9.431,-8.557 17.957,-17.917 25.552,-27.917c-19.561,-24.065 -14.338,-58.217 -26.148,-85.696z" fill="#808285"/>
    <g id="svg_23">
     <path id="svg_24" d="m365.609334,399.938272c0.344,-0.359 0.671,-0.725 1.016,-1.083c-0.345,0.358 -0.672,0.724 -1.016,1.083z" fill="#231F20"/>
     <path id="svg_25" d="m375.111334,389.270272c0.564,-0.68 1.115,-1.367 1.676,-2.058c-0.56,0.691 -1.111,1.378 -1.676,2.058z" fill="#231F20"/>
     <path id="svg_26" d="m369.973334,395.206272c0.496,-0.545 0.989,-1.095 1.473,-1.647c-0.484,0.552 -0.982,1.1 -1.473,1.647z" fill="#231F20"/>
     <path id="svg_27" d="m360.019334,405.554272c0.387,-0.374 0.772,-0.747 1.153,-1.125c-0.381,0.378 -0.767,0.751 -1.153,1.125z" fill="#231F20"/>
     <path id="svg_28" d="m314.135334,286.969272c0.393,-0.073 0.788,-0.139 1.191,-0.188c-0.4,0.052 -0.799,0.116 -1.191,0.188z" fill="#231F20"/>
     <path id="svg_29" d="m367.412334,284.067272c-4.158,-5.181 -9.062,-9.911 -14.76,-13.564c-2.87,-1.857 -5.727,-3.4 -9.018,-4.761c-0.852,-0.338 -1.924,-0.784 -2.366,-0.894l-0.876,-0.276l-0.216,-0.07c0.032,0.021 -0.669,-0.262 -0.444,-0.166l-0.146,-0.042l-0.591,-0.178c-1.565,-0.487 -3.141,-0.901 -4.726,-1.228c-6.336,-1.313 -12.773,-1.466 -19.005,-0.409c-6.227,1.059 -12.239,3.411 -17.354,6.901c-5.132,3.493 -9.197,8.099 -12.057,12.908c-1.407,2.427 -2.527,4.894 -3.445,7.337c-0.4,1.228 -0.857,2.439 -1.156,3.654l-0.481,1.801l-0.415,1.928c-0.313,1.399 -0.352,2.192 -0.516,3.236l-0.049,0.371c0.037,-0.16 -0.057,0.32 -0.057,0.311l-0.016,0.113l-0.021,0.225l-0.088,0.892l-0.163,1.774c-0.115,2.383 -0.146,4.727 0.1,7.046c0.4,4.619 1.668,9.042 3.512,12.894c1.893,3.84 4.349,7.126 7.093,9.664c5.486,5.144 11.676,7.462 16.722,8.221c5.105,0.765 9.132,0.061 11.717,-0.648c2.852,-0.82 3.692,-1.393 3.77,-1.371c1.58,-0.5 2.461,-2.197 1.96,-3.783c-0.502,-1.587 -2.194,-2.469 -3.784,-1.965c0.059,-0.044 -1.418,0.396 -3.166,0.474c-1.993,0.124 -5.002,0.003 -8.438,-1.285c-3.398,-1.259 -7.264,-3.693 -10.025,-7.622c-2.785,-3.881 -4.3,-9.084 -3.631,-14.841c0.121,-1.432 0.459,-2.913 0.821,-4.4l0.335,-1.123l0.17,-0.562l0.039,-0.142l0.025,-0.071c0.015,-0.068 -0.073,0.354 -0.021,0.133l0.114,-0.352c0.317,-0.89 0.655,-2.07 0.944,-2.599l0.432,-0.998l0.529,-1.097c0.322,-0.748 0.757,-1.41 1.12,-2.122c0.831,-1.349 1.726,-2.621 2.714,-3.767c2.91,-3.347 6.578,-5.54 10.785,-6.483c-0.536,0.123 -1.061,0.259 -1.578,0.42c15.651,-6.4 36.137,-6.831 42.908,8.917c11.81,27.479 6.587,61.63 26.147,85.697c-0.55,0.725 -1.116,1.441 -1.677,2.161c4.938,-6.327 9.51,-12.905 13.66,-19.727c-0.844,-1.136 -1.684,-2.604 -2.434,-4.459c-2.366,-5.675 -3.883,-14.239 -4.891,-23.415l-0.348,-3.646c-0.123,-1.538 -0.244,-3.071 -0.424,-4.615c-0.342,-3.083 -0.816,-6.17 -1.455,-9.259c-1.236,-6.171 -3.131,-12.325 -5.712,-18.266c-2.624,-5.931 -5.946,-11.658 -10.067,-16.872z" fill="#231F20"/>
     <path id="svg_30" d="m316.045334,286.700272c0.658,-0.061 1.319,-0.101 2,-0.106c-0.681,0.004 -1.342,0.044 -2,0.106z" fill="#231F20"/>
    </g>
    <g id="svg_31">
     <path id="svg_32" d="m343.601334,331.181272c0.935,0.011 1.82,-0.37 2.62,-0.99c0.14,-0.087 0.261,-0.219 0.399,-0.326c0.142,-0.087 0.267,-0.219 0.405,-0.324c0.137,-0.088 0.263,-0.224 0.396,-0.325c2.201,-1.394 3.816,-4.692 3.94,-8.556c0.14,-5.148 -2.425,-9.35 -5.747,-9.372c-2.083,-0.027 -3.963,1.6 -5.118,4.077c-0.097,0.181 -0.206,0.344 -0.299,0.534c-0.1,0.182 -0.209,0.342 -0.297,0.535c-0.097,0.18 -0.211,0.343 -0.299,0.535c-0.81,1.488 -1.339,3.348 -1.402,5.401c-0.143,4.844 2.268,8.784 5.402,8.811z" fill="#6D6E71"/>
     <path id="svg_33" d="m353.194334,297.350272c0.625,-0.343 1.069,-0.904 1.374,-1.587c0.218,-0.256 0.396,-0.549 0.541,-0.875c0.218,-0.255 0.395,-0.553 0.539,-0.876c0.215,-0.261 0.396,-0.553 0.538,-0.877c1.421,-1.709 1.356,-4.953 -0.327,-7.957c-1.998,-3.551 -5.494,-5.383 -7.821,-4.096c-0.876,0.481 -1.454,1.345 -1.732,2.424c-0.163,0.309 -0.294,0.653 -0.387,1.021c-0.163,0.307 -0.292,0.652 -0.384,1.019c-0.164,0.31 -0.295,0.655 -0.39,1.023c-0.916,1.699 -0.704,4.409 0.707,6.927c1.877,3.335 5.162,5.061 7.342,3.854z" fill="#6D6E71"/>
     <path id="svg_34" d="m332.933334,292.339272c-0.091,0.291 -0.147,0.599 -0.194,0.919c-0.549,1.778 -0.226,4.216 1.062,6.506c1.985,3.521 5.45,5.341 7.758,4.068c0.751,-0.416 1.257,-1.128 1.571,-1.998c0.14,-0.235 0.254,-0.497 0.352,-0.773c0.143,-0.236 0.257,-0.495 0.356,-0.773c0.146,-0.236 0.253,-0.497 0.354,-0.771c1.13,-1.895 0.947,-5.02 -0.684,-7.932c-2.119,-3.739 -5.804,-5.68 -8.257,-4.325c-1.101,0.609 -1.732,1.796 -1.937,3.244c-0.088,0.291 -0.145,0.596 -0.191,0.92c-0.086,0.286 -0.148,0.598 -0.19,0.915z" fill="#6D6E71"/>
     <path id="svg_35" d="m346.753334,377.141272c-0.129,-0.132 -0.26,-0.271 -0.396,-0.399c-0.13,-0.136 -0.264,-0.274 -0.398,-0.401c-2.113,-2.174 -4.67,-3.196 -6.934,-2.435c-3.799,1.272 -5.314,7.043 -3.381,12.884c0.159,0.494 0.35,0.965 0.551,1.426c0.076,0.202 0.158,0.393 0.242,0.589c0.078,0.202 0.161,0.396 0.242,0.593c0.076,0.199 0.161,0.396 0.246,0.591c2.218,5.684 6.865,9.189 10.721,7.896c4.039,-1.348 5.646,-7.486 3.592,-13.71c-0.912,-2.735 -2.382,-5.034 -4.08,-6.632c-0.133,-0.136 -0.267,-0.272 -0.405,-0.402z" fill="#6D6E71"/>
     <path id="svg_36" d="m349.137334,352.311272c0.301,-5.916 -2.541,-10.821 -6.373,-10.936c-0.779,-0.025 -1.538,0.165 -2.257,0.513c-0.103,0.041 -0.206,0.089 -0.304,0.136c-0.1,0.042 -0.199,0.089 -0.297,0.137c-0.102,0.042 -0.207,0.09 -0.304,0.137c-2.769,1.134 -4.958,4.947 -5.198,9.535c-0.219,4.305 1.34,8.005 3.718,9.527c0.088,0.06 0.183,0.105 0.274,0.161c0.091,0.066 0.182,0.11 0.277,0.168c0.086,0.064 0.184,0.105 0.271,0.166c0.818,0.593 1.73,0.943 2.713,0.974c3.82,0.119 7.169,-4.588 7.48,-10.518z" fill="#6D6E71"/>
     <path id="svg_37" d="m361.738334,340.012272c-0.379,0.027 -0.752,0.114 -1.109,0.238c-0.212,0.036 -0.406,0.091 -0.61,0.162c-0.204,0.039 -0.408,0.093 -0.604,0.161c-0.209,0.039 -0.414,0.096 -0.607,0.163c-3.161,0.594 -5.465,4.873 -5.204,9.881c0.249,4.781 2.733,8.545 5.745,9.021c0.199,0.065 0.402,0.106 0.607,0.142c0.205,0.062 0.405,0.106 0.615,0.141c0.203,0.06 0.406,0.103 0.611,0.136c0.521,0.166 1.061,0.264 1.609,0.227c3.622,-0.243 6.32,-4.986 6.028,-10.59c-0.294,-5.596 -3.455,-9.936 -7.081,-9.682z" fill="#6D6E71"/>
     <path id="svg_38" d="m364.609334,368.414272c-0.218,-0.103 -0.438,-0.188 -0.664,-0.264c-0.219,-0.102 -0.441,-0.189 -0.666,-0.265c-0.218,-0.101 -0.445,-0.19 -0.666,-0.264c-1.008,-0.475 -2.068,-0.65 -3.112,-0.437c-3.727,0.756 -5.842,6.035 -4.738,11.774c0.629,3.241 2.154,5.94 4.031,7.54c0.199,0.197 0.402,0.389 0.607,0.563c0.197,0.204 0.399,0.396 0.607,0.569c0.202,0.203 0.401,0.392 0.61,0.568c1.67,1.691 3.682,2.54 5.64,2.14c3.966,-0.799 6.21,-6.409 5.026,-12.525c-0.915,-4.744 -3.641,-8.395 -6.675,-9.399z" fill="#6D6E71"/>
     <path id="svg_39" d="m361.691334,308.360272c-1.205,0.151 -2.264,0.831 -3.105,1.873c-0.27,0.245 -0.516,0.512 -0.747,0.815c-0.187,0.196 -0.386,0.376 -0.562,0.607c-0.189,0.196 -0.391,0.374 -0.564,0.606c-1.713,1.727 -2.676,4.889 -2.285,8.38c0.564,4.965 3.619,8.652 6.844,8.238c0.586,-0.073 1.113,-0.314 1.623,-0.629c0.23,-0.095 0.448,-0.225 0.662,-0.357c0.209,-0.088 0.408,-0.2 0.605,-0.319c0.289,-0.11 0.576,-0.246 0.846,-0.424c2.768,-1.206 4.488,-5.363 3.965,-10.028c-0.602,-5.277 -3.858,-9.209 -7.282,-8.762z" fill="#6D6E71"/>
    </g>
    <g id="svg_40">
     <path id="svg_41" d="m346.799334,352.484272c-0.225,5.545 -3.25,9.925 -6.758,9.776c-3.516,-0.142 -6.178,-4.749 -5.951,-10.297c0.223,-5.538 3.26,-9.919 6.764,-9.772c3.513,0.14 6.171,4.755 5.945,10.293z" fill="#58595B"/>
     <path id="svg_42" d="m364.839334,350.216272c0.319,5.246 -2.112,9.662 -5.429,9.856c-3.33,0.203 -6.273,-3.885 -6.591,-9.131c-0.32,-5.234 2.118,-9.654 5.434,-9.852c3.325,-0.203 6.266,3.89 6.586,9.127z" fill="#58595B"/>
     <path id="svg_43" d="m349.032334,382.333272c1.94,5.841 0.524,11.576 -3.177,12.798c-3.696,1.234 -8.27,-2.5 -10.215,-8.339c-1.943,-5.838 -0.52,-11.572 3.176,-12.8c3.696,-1.232 8.264,2.511 10.216,8.341z" fill="#58595B"/>
     <path id="svg_44" d="m367.365334,376.563272c1.141,5.732 -0.873,10.964 -4.5,11.678c-3.633,0.725 -7.492,-3.332 -8.637,-9.062c-1.137,-5.725 0.881,-10.962 4.506,-11.676c3.626,-0.728 7.486,3.342 8.631,9.06z" fill="#58595B"/>
     <path id="svg_45" d="m348.549334,322.875272c-0.1,4.821 -2.646,8.679 -5.688,8.616c-3.059,-0.06 -5.45,-4.008 -5.358,-8.828c0.096,-4.813 2.635,-8.678 5.686,-8.611c3.05,0.056 5.442,4.011 5.36,8.823z" fill="#58595B"/>
     <path id="svg_46" d="m341.074334,295.590272c1.965,3.531 1.75,7.4 -0.484,8.641c-2.24,1.247 -5.637,-0.601 -7.607,-4.127c-1.963,-3.525 -1.758,-7.402 0.477,-8.638c2.237,-1.253 5.64,0.601 7.614,4.124z" fill="#58595B"/>
     <path id="svg_47" d="m352.348334,289.704272c1.867,3.344 1.664,7.009 -0.456,8.188c-2.124,1.18 -5.341,-0.573 -7.204,-3.913c-1.863,-3.339 -1.67,-7.009 0.449,-8.184c2.121,-1.184 5.338,0.57 7.211,3.909z" fill="#58595B"/>
     <path id="svg_48" d="m364.674334,319.732272c0.596,4.951 -1.458,9.272 -4.589,9.642c-3.142,0.378 -6.157,-3.324 -6.761,-8.273c-0.593,-4.947 1.462,-9.273 4.592,-9.641c3.135,-0.383 6.158,3.326 6.758,8.272z" fill="#58595B"/>
    </g>
    <g id="svg_49">
     <path id="svg_50" d="m365.609334,399.938272c0.344,-0.359 0.671,-0.725 1.016,-1.083c-0.345,0.358 -0.672,0.724 -1.016,1.083z"/>
     <path id="svg_51" d="m375.111334,389.270272c0.564,-0.68 1.115,-1.367 1.676,-2.058c-0.56,0.691 -1.111,1.378 -1.676,2.058z"/>
     <path id="svg_52" d="m369.973334,395.206272c0.496,-0.545 0.989,-1.095 1.473,-1.647c-0.484,0.552 -0.982,1.1 -1.473,1.647z"/>
     <path id="svg_53" d="m360.019334,405.554272c0.387,-0.374 0.772,-0.747 1.153,-1.125c-0.381,0.378 -0.767,0.751 -1.153,1.125z"/>
     <path id="svg_54" d="m314.135334,286.969272c0.393,-0.073 0.788,-0.139 1.191,-0.188c-0.4,0.052 -0.799,0.116 -1.191,0.188z"/>
     <path id="svg_55" d="m367.412334,284.067272c-4.158,-5.181 -9.062,-9.911 -14.76,-13.564c-2.87,-1.857 -5.727,-3.4 -9.018,-4.761c-0.852,-0.338 -1.924,-0.784 -2.366,-0.894l-0.876,-0.276l-0.216,-0.07c0.032,0.021 -0.669,-0.262 -0.444,-0.166l-0.146,-0.042l-0.591,-0.178c-1.565,-0.487 -3.141,-0.901 -4.726,-1.228c-6.336,-1.313 -12.773,-1.466 -19.005,-0.409c-6.227,1.059 -12.239,3.411 -17.354,6.901c-5.132,3.493 -9.197,8.099 -12.057,12.908c-1.407,2.427 -2.527,4.894 -3.445,7.337c-0.4,1.228 -0.857,2.439 -1.156,3.654l-0.481,1.801l-0.415,1.928c-0.313,1.399 -0.352,2.192 -0.516,3.236l-0.049,0.371c0.037,-0.16 -0.057,0.32 -0.057,0.311l-0.016,0.113l-0.021,0.225l-0.088,0.892l-0.163,1.774c-0.115,2.383 -0.146,4.727 0.1,7.046c0.4,4.619 1.668,9.042 3.512,12.894c1.893,3.84 4.349,7.126 7.093,9.664c5.486,5.144 11.676,7.462 16.722,8.221c5.105,0.765 9.132,0.061 11.717,-0.648c2.852,-0.82 3.692,-1.393 3.77,-1.371c1.58,-0.5 2.461,-2.197 1.96,-3.783c-0.502,-1.587 -2.194,-2.469 -3.784,-1.965c0.059,-0.044 -1.418,0.396 -3.166,0.474c-1.993,0.124 -5.002,0.003 -8.438,-1.285c-3.398,-1.259 -7.264,-3.693 -10.025,-7.622c-2.785,-3.881 -4.3,-9.084 -3.631,-14.841c0.121,-1.432 0.459,-2.913 0.821,-4.4l0.335,-1.123l0.17,-0.562l0.039,-0.142l0.025,-0.071c0.015,-0.068 -0.073,0.354 -0.021,0.133l0.114,-0.352c0.317,-0.89 0.655,-2.07 0.944,-2.599l0.432,-0.998l0.529,-1.097c0.322,-0.748 0.757,-1.41 1.12,-2.122c0.831,-1.349 1.726,-2.621 2.714,-3.767c2.91,-3.347 6.578,-5.54 10.785,-6.483c-0.536,0.123 -1.061,0.259 -1.578,0.42c15.651,-6.4 36.137,-6.831 42.908,8.917c11.81,27.479 6.587,61.63 26.147,85.697c-0.55,0.725 -1.116,1.441 -1.677,2.161c4.938,-6.327 9.51,-12.905 13.66,-19.727c-0.844,-1.136 -1.684,-2.604 -2.434,-4.459c-2.366,-5.675 -3.883,-14.239 -4.891,-23.415l-0.348,-3.646c-0.123,-1.538 -0.244,-3.071 -0.424,-4.615c-0.342,-3.083 -0.816,-6.17 -1.455,-9.259c-1.236,-6.171 -3.131,-12.325 -5.712,-18.266c-2.624,-5.931 -5.946,-11.658 -10.067,-16.872z"/>
     <path id="svg_56" d="m316.045334,286.700272c0.658,-0.061 1.319,-0.101 2,-0.106c-0.681,0.004 -1.342,0.044 -2,0.106z"/>
    </g>
    <path id="svg_57" d="m281.408334,379.165272c-0.218,-1.112 -0.495,-2.198 -0.744,-3.294l-0.396,-1.64l-0.199,-0.818l-0.1,-0.409l-0.05,-0.204c-0.509,-1.569 -1.14,-3.61 -1.14,-3.61l-0.49,-1.135c-0.072,-0.118 -0.196,-0.522 -0.309,-0.899l-0.35,-1.103c-0.475,-1.47 -0.963,-2.926 -1.482,-4.365c-0.253,-0.768 -0.521,-1.34 -0.785,-1.932l-0.807,-1.781c-4.233,-9.54 -10.346,-17.928 -16.592,-24.899c-6.326,-6.926 -12.882,-12.543 -19.039,-17.56c-6.158,-5.055 -11.992,-9.604 -17.635,-13.809c-11.189,-8.443 -21.1,-16.384 -27.326,-25.197c-0.394,-0.545 -0.744,-1.097 -1.122,-1.646l-0.28,-0.416l-0.133,-0.207l-0.073,-0.104c-0.157,-0.283 0.143,0.272 0.078,0.159l-0.667,-1.149l-0.795,-1.396c-0.272,-0.527 -0.55,-1.056 -0.799,-1.604c-1.039,-2.17 -1.787,-4.538 -2.402,-6.98c-1.218,-4.896 -1.568,-10.209 -1.091,-15.474c0.458,-5.265 1.689,-10.491 3.562,-15.319c1.889,-4.825 4.408,-9.242 7.365,-13.016c5.95,-7.573 13.506,-12.377 22.117,-14.097c0.537,-0.126 1.082,-0.208 1.625,-0.304l0.411,-0.073c-0.95,0.023 -0.183,0 -0.354,0l0.141,-0.011l0.28,-0.025l1.127,-0.1l1.121,-0.103c0.345,-0.026 0.832,-0.079 0.977,-0.072c0.427,-0.016 0.858,-0.039 1.296,-0.073c0.402,-0.057 0.93,-0.034 1.461,-0.016l1.58,0.036c1.014,0.141 2.076,0.136 3.062,0.358c2.031,0.267 3.925,0.883 5.842,1.458c1.829,0.725 3.688,1.458 5.344,2.508c6.751,3.992 11.89,10.325 14.726,16.898c3.009,6.558 3.918,13.207 3.91,18.702c-0.055,5.524 -0.959,9.968 -1.771,12.948c-0.359,1.517 -0.783,2.634 -1.031,3.408c-0.256,0.774 -0.391,1.172 -0.391,1.172l-0.09,0.276c-0.471,1.415 0.012,3.027 1.288,3.936c1.571,1.117 3.747,0.749 4.864,-0.818c0,0 0.273,-0.391 0.809,-1.14c0.522,-0.754 1.367,-1.855 2.281,-3.41c1.883,-3.066 4.425,-7.848 6.207,-14.608c0.84,-3.374 1.59,-7.232 1.768,-11.528c0.168,-4.292 -0.106,-9.011 -1.115,-14.011c-1.025,-4.991 -2.838,-10.241 -5.676,-15.436c-2.821,-5.191 -6.693,-10.341 -11.809,-14.758c-2.506,-2.277 -5.39,-4.23 -8.433,-6.097c-3.102,-1.737 -6.403,-3.363 -9.94,-4.472c-1.75,-0.655 -3.566,-1.042 -5.392,-1.546c-0.923,-0.182 -1.844,-0.363 -2.776,-0.549c-0.92,-0.177 -1.846,-0.354 -2.924,-0.454c-1.049,-0.108 -2.1,-0.218 -3.152,-0.327c-0.604,-0.063 -0.864,-0.065 -1.262,-0.096l-1.126,-0.067l-1.132,-0.072l-0.281,-0.019l-0.141,-0.01c-0.268,0.002 0.4,-0.022 -0.641,0.007l-0.717,0.002c-0.969,0.009 -1.937,0.009 -2.912,0.065c-7.798,0.366 -16.01,2.287 -23.583,5.952c-7.617,3.615 -14.513,8.891 -20.274,15.131c-5.732,6.278 -10.383,13.5 -13.797,21.276c-3.451,7.765 -5.79,16.061 -6.86,24.664c-1.056,8.592 -0.97,17.505 0.665,26.442c0.813,4.467 2.049,8.92 3.67,13.314c0.392,1.1 0.83,2.189 1.285,3.277c0.203,0.516 0.527,1.19 0.79,1.776l0.749,1.602l0.572,1.196l0.932,1.732c0.527,0.972 1.035,1.971 1.586,2.922c2.17,3.831 4.6,7.374 7.025,10.816c2.447,3.386 5.019,6.555 7.539,9.624c2.523,3.032 5.08,5.94 7.562,8.718c2.411,2.709 4.814,5.411 7.206,8.1c2.308,2.625 4.502,5.207 6.545,7.689c2.076,2.487 3.938,4.941 5.545,7.398c3.234,4.904 5.242,9.823 5.938,14.187c0.635,4.379 -0.133,8.089 -1.521,11.035c0,0 -0.679,1.673 -1.527,3.304c-0.871,1.675 -1.912,3.31 -2.021,3.528c-0.454,0.854 -0.764,1.712 -1.227,2.484c-3.452,6.299 -6.899,10.009 -10.463,13.788c-3.569,3.702 -7.616,7.307 -11.872,10.88c-4.25,3.554 -8.557,6.982 -12.344,10c-3.762,2.993 -7.086,5.673 -9.174,7.437c-0.183,0.159 -0.355,0.304 -0.533,0.452c22.622,8.503 47.119,13.163 72.715,13.163c15.751,0 31.084,-1.769 45.826,-5.104c0.836,-2.466 1.616,-4.981 2.293,-7.575c0.576,-2.071 1.034,-4.235 1.494,-6.381c0.404,-2.175 0.754,-4.383 1.075,-6.594c1.182,-8.901 1.173,-18.184 -0.062,-27.199c-0.278,-2.265 -0.716,-4.476 -1.124,-6.709z"/>
    <path id="svg_58" d="m282.531334,385.876272c-0.277,-2.266 -0.715,-4.478 -1.123,-6.71c-0.218,-1.112 -0.495,-2.198 -0.744,-3.294l-0.396,-1.64l-0.199,-0.818l-0.1,-0.409l-0.05,-0.204c-0.509,-1.569 -1.14,-3.61 -1.14,-3.61l-0.49,-1.135c-0.072,-0.118 -0.196,-0.522 -0.309,-0.899l-0.35,-1.103c-0.475,-1.47 -0.963,-2.926 -1.482,-4.365c-0.253,-0.768 -0.521,-1.34 -0.785,-1.932l-0.807,-1.781c-4.233,-9.54 -10.346,-17.928 -16.592,-24.899c-6.326,-6.926 -12.882,-12.543 -19.039,-17.56c-5.59,-4.585 -10.903,-8.743 -16.057,-12.617c8.731,9.713 15.758,20.564 18.76,32.57c9.602,35.213 7.434,80.681 -23.957,102.778c4.701,0.32 9.447,0.483 14.232,0.483c15.751,0 31.084,-1.769 45.826,-5.104c0.836,-2.466 1.616,-4.981 2.293,-7.575c0.576,-2.071 1.034,-4.235 1.494,-6.381c0.404,-2.175 0.754,-4.383 1.075,-6.594c1.183,-8.904 1.175,-18.186 -0.06,-27.201z" fill="#808285"/>
    <path id="svg_59" d="m135.197334,368.622272c5.236,-10.47 6.98,-20.938 6.98,-33.153c0,-29.565 -23.197,-57.571 -53.576,-50.563c0.639,-0.048 1.394,0.043 2.188,0.143c1.791,0.336 3.975,1.013 6.311,2.294c2.318,1.258 4.722,2.977 6.942,5.129c4.466,4.308 8.185,10.071 10.505,16.402c2.334,6.349 3.434,13.211 3.201,20.16l-0.157,2.611l-0.038,0.649c0,0.218 -0.019,-1.636 -0.012,-0.8l-0.014,0.114l-0.02,0.222l-0.045,0.442l-0.178,1.774c-0.064,0.559 -0.107,1.256 -0.189,1.698c-0.096,0.214 -0.191,0.425 -0.27,0.632c-0.182,0.44 -0.227,0.717 -0.514,1.494c-0.795,2.643 -2.02,5.234 -3.527,7.802c-2.967,5.127 -7.334,10.066 -12.344,14.449c-5.023,4.375 -10.632,8.277 -16.305,11.517c-1.039,0.583 -2.074,1.128 -3.106,1.676c8.039,8.582 16.808,16.47 26.196,23.582c2.41,-1.726 4.765,-3.579 7.035,-5.595c8.725,-5.235 17.449,-13.957 20.937,-22.679z" fill="#808285"/>
    <g id="svg_60">
     <path id="svg_61" d="m100.857334,391.863272c2.081,1.703 4.18,3.376 6.322,5.002c-2.142,-1.625 -4.241,-3.299 -6.322,-5.002z" fill="#231F20"/>
     <path id="svg_62" d="m81.030334,373.316272c1.849,1.974 3.742,3.899 5.667,5.797c-1.925,-1.896 -3.818,-3.824 -5.667,-5.797z" fill="#231F20"/>
     <path id="svg_63" d="m88.447334,380.797272c1.402,1.35 2.816,2.685 4.25,3.994c-1.433,-1.309 -2.847,-2.644 -4.25,-3.994z" fill="#231F20"/>
     <path id="svg_64" d="m94.643334,386.538272c1.493,1.331 3.01,2.632 4.54,3.92c-1.531,-1.286 -3.047,-2.589 -4.54,-3.92z" fill="#231F20"/>
     <path id="svg_65" d="m160.857334,334.608272l-0.131,-1.778l-0.033,-0.445l-0.02,-0.223l-0.006,-0.109c0.003,0.763 -0.015,-1.163 -0.02,-1.021l-0.135,-1.122c-0.188,-1.5 -0.355,-2.998 -0.577,-4.487c-1.858,-11.935 -5.946,-23.682 -12.282,-33.875c-6.313,-10.203 -14.664,-18.888 -24.516,-25.133c-4.936,-3.115 -10.301,-5.595 -16.031,-7.232c-5.689,-1.665 -11.944,-2.325 -18.287,-1.479c-3.18,0.481 -6.363,1.254 -9.387,2.63c-1.374,0.531 -3.372,1.657 -4.971,2.652c-0.553,0.386 -0.813,0.629 -1.229,0.948l-0.569,0.455c-0.295,0.205 0.555,-0.375 -0.677,0.473l-0.085,0.082l-0.178,0.168l-0.345,0.336c-0.913,0.894 -1.817,1.784 -2.712,2.665l-1.313,1.321c-0.408,0.486 -0.799,1.004 -1.193,1.5c-0.769,1.003 -1.527,1.998 -2.275,2.985c-0.75,0.97 -1.313,2.155 -1.936,3.209c-2.557,4.232 -3.783,9.047 -4.424,13.425c-0.068,1.113 -0.128,2.208 -0.191,3.288c-0.013,0.536 -0.031,1.068 -0.049,1.594c0.036,0.522 0.082,1.042 0.117,1.558c0.092,1.026 0.173,2.034 0.295,3.011c0.156,0.972 0.414,1.907 0.618,2.825c1.799,7.341 5.347,12.641 8.815,16.295c0.805,0.954 1.789,1.71 2.607,2.457c0.805,0.759 1.713,1.354 2.52,1.908c1.486,1.117 3.299,1.989 4.602,2.593c0.705,0.369 1.117,0.405 1.549,0.541c0.414,0.116 0.768,0.213 1.049,0.291c0.559,0.154 0.855,0.236 0.855,0.236c1.406,0.391 2.977,-0.072 3.94,-1.294c1.281,-1.625 0.999,-3.978 -0.631,-5.259l-0.015,-0.014c0,0 -0.236,-0.184 -0.695,-0.547c-0.23,-0.179 -0.516,-0.407 -0.859,-0.672c-0.308,-0.265 -0.825,-0.583 -0.988,-0.919c-0.867,-1.14 -2.635,-3.333 -3.956,-6.417c-1.326,-3.062 -2.279,-7.135 -1.915,-11.291c0.063,-0.518 0.066,-1.035 0.156,-1.548c0.143,-0.512 0.242,-1.018 0.352,-1.527l0.15,-0.758l0.285,-0.731c0.191,-0.486 0.373,-0.97 0.54,-1.456c0.994,-1.851 2.049,-3.604 3.726,-5.127c1.457,-1.604 3.618,-2.913 5.899,-4.176l0.208,-0.123c0,0 0.596,-0.195 0.796,-0.245c0.208,-0.05 0.744,-0.137 0.858,-0.139l0.268,0c0.055,-0.006 0.123,0.007 0.177,0l-0.003,0c30.373,-7.007 53.57,20.999 53.57,50.563c0,12.215 -1.744,22.683 -6.98,33.153c-3.488,8.722 -12.212,17.444 -20.936,22.681c-2.271,2.016 -4.625,3.869 -7.035,5.595c5.795,4.392 11.821,8.484 18.071,12.253c0.737,-0.694 1.485,-1.394 2.215,-2.116c3.77,-3.607 7.431,-7.621 10.942,-11.956c6.983,-8.69 13.487,-18.9 17.783,-30.998c2.168,-6.004 3.721,-12.48 4.324,-19.184c0.207,-1.537 0.285,-3.624 0.354,-5.536l0.06,-2.901c-0.021,-0.742 -0.079,-1.229 -0.116,-1.853z" fill="#231F20"/>
    </g>
    <path id="svg_66" d="m222.437334,59.796272c10.467,12.214 26.172,17.449 41.873,8.724c3.492,-3.487 3.492,-8.724 1.747,-12.212c-1.747,-1.744 -3.491,-3.49 -5.237,-3.49c-0.42,0 -0.871,-0.025 -1.334,-0.057c1.341,0.473 2.73,1.446 3.732,2.96c0.754,1.126 1.223,2.525 1.137,3.741c-0.05,0.384 -0.096,0.774 -0.145,1.169c-0.1,0.345 -0.16,0.556 -0.297,0.938c-0.254,0.676 -0.591,1.27 -1.032,1.787c-1.687,2.016 -5.493,3.133 -9.935,2.92c-2.209,-0.068 -4.542,-0.463 -6.894,-1.04c-1.177,-0.297 -2.354,-0.668 -3.523,-1.077c-0.202,-0.036 0.216,0.03 0.145,0.016l-0.063,-0.023l-0.129,-0.038l-0.258,-0.087l-0.514,-0.164c-0.223,-0.102 -0.305,-0.182 -0.46,-0.263c-0.371,-0.202 -0.802,-0.432 -1.193,-0.676c-3.192,-1.989 -5.868,-5.3 -7.483,-9.192c-1.659,-3.887 -2.3,-8.316 -1.928,-12.755c0.01,-0.274 0.041,-0.552 0.069,-0.833l0.045,-0.416l0.019,-0.207l0.004,-0.053c-0.013,-0.271 0.032,0.318 0.027,0.23l0.02,-0.148l0.121,-1.171c0.049,-0.366 0.072,-0.865 0.151,-1.013c0.257,-0.801 0.513,-1.914 0.852,-2.913c0.659,-1.999 1.519,-3.756 2.513,-5.296c0.954,-1.454 2.058,-2.696 3.27,-3.815c-1.943,-0.055 -3.881,-0.086 -5.832,-0.086c-5.504,0 -10.953,0.235 -16.344,0.658c-6.04,10.799 -2.227,26.297 6.876,33.882z" fill="#808285"/>
    <g id="svg_67">
     <path id="svg_68" d="m262.248334,54.545272c0.076,0.078 0.15,0.151 0.223,0.232c-0.073,-0.081 -0.147,-0.154 -0.223,-0.232z" fill="#231F20"/>
     <path id="svg_69" d="m261.595334,53.956272c-0.07,-0.055 -0.137,-0.112 -0.2,-0.164c0.063,0.052 0.129,0.108 0.2,0.164z" fill="#231F20"/>
     <path id="svg_70" d="m271.826334,60.113272c-0.004,-0.55 -0.061,-0.817 -0.096,-1.233c-0.435,-3.022 -1.809,-5.393 -3.379,-7.218c-3.156,-3.657 -7.52,-5.23 -11.137,-5.001c-1.802,0.109 -3.373,0.575 -4.591,1.172c-1.222,0.604 -2.148,1.257 -2.853,1.809c-1.554,1.315 -1.848,1.724 -1.917,1.751c-1.121,1.208 -1.054,3.098 0.149,4.219c1.211,1.124 3.1,1.058 4.219,-0.149c-0.035,0.063 0.605,-0.789 1.26,-1.361c0.813,-0.737 2.172,-1.626 3.982,-1.683c0.617,-0.032 1.316,0.087 2.026,0.341c0.462,0.032 0.909,0.057 1.329,0.057c1.746,0 3.49,1.747 5.237,3.49c1.745,3.488 1.745,8.725 -1.747,12.212c-15.701,8.725 -31.406,3.491 -41.873,-8.724c-9.104,-7.585 -12.916,-23.083 -6.877,-33.88c2.662,-0.209 5.332,-0.37 8.02,-0.481c-7.447,0.296 -14.795,0.981 -22.021,2.043c-0.041,1.722 -0.026,3.424 0.088,5.099c0.131,2.077 0.385,4.056 0.74,6.344c0.08,0.625 0.176,0.896 0.267,1.306l0.278,1.142l0.033,0.143c0,-0.041 0.052,0.595 0.043,0.373l0.02,0.091l0.076,0.373l0.163,0.737c0.109,0.492 0.212,0.983 0.345,1.474c1.967,7.825 5.528,15.4 10.76,21.591c5.195,6.179 12.146,10.965 19.923,12.902c0.978,0.246 1.926,0.427 2.952,0.588c0.541,0.08 1.16,0.171 1.635,0.216l0.545,0.018l0.269,0.011l0.136,0.006l0.064,0.003c-0.021,-0.005 0.436,0.065 0.277,0.034c1.65,0.012 3.282,-0.057 4.896,-0.164c3.219,-0.183 6.375,-0.697 9.444,-1.431c3.063,-0.772 6.067,-1.864 8.861,-3.524c2.757,-1.662 5.383,-4.032 6.861,-7.042c0.765,-1.474 1.231,-3.034 1.45,-4.528c0.113,-0.701 0.158,-1.583 0.168,-2.313l-0.025,-0.813z" fill="#231F20"/>
     <path id="svg_71" d="m231.904334,25.257272c-2.748,0 -5.48,0.061 -8.195,0.167c2.715,-0.108 5.447,-0.167 8.195,-0.167z" fill="#231F20"/>
    </g>
    <path id="svg_72" d="m280.015334,154.015272c10.763,15.105 29.878,17.664 47.327,10.686c5.232,-1.744 10.635,-7.555 13.521,-11.558c2.277,-3.166 4.287,-7.617 5.455,-11.34c3.672,-11.779 0,-24.429 -6.984,-33.151c-14.178,-14.181 -31.289,-24.25 -45.199,-37.02c6.604,9.281 14.068,17.693 21.5,25.473c6.338,6.285 10.609,13.134 11.971,20.28c0.676,3.585 0.654,7.312 -0.113,11.17c-0.791,3.84 -2.344,7.773 -4.482,11.531c-0.527,0.944 -1.104,1.872 -1.713,2.782c-0.592,0.906 -1.279,1.846 -1.795,2.554c-0.104,0.159 -0.332,0.434 -0.563,0.718l-0.666,0.818l-0.084,0.102c-0.153,0.174 0.115,-0.12 0.064,-0.066l-0.118,0.143l-0.239,0.293l-0.482,0.581c-0.664,0.754 -1.34,1.492 -2.05,2.18c-2.805,2.764 -5.925,4.896 -8.782,6.018c-2.884,1.105 -5.313,1.38 -7.865,0.926c-2.549,-0.472 -5.355,-1.998 -8.08,-4.337c-0.681,-0.595 -1.361,-1.199 -2.021,-1.876c-0.672,-0.69 -1.326,-1.367 -1.86,-2.003l-0.432,-0.481l-0.219,-0.241l-0.271,-0.364l-1.072,-1.43c-0.499,-0.582 -1.076,-1.454 -1.542,-2.162c-1.952,-2.989 -3.164,-5.916 -3.78,-8.609c-0.587,-2.704 -0.454,-5.202 0.208,-7.616c0.203,-0.731 0.48,-1.442 0.804,-2.137c-5.921,6.958 -6.11,20.175 -0.438,28.136z" fill="#808285"/>
    <g id="svg_73">
     <path id="svg_74" d="m280.137334,126.625272c-0.188,0.459 -0.357,0.919 -0.49,1.392c0.132,-0.473 0.307,-0.933 0.49,-1.392z" fill="#231F20"/>
     <path id="svg_75" d="m361.444334,114.163272c-0.417,-7.92 -2.298,-15.685 -5.191,-22.689c-2.893,-6.988 -6.725,-13.335 -10.735,-18.953c-3.174,-4.48 -5.932,-8.813 -8.484,-13.129c-1.538,-2.641 -2.928,-5.262 -4.21,-7.853c-17.997,-10.089 -37.659,-17.566 -58.472,-21.91c0.266,1.178 0.529,2.359 0.85,3.52c3.515,13.164 9.668,24.958 16.803,35.435c2.268,3.352 4.66,6.577 7.13,9.715c-1.706,-2.176 -3.382,-4.394 -4.999,-6.667c13.91,12.771 31.021,22.839 45.199,37.02c6.984,8.722 10.656,21.372 6.984,33.151c-1.168,3.724 -3.178,8.175 -5.455,11.34c-2.887,4.003 -8.289,9.814 -13.521,11.558c-17.449,6.978 -36.564,4.419 -47.327,-10.686c-5.672,-7.961 -5.482,-21.176 0.436,-28.136c0.731,-1.609 1.734,-3.127 2.907,-4.5c3.419,-3.946 8.064,-6.467 11.994,-7.648c3.982,-1.263 7.337,-1.276 9.537,-1.044c1.121,0.113 1.967,0.304 2.443,0.386c0.672,0.204 1.012,0.309 1.012,0.309l0.042,0.014c1.48,0.45 3.142,-0.077 4.069,-1.413c1.158,-1.657 0.748,-3.942 -0.914,-5.1c0,0 -0.303,-0.214 -0.889,-0.623c-0.805,-0.479 -1.868,-1.115 -3.344,-1.771c-2.959,-1.287 -7.662,-2.627 -13.711,-2.343c-5.988,0.313 -13.416,2.084 -20.66,7.441c-3.573,2.686 -7.029,6.401 -9.56,11.224c-2.593,4.79 -3.851,10.751 -3.624,16.672c0.214,5.945 1.936,11.74 4.41,16.958c0.64,1.349 1.235,2.525 2.043,3.931l0.859,1.571l0.213,0.395l0.311,0.494l0.611,0.983c0.831,1.358 1.689,2.582 2.561,3.794c0.883,1.227 1.863,2.439 2.891,3.646c4.159,4.755 9.838,9.438 17.252,12.169c3.68,1.351 7.707,2.155 11.74,2.269c4.037,0.117 8.038,-0.409 11.795,-1.395c7.547,-2.002 14.041,-5.704 19.701,-10.146c1.422,-1.115 2.775,-2.298 4.1,-3.52l0.979,-0.938l0.48,-0.47l0.24,-0.238l0.342,-0.353l0.74,-0.756c0.234,-0.238 0.482,-0.491 0.821,-0.872c1.317,-1.436 2.407,-2.688 3.507,-4.053c1.099,-1.35 2.166,-2.739 3.182,-4.183c4.074,-5.755 7.527,-12.281 9.857,-19.522c2.384,-7.199 3.527,-15.171 3.055,-23.084z" fill="#231F20"/>
     <path id="svg_76" d="m299.338334,78.557272c1.668,2.114 3.371,4.183 5.098,6.204c-1.727,-2.021 -3.43,-4.09 -5.098,-6.204z" fill="#231F20"/>
     <path id="svg_77" d="m315.635334,97.105272c-1.755,-1.832 -3.502,-3.706 -5.246,-5.613c1.744,1.904 3.491,3.781 5.246,5.613z" fill="#231F20"/>
     <path id="svg_78" d="m309.947334,91.014272c-1.726,-1.903 -3.447,-3.847 -5.146,-5.827c1.699,1.981 3.416,3.924 5.146,5.827z" fill="#231F20"/>
    </g>
    <path id="svg_79" d="m125.310334,197.343272c-16.202,9.535 -41.903,9.267 -56.701,-2.618c-5.263,-4.224 -6.784,-7.98 -9.306,-15.991c-6.371,-20.283 -0.303,-48.977 5.912,-69.009c-24.696,33.622 -39.487,74.979 -40.018,119.775c6.331,4.769 13.328,8.488 20.337,10.922c1.776,0.595 3.56,1.165 5.349,1.665c1.769,0.429 3.533,0.833 5.297,1.21c1.916,0.377 4.009,0.75 6.004,1.022l0.758,0.104l0.373,0.05l0.214,0.002l0.84,0l1.681,0.002l0.84,0l0.209,0.002c-0.791,-0.175 1.303,0.239 1.203,0.198l0.6,0.011l2.375,0.025c1.562,0.019 3.179,-0.058 4.771,-0.129c3.189,-0.139 6.414,-0.479 9.625,-0.979c6.42,-0.985 12.834,-2.721 18.921,-5.205c12.249,-4.884 22.833,-12.994 30.415,-22.09c15.34,-18.375 20.036,-38.894 22.961,-56.256c1.463,-8.557 2.793,-16.622 4.633,-23.698c1.207,-4.849 2.662,-9.129 4.358,-12.816c-12.678,16.951 -16.64,45.599 -31.177,64.79c-1.495,1.967 -5.526,6.107 -10.474,9.013z" fill="#808285"/>
    <g id="svg_80">
     <path id="svg_81" d="m28.000334,197.946272c-0.32,1.918 -0.619,3.842 -0.883,5.774c0.264,-1.932 0.563,-3.856 0.883,-5.774z" fill="#231F20"/>
     <path id="svg_82" d="m26.795334,206.238272c-0.209,1.703 -0.398,3.411 -0.572,5.123c0.173,-1.712 0.363,-3.42 0.572,-5.123z" fill="#231F20"/>
     <path id="svg_83" d="m29.738334,188.658272c-0.54,2.516 -1.026,5.05 -1.473,7.597c0.447,-2.547 0.933,-5.081 1.473,-7.597z" fill="#231F20"/>
     <path id="svg_84" d="m25.974334,214.050272c-0.155,1.762 -0.278,3.538 -0.382,5.315c0.103,-1.777 0.226,-3.553 0.382,-5.315z" fill="#231F20"/>
     <path id="svg_85" d="m31.459334,181.288272c-0.604,2.402 -1.176,4.815 -1.693,7.248c0.517,-2.433 1.088,-4.846 1.693,-7.248z" fill="#231F20"/>
     <path id="svg_86" d="m25.441334,221.775272c-0.121,2.563 -0.213,5.136 -0.244,7.725c0.031,-2.589 0.123,-5.162 0.244,-7.725z" fill="#231F20"/>
     <path id="svg_87" d="m163.686334,132.411272c-0.071,0.245 -0.145,0.491 -0.217,0.74c0.072,-0.25 0.145,-0.495 0.217,-0.74z" fill="#231F20"/>
     <path id="svg_88" d="m231.818334,107.173272l-0.218,-1.771c-0.085,-0.579 -0.185,-1.237 -0.29,-1.669c-0.413,-1.939 -0.976,-3.861 -1.743,-5.656c-2.989,-7.284 -8.447,-13.401 -15.61,-17.748c-3.579,-2.171 -7.619,-3.87 -11.957,-4.916c-4.343,-1.034 -8.975,-1.362 -13.58,-0.977c-9.268,0.779 -18.133,4.507 -25.441,9.671c-3.701,2.598 -6.99,5.554 -10.009,8.761l-0.509,0.549l-0.661,0.754c-0.426,0.495 -0.903,1.026 -1.284,1.503c-0.734,0.95 -1.484,1.898 -2.17,2.897c-1.417,1.966 -2.689,4.044 -3.802,6.186c-2.257,4.278 -4.015,8.725 -5.259,13.116c-1.29,4.398 -2.145,8.724 -2.916,12.9c-1.431,8.38 -2.488,16.292 -4.428,23.793c-1.862,7.404 -4.578,14.038 -8.594,19.669c-3.925,5.625 -9.006,9.999 -14.354,12.215c-5.346,2.318 -10.756,2.28 -15.552,1.108c-2.415,-0.575 -4.774,-1.531 -7.09,-2.623c-1.163,-0.561 -2.306,-1.16 -3.464,-1.802c-0.582,-0.334 -1.146,-0.627 -1.73,-1.006l-0.863,-0.509c0,0 -3.03,-2.29 -3.199,-2.568c-0.299,-0.357 -0.594,-0.693 -0.88,-1.002c-0.224,-0.365 -0.44,-0.676 -0.662,-0.956c-0.74,-1.26 -0.958,-2.272 -0.995,-3.186c-0.05,-0.899 0.022,-1.728 0.059,-2.843c0.041,-1.403 0.082,-2.809 0.123,-4.206c0.141,-3.451 0.509,-8.179 1.539,-13.475c1.045,-5.309 2.471,-11.116 4.402,-17.008c3.806,-11.821 9.273,-23.789 14.982,-34.958c5.758,-11.188 12.162,-21.534 18.271,-30.831c3.741,-5.604 7.45,-10.791 11.017,-15.548c-32.209,19.508 -58.64,47.576 -76.193,81.033c4.836,-9.21 10.34,-18.016 16.457,-26.345c-6.215,20.033 -12.283,48.727 -5.912,69.009c2.521,8.011 4.043,11.767 9.306,15.991c14.798,11.885 40.499,12.153 56.701,2.618c4.948,-2.906 8.979,-7.046 10.474,-9.012c14.537,-19.191 18.499,-47.839 31.177,-64.79c-0.003,0.011 -0.007,0.022 -0.015,0.032c0.798,-1.729 1.638,-3.336 2.541,-4.792c0.717,-1.141 1.457,-2.216 2.234,-3.243c0.377,-0.52 0.799,-1.003 1.205,-1.499l0.502,-0.591l0.238,-0.288c0.062,-0.084 0.284,-0.312 0.42,-0.458c2.012,-2.089 3.993,-4.081 6.014,-5.666c3.984,-3.302 7.929,-5.532 11.74,-6.406c3.781,-0.901 7.534,-0.64 10.955,0.639c3.404,1.263 6.283,3.64 7.965,5.96c0.445,0.58 0.75,1.151 1.035,1.692c0.098,0.182 0.09,0.162 0.137,0.205c0.046,0.036 0.096,0.068 0.16,0.109c0.057,0.241 0.118,0.604 0.182,0.896l0.088,0.466l0.024,0.114c-0.01,-0.177 0.056,0.556 -0.017,-0.368l0.031,0.164c0.275,1.726 0.408,3.469 0.367,5.17c-0.1,3.408 -0.969,6.563 -2.104,9.215c-2.342,5.361 -5.94,8.258 -8.615,9.482c-1.32,0.647 -2.593,0.945 -3.17,1.102c-0.873,0.156 -1.563,0.181 -1.516,0.191c-2.444,-0.135 -4.529,1.734 -4.665,4.173c-0.136,2.441 1.734,4.529 4.174,4.664c0.046,-0.007 0.441,0.131 1.689,0.331c1.538,0.177 3.438,0.309 6.107,-0.022c2.616,-0.354 5.849,-1.278 9.188,-3.161c3.343,-1.877 6.736,-4.723 9.709,-8.527c2.98,-3.801 5.445,-8.613 6.98,-14.298c0.75,-2.848 1.244,-5.922 1.322,-9.177c-0.014,-0.819 -0.029,-1.646 -0.048,-2.477z" fill="#231F20"/>
     <path id="svg_89" d="m164.637334,129.413272c-0.043,0.114 -0.073,0.232 -0.118,0.343c0.044,-0.111 0.075,-0.229 0.118,-0.343z" fill="#231F20"/>
     <path id="svg_90" d="m45.248334,143.078272c1.039,-2.174 2.117,-4.327 3.227,-6.458c-1.11,2.131 -2.188,4.284 -3.227,6.458z" fill="#231F20"/>
     <path id="svg_91" d="m35.878334,166.263272c-0.653,1.949 -1.28,3.913 -1.876,5.888c0.596,-1.973 1.223,-3.939 1.876,-5.888z" fill="#231F20"/>
     <path id="svg_92" d="m45.019334,143.554272c-3.291,6.946 -6.207,14.099 -8.719,21.442c2.515,-7.344 5.423,-14.498 8.719,-21.442z" fill="#231F20"/>
     <path id="svg_93" d="m33.486334,173.887272c-0.564,1.918 -1.097,3.846 -1.6,5.786c0.504,-1.94 1.036,-3.87 1.6,-5.786z" fill="#231F20"/>
    </g>
    <g id="svg_94">
     <path id="svg_95" d="m327.760334,116.238272c-3.142,-0.041 -5.741,3.949 -5.809,8.906c-0.045,3.352 1.09,6.256 2.793,7.823c0.963,1.21 2.166,1.968 3.502,1.986c3.206,0.046 5.85,-4.021 5.928,-9.074c0.049,-4.201 -1.704,-7.734 -4.143,-8.842c-0.695,-0.494 -1.457,-0.785 -2.271,-0.799z" fill="#6D6E71"/>
     <path id="svg_96" d="m321.453334,110.625272c1.959,0.985 3.936,1.135 5.375,0.151c2.649,-1.808 2.467,-6.65 -0.377,-10.829c-2.211,-3.224 -5.372,-5.083 -7.926,-4.927c-0.936,-0.05 -1.814,0.136 -2.547,0.631c-2.588,1.771 -2.416,6.531 0.383,10.628c1.436,2.098 3.283,3.603 5.092,4.346z" fill="#6D6E71"/>
     <path id="svg_97" d="m296.932334,152.462272c-3.402,-1.153 -6.749,-0.346 -7.479,1.81c-0.16,0.474 -0.16,0.979 -0.057,1.485c-0.42,2.123 1.703,4.633 4.982,5.752c3.465,1.165 6.877,0.345 7.62,-1.854c0.224,-0.649 0.155,-1.344 -0.101,-2.032c0.039,-1.971 -1.991,-4.153 -4.965,-5.161z" fill="#6D6E71"/>
     <path id="svg_98" d="m346.439334,118.625272c-0.599,-0.352 -1.239,-0.58 -1.916,-0.588c-3.139,-0.041 -5.742,3.947 -5.81,8.903c-0.055,3.906 1.489,7.214 3.679,8.484c0.854,0.829 1.854,1.342 2.938,1.36c3.206,0.046 5.851,-4.02 5.924,-9.077c0.058,-4.58 -2.034,-8.381 -4.815,-9.082z" fill="#6D6E71"/>
     <path id="svg_99" d="m324.630334,141.605272c-0.244,-0.445 -0.535,-0.852 -0.931,-1.167c-2.453,-1.96 -6.953,-0.399 -10.046,3.472c-2.584,3.24 -3.347,7.055 -2.098,9.373c0.231,0.945 0.671,1.763 1.385,2.333c2.503,1.996 7.085,0.406 10.245,-3.536c3.006,-3.783 3.597,-8.338 1.445,-10.475z" fill="#6D6E71"/>
     <path id="svg_100" d="m336.902334,152.616272c-0.237,-0.408 -0.518,-0.78 -0.885,-1.078c-2.453,-1.958 -6.955,-0.4 -10.047,3.471c-2.771,3.475 -3.459,7.612 -1.812,9.852c0.245,0.835 0.68,1.548 1.329,2.067c2.504,2.002 7.086,0.413 10.246,-3.53c3.144,-3.956 3.678,-8.774 1.178,-10.777c-0.004,-0.003 -0.009,-0.003 -0.009,-0.005z" fill="#6D6E71"/>
    </g>
    <g id="svg_101">
     <path id="svg_102" d="m332.066334,124.429272c-0.073,4.816 -2.596,8.692 -5.647,8.649c-3.05,-0.043 -5.472,-3.983 -5.405,-8.802c0.068,-4.814 2.59,-8.688 5.643,-8.647c3.051,0.044 5.466,3.988 5.409,8.8z" fill="#58595B"/>
     <path id="svg_103" d="m324.707334,99.716272c2.713,3.978 2.885,8.598 0.359,10.318c-2.521,1.723 -6.768,-0.102 -9.487,-4.083c-2.716,-3.976 -2.88,-8.597 -0.363,-10.318c2.526,-1.726 6.77,0.109 9.491,4.083z" fill="#58595B"/>
     <path id="svg_104" d="m348.352334,126.173272c-0.078,4.816 -2.594,8.695 -5.65,8.649c-3.051,-0.043 -5.474,-3.98 -5.404,-8.797c0.068,-4.819 2.593,-8.692 5.643,-8.651c3.049,0.043 5.465,3.987 5.411,8.799z" fill="#58595B"/>
     <path id="svg_105" d="m321.598334,149.400272c-3.012,3.758 -7.387,5.276 -9.764,3.37c-2.391,-1.905 -1.883,-6.499 1.121,-10.264c3.004,-3.763 7.375,-5.277 9.76,-3.374c2.387,1.905 1.875,6.504 -1.117,10.268z" fill="#58595B"/>
     <path id="svg_106" d="m294.139334,158.387272c-3.293,-1.124 -5.4,-3.729 -4.686,-5.816c0.707,-2.094 3.955,-2.877 7.261,-1.76c3.296,1.12 5.399,3.722 4.69,5.811c-0.708,2.093 -3.965,2.875 -7.265,1.765z" fill="#58595B"/>
     <path id="svg_107" d="m333.555334,160.187272c-3.007,3.755 -7.38,5.272 -9.765,3.365c-2.39,-1.903 -1.88,-6.499 1.127,-10.264c3.007,-3.762 7.375,-5.275 9.755,-3.374c2.392,1.907 1.881,6.503 -1.117,10.273z" fill="#58595B"/>
    </g>
    <g id="svg_108">
     <path id="svg_109" d="m280.137334,126.625272c-0.188,0.459 -0.357,0.919 -0.49,1.392c0.132,-0.473 0.307,-0.933 0.49,-1.392z"/>
     <path id="svg_110" d="m361.444334,114.163272c-0.417,-7.92 -2.298,-15.685 -5.191,-22.689c-2.893,-6.988 -6.725,-13.335 -10.735,-18.953c-3.174,-4.48 -5.932,-8.813 -8.484,-13.129c-1.538,-2.641 -2.928,-5.262 -4.21,-7.853c-17.997,-10.089 -37.659,-17.566 -58.472,-21.91c0.266,1.178 0.529,2.359 0.85,3.52c3.515,13.164 9.668,24.958 16.803,35.435c2.268,3.352 4.66,6.577 7.13,9.715c-1.706,-2.176 -3.382,-4.394 -4.999,-6.667c13.91,12.771 31.021,22.839 45.199,37.02c6.984,8.722 10.656,21.372 6.984,33.151c-1.168,3.724 -3.178,8.175 -5.455,11.34c-2.887,4.003 -8.289,9.814 -13.521,11.558c-17.449,6.978 -36.564,4.419 -47.327,-10.686c-5.672,-7.961 -5.482,-21.176 0.436,-28.136c0.731,-1.609 1.734,-3.127 2.907,-4.5c3.419,-3.946 8.064,-6.467 11.994,-7.648c3.982,-1.263 7.337,-1.276 9.537,-1.044c1.121,0.113 1.967,0.304 2.443,0.386c0.672,0.204 1.012,0.309 1.012,0.309l0.042,0.014c1.48,0.45 3.142,-0.077 4.069,-1.413c1.158,-1.657 0.748,-3.942 -0.914,-5.1c0,0 -0.303,-0.214 -0.889,-0.623c-0.805,-0.479 -1.868,-1.115 -3.344,-1.771c-2.959,-1.287 -7.662,-2.627 -13.711,-2.343c-5.988,0.313 -13.416,2.084 -20.66,7.441c-3.573,2.686 -7.029,6.401 -9.56,11.224c-2.593,4.79 -3.851,10.751 -3.624,16.672c0.214,5.945 1.936,11.74 4.41,16.958c0.64,1.349 1.235,2.525 2.043,3.931l0.859,1.571l0.213,0.395l0.311,0.494l0.611,0.983c0.831,1.358 1.689,2.582 2.561,3.794c0.883,1.227 1.863,2.439 2.891,3.646c4.159,4.755 9.838,9.438 17.252,12.169c3.68,1.351 7.707,2.155 11.74,2.269c4.037,0.117 8.038,-0.409 11.795,-1.395c7.547,-2.002 14.041,-5.704 19.701,-10.146c1.422,-1.115 2.775,-2.298 4.1,-3.52l0.979,-0.938l0.48,-0.47l0.24,-0.238l0.342,-0.353l0.74,-0.756c0.234,-0.238 0.482,-0.491 0.821,-0.872c1.317,-1.436 2.407,-2.688 3.507,-4.053c1.099,-1.35 2.166,-2.739 3.182,-4.183c4.074,-5.755 7.527,-12.281 9.857,-19.522c2.384,-7.199 3.527,-15.171 3.055,-23.084z"/>
     <path id="svg_111" d="m299.338334,78.557272c1.668,2.114 3.371,4.183 5.098,6.204c-1.727,-2.021 -3.43,-4.09 -5.098,-6.204z"/>
     <path id="svg_112" d="m315.635334,97.105272c-1.755,-1.832 -3.502,-3.706 -5.246,-5.613c1.744,1.904 3.491,3.781 5.246,5.613z"/>
     <path id="svg_113" d="m309.947334,91.014272c-1.726,-1.903 -3.447,-3.847 -5.146,-5.827c1.699,1.981 3.416,3.924 5.146,5.827z"/>
    </g>
    <g id="svg_114">
     <path id="svg_115" d="m213.176334,31.129272c-0.145,0 -0.28,0.05 -0.422,0.068c-0.118,-0.014 -0.232,-0.06 -0.354,-0.06c-0.309,-0.002 -0.61,0.069 -0.904,0.141c-0.299,-0.072 -0.601,-0.118 -0.904,-0.121c-3.346,-0.011 -6.08,4.27 -6.098,9.559c-0.024,5.29 2.674,9.587 6.023,9.601c0.887,0.004 1.723,-0.295 2.486,-0.827c0.371,-0.069 0.736,-0.186 1.086,-0.359c2.711,-0.722 4.785,-4.418 4.809,-8.903c0.015,-5.007 -2.543,-9.085 -5.722,-9.099z" fill="#6D6E71"/>
     <path id="svg_116" d="m239.930334,57.779272c-2.67,-2.55 -6.152,-3.252 -7.773,-1.558c-0.045,0.045 -0.068,0.109 -0.114,0.162c-0.118,0.086 -0.244,0.157 -0.351,0.263c-0.118,0.127 -0.195,0.28 -0.29,0.425c-0.287,0.15 -0.554,0.333 -0.78,0.572c-1.709,1.783 -0.8,5.423 2.017,8.116c2.823,2.698 6.495,3.439 8.2,1.653c0.368,-0.383 0.592,-0.863 0.727,-1.387c0.255,-0.28 0.427,-0.609 0.561,-0.966c1.17,-1.791 0.279,-4.905 -2.197,-7.28z" fill="#6D6E71"/>
     <path id="svg_117" d="m232.160334,47.811272c1.968,-1.249 3.624,-3.911 4.205,-7.23c0.84,-4.932 -0.994,-9.38 -4.124,-9.923c-0.398,-0.072 -0.8,-0.068 -1.198,-0.009c-0.158,0.001 -0.318,-0.023 -0.473,-0.002c-3.255,-0.443 -6.58,3.281 -7.471,8.417c-0.9,5.214 1.039,9.905 4.346,10.475c1.281,0.225 2.576,-0.213 3.732,-1.128c0.334,-0.165 0.666,-0.356 0.983,-0.6z" fill="#6D6E71"/>
     <path id="svg_118" d="m259.796334,67.221272c0.021,-0.182 0.039,-0.364 0.013,-0.547c-0.228,-1.747 -2.652,-2.868 -5.414,-2.514c-2.484,0.327 -4.379,1.745 -4.568,3.302c-0.135,0.329 -0.203,0.67 -0.182,1.018c-0.3,0.499 -0.463,1.035 -0.391,1.577c0.236,1.844 2.802,3.032 5.715,2.65c2.911,-0.377 5.08,-2.185 4.84,-4.033c-0.019,-0.15 -0.076,-0.282 -0.123,-0.421c0.11,-0.319 0.168,-0.645 0.123,-0.979c0,-0.019 -0.01,-0.035 -0.013,-0.053z" fill="#6D6E71"/>
    </g>
    <g id="svg_119">
     <path id="svg_120" d="m237.273334,40.196272c-0.83,4.744 -3.934,8.172 -6.936,7.65c-3.011,-0.521 -4.781,-4.791 -3.955,-9.537c0.821,-4.747 3.924,-8.178 6.926,-7.658c3.011,0.524 4.778,4.8 3.965,9.545z" fill="#58595B"/>
     <path id="svg_121" d="m220.488334,39.854272c-0.023,4.819 -2.508,8.72 -5.559,8.701c-3.057,-0.009 -5.516,-3.923 -5.491,-8.742c0.019,-4.816 2.499,-8.715 5.55,-8.704c3.057,0.011 5.512,3.931 5.5,8.745z" fill="#58595B"/>
     <path id="svg_122" d="m240.701334,56.726272c2.572,2.459 3.394,5.77 1.836,7.396c-1.558,1.628 -4.9,0.954 -7.471,-1.503c-2.566,-2.455 -3.393,-5.768 -1.84,-7.392c1.564,-1.629 4.906,-0.953 7.475,1.499z" fill="#58595B"/>
     <path id="svg_123" d="m254.605334,62.857272c2.656,-0.34 4.985,0.738 5.203,2.416c0.223,1.686 -1.753,3.329 -4.406,3.672c-2.652,0.353 -4.99,-0.733 -5.203,-2.414c-0.219,-1.682 1.757,-3.325 4.406,-3.674z" fill="#58595B"/>
    </g>
    <g id="svg_124">
     <path id="svg_125" d="m262.248334,54.545272c0.076,0.078 0.15,0.151 0.223,0.232c-0.073,-0.081 -0.147,-0.154 -0.223,-0.232z" fill="#231F20"/>
     <path id="svg_126" d="m261.595334,53.956272c-0.07,-0.055 -0.137,-0.112 -0.2,-0.164c0.063,0.052 0.129,0.108 0.2,0.164z" fill="#231F20"/>
     <path id="svg_127" d="m271.826334,60.113272c-0.004,-0.55 -0.061,-0.817 -0.096,-1.233c-0.435,-3.022 -1.809,-5.393 -3.379,-7.218c-3.156,-3.657 -7.52,-5.23 -11.137,-5.001c-1.802,0.109 -3.373,0.575 -4.591,1.172c-1.222,0.604 -2.148,1.257 -2.853,1.809c-1.554,1.315 -1.848,1.724 -1.917,1.751c-1.121,1.208 -1.054,3.098 0.149,4.219c1.211,1.124 3.1,1.058 4.219,-0.149c-0.035,0.063 0.605,-0.789 1.26,-1.361c0.813,-0.737 2.172,-1.626 3.982,-1.683c0.617,-0.032 1.316,0.087 2.026,0.341c0.462,0.032 0.909,0.057 1.329,0.057c1.746,0 3.49,1.747 5.237,3.49c1.745,3.488 1.745,8.725 -1.747,12.212c-15.701,8.725 -31.406,3.491 -41.873,-8.724c-9.104,-7.585 -12.916,-23.083 -6.877,-33.88c2.662,-0.209 5.332,-0.37 8.02,-0.481c-7.447,0.296 -14.795,0.981 -22.021,2.043c-0.041,1.722 -0.026,3.424 0.088,5.099c0.131,2.077 0.385,4.056 0.74,6.344c0.08,0.625 0.176,0.896 0.267,1.306l0.278,1.142l0.033,0.143c0,-0.041 0.052,0.595 0.043,0.373l0.02,0.091l0.076,0.373l0.163,0.737c0.109,0.492 0.212,0.983 0.345,1.474c1.967,7.825 5.528,15.4 10.76,21.591c5.195,6.179 12.146,10.965 19.923,12.902c0.978,0.246 1.926,0.427 2.952,0.588c0.541,0.08 1.16,0.171 1.635,0.216l0.545,0.018l0.269,0.011l0.136,0.006l0.064,0.003c-0.021,-0.005 0.436,0.065 0.277,0.034c1.65,0.012 3.282,-0.057 4.896,-0.164c3.219,-0.183 6.375,-0.697 9.444,-1.431c3.063,-0.772 6.067,-1.864 8.861,-3.524c2.757,-1.662 5.383,-4.032 6.861,-7.042c0.765,-1.474 1.231,-3.034 1.45,-4.528c0.113,-0.701 0.158,-1.583 0.168,-2.313l-0.025,-0.813z" fill="#231F20"/>
     <path id="svg_128" d="m231.904334,25.257272c-2.748,0 -5.48,0.061 -8.195,0.167c2.715,-0.108 5.447,-0.167 8.195,-0.167z" fill="#231F20"/>
    </g>
    <g id="svg_129">
     <path id="svg_130" d="m118.531334,317.313272c0.716,-0.207 1.336,-0.638 1.853,-1.214c0.444,-0.263 0.845,-0.599 1.188,-1.021c0.159,-0.087 0.291,-0.219 0.438,-0.323c2.688,-1.553 3.77,-6.122 2.391,-10.895c-1.535,-5.282 -5.477,-8.786 -8.826,-7.82c-1.373,0.395 -2.414,1.508 -3.075,3.016c-0.181,0.354 -0.354,0.721 -0.49,1.126c-0.323,0.449 -0.587,0.967 -0.801,1.544c-1.303,1.971 -1.665,5.164 -0.712,8.477c1.39,4.81 4.981,7.991 8.034,7.11z" fill="#6D6E71"/>
     <path id="svg_131" d="m133.026334,312.556272c0.646,-0.186 1.194,-0.57 1.68,-1.058c0.687,-0.237 1.291,-0.646 1.79,-1.218c0.015,-0.004 0.032,-0.004 0.051,-0.009c0.499,-0.145 0.945,-0.409 1.363,-0.726c2.709,-1.528 3.813,-6.118 2.434,-10.918c-1.53,-5.284 -5.482,-8.783 -8.834,-7.82c-0.984,0.286 -1.787,0.958 -2.416,1.857c-0.377,0.422 -0.713,0.899 -0.977,1.462c-0.627,0.45 -1.148,1.074 -1.547,1.851c-1.986,1.717 -2.717,5.512 -1.574,9.467c1.391,4.812 4.983,7.994 8.03,7.112z" fill="#6D6E71"/>
     <path id="svg_132" d="m107.902334,356.800272c-0.013,-0.011 -0.031,-0.018 -0.045,-0.032c-0.05,-0.054 -0.078,-0.12 -0.128,-0.17c-0.058,-0.056 -0.138,-0.088 -0.199,-0.143c-0.149,-0.233 -0.29,-0.474 -0.491,-0.672c-0.045,-0.043 -0.104,-0.068 -0.153,-0.109c-0.117,-0.168 -0.22,-0.354 -0.368,-0.499c-2.248,-2.226 -6.931,-1.145 -10.445,2.412c-2.399,2.43 -3.603,5.368 -3.434,7.705c-0.031,0.402 -0.024,0.786 0.014,1.16c-0.01,0.127 0,0.241 -0.004,0.369c-0.146,1.657 0.229,3.145 1.257,4.157c2.476,2.45 7.622,1.26 11.491,-2.647c3.859,-3.921 4.99,-9.078 2.505,-11.531z" fill="#6D6E71"/>
     <path id="svg_133" d="m124.007334,327.048272c-1.163,-0.391 -2.42,-0.223 -3.638,0.373c-0.2,0.086 -0.396,0.156 -0.586,0.259c-0.412,0.115 -0.826,0.283 -1.231,0.506c-2.297,0.763 -4.558,3.263 -5.714,6.683c-1.597,4.743 -0.457,9.407 2.55,10.418c0.187,0.063 0.381,0.065 0.573,0.1c0.095,0.038 0.176,0.108 0.275,0.143c0.252,0.083 0.508,0.097 0.764,0.129c0.126,0.059 0.234,0.15 0.367,0.193c0.086,0.026 0.174,0.041 0.254,0.063c0.016,0.003 0.02,0.012 0.031,0.017c3.303,1.117 7.398,-2.212 9.157,-7.426c1.753,-5.211 0.504,-10.345 -2.802,-11.458z" fill="#6D6E71"/>
     <path id="svg_134" d="m140.448334,333.774272c-0.691,-0.232 -1.409,-0.259 -2.136,-0.129c-0.453,0.029 -0.904,0.121 -1.357,0.281c-0.581,-0.07 -1.176,-0.034 -1.771,0.143c-2.807,-0.193 -5.957,2.657 -7.393,6.917c-1.596,4.744 -0.459,9.408 2.547,10.418c0.244,0.084 0.5,0.098 0.754,0.129c0.212,0.121 0.414,0.261 0.654,0.343c0.326,0.109 0.663,0.146 1.005,0.168c0.275,0.177 0.553,0.352 0.87,0.458c0.105,0.034 0.219,0.055 0.328,0.082c0.05,0.019 0.09,0.057 0.141,0.073c3.3,1.112 7.398,-2.216 9.163,-7.426c1.744,-5.212 0.496,-10.344 -2.805,-11.457z" fill="#6D6E71"/>
     <path id="svg_135" d="m124.156334,371.364272c-0.064,-0.075 -0.104,-0.168 -0.17,-0.235c-0.225,-0.218 -0.482,-0.373 -0.742,-0.532c-0.186,-0.348 -0.412,-0.667 -0.693,-0.949c-0.169,-0.161 -0.371,-0.268 -0.556,-0.396c-0.154,-0.252 -0.313,-0.504 -0.526,-0.713c-2.248,-2.228 -6.927,-1.144 -10.445,2.417c-3.17,3.21 -4.293,7.326 -2.832,9.737c0.115,0.661 0.373,1.244 0.734,1.762c0.07,0.559 0.217,1.082 0.438,1.558c0.218,0.623 0.517,1.202 0.981,1.658c2.471,2.452 7.615,1.258 11.485,-2.647c3.86,-3.919 4.991,-9.074 2.513,-11.527c-0.055,-0.055 -0.127,-0.081 -0.187,-0.133z" fill="#6D6E71"/>
    </g>
    <g id="svg_136">
     <path id="svg_137" d="m103.803334,364.655272c-3.389,3.422 -7.894,4.468 -10.061,2.321c-2.176,-2.146 -1.185,-6.658 2.199,-10.09c3.383,-3.424 7.892,-4.466 10.059,-2.323c2.171,2.147 1.18,6.66 -2.197,10.092z" fill="#58595B"/>
     <path id="svg_138" d="m122.557334,338.544272c-1.541,4.564 -5.129,7.479 -8.024,6.503c-2.893,-0.974 -3.986,-5.464 -2.446,-10.031c1.535,-4.561 5.123,-7.481 8.011,-6.506c2.896,0.977 3.988,5.469 2.459,10.034z" fill="#58595B"/>
     <path id="svg_139" d="m136.951334,344.434272c-1.54,4.559 -5.133,7.477 -8.021,6.5c-2.898,-0.974 -3.987,-5.463 -2.454,-10.03c1.541,-4.564 5.129,-7.479 8.016,-6.503c2.895,0.972 3.989,5.466 2.459,10.033z" fill="#58595B"/>
     <path id="svg_140" d="m120.447334,308.201272c1.33,4.63 0.045,9.074 -2.89,9.915c-2.933,0.849 -6.388,-2.216 -7.728,-6.849c-1.336,-4.624 -0.047,-9.065 2.883,-9.91c2.934,-0.847 6.395,2.22 7.735,6.844z" fill="#58595B"/>
     <path id="svg_141" d="m134.402334,303.623272c1.335,4.628 0.045,9.069 -2.883,9.91c-2.934,0.849 -6.395,-2.214 -7.729,-6.844c-1.336,-4.625 -0.052,-9.067 2.882,-9.915c2.935,-0.844 6.392,2.221 7.73,6.849z" fill="#58595B"/>
     <path id="svg_142" d="m118.198334,377.524272c-3.394,3.422 -7.899,4.466 -10.063,2.32c-2.172,-2.146 -1.185,-6.658 2.203,-10.089c3.383,-3.426 7.887,-4.467 10.058,-2.323c2.172,2.146 1.181,6.658 -2.198,10.092z" fill="#58595B"/>
    </g>
    <g id="svg_143">
     <path id="svg_144" d="m100.857334,391.863272c2.081,1.703 4.18,3.376 6.322,5.002c-2.142,-1.625 -4.241,-3.299 -6.322,-5.002z"/>
     <path id="svg_145" d="m81.030334,373.316272c1.849,1.974 3.742,3.899 5.667,5.797c-1.925,-1.896 -3.818,-3.824 -5.667,-5.797z"/>
     <path id="svg_146" d="m88.447334,380.797272c1.402,1.35 2.816,2.685 4.25,3.994c-1.433,-1.309 -2.847,-2.644 -4.25,-3.994z"/>
     <path id="svg_147" d="m94.643334,386.538272c1.493,1.331 3.01,2.632 4.54,3.92c-1.531,-1.286 -3.047,-2.589 -4.54,-3.92z"/>
     <path id="svg_148" d="m160.857334,334.608272l-0.131,-1.778l-0.033,-0.445l-0.02,-0.223l-0.006,-0.109c0.003,0.763 -0.015,-1.163 -0.02,-1.021l-0.135,-1.122c-0.188,-1.5 -0.355,-2.998 -0.577,-4.487c-1.858,-11.935 -5.946,-23.682 -12.282,-33.875c-6.313,-10.203 -14.664,-18.888 -24.516,-25.133c-4.936,-3.115 -10.301,-5.595 -16.031,-7.232c-5.689,-1.665 -11.944,-2.325 -18.287,-1.479c-3.18,0.481 -6.363,1.254 -9.387,2.63c-1.374,0.531 -3.372,1.657 -4.971,2.652c-0.553,0.386 -0.813,0.629 -1.229,0.948l-0.569,0.455c-0.295,0.205 0.555,-0.375 -0.677,0.473l-0.085,0.082l-0.178,0.168l-0.345,0.336c-0.913,0.894 -1.817,1.784 -2.712,2.665l-1.313,1.321c-0.408,0.486 -0.799,1.004 -1.193,1.5c-0.769,1.003 -1.527,1.998 -2.275,2.985c-0.75,0.97 -1.313,2.155 -1.936,3.209c-2.557,4.232 -3.783,9.047 -4.424,13.425c-0.068,1.113 -0.128,2.208 -0.191,3.288c-0.013,0.536 -0.031,1.068 -0.049,1.594c0.036,0.522 0.082,1.042 0.117,1.558c0.092,1.026 0.173,2.034 0.295,3.011c0.156,0.972 0.414,1.907 0.618,2.825c1.799,7.341 5.347,12.641 8.815,16.295c0.805,0.954 1.789,1.71 2.607,2.457c0.805,0.759 1.713,1.354 2.52,1.908c1.486,1.117 3.299,1.989 4.602,2.593c0.705,0.369 1.117,0.405 1.549,0.541c0.414,0.116 0.768,0.213 1.049,0.291c0.559,0.154 0.855,0.236 0.855,0.236c1.406,0.391 2.977,-0.072 3.94,-1.294c1.281,-1.625 0.999,-3.978 -0.631,-5.259l-0.015,-0.014c0,0 -0.236,-0.184 -0.695,-0.547c-0.23,-0.179 -0.516,-0.407 -0.859,-0.672c-0.308,-0.265 -0.825,-0.583 -0.988,-0.919c-0.867,-1.14 -2.635,-3.333 -3.956,-6.417c-1.326,-3.062 -2.279,-7.135 -1.915,-11.291c0.063,-0.518 0.066,-1.035 0.156,-1.548c0.143,-0.512 0.242,-1.018 0.352,-1.527l0.15,-0.758l0.285,-0.731c0.191,-0.486 0.373,-0.97 0.54,-1.456c0.994,-1.851 2.049,-3.604 3.726,-5.127c1.457,-1.604 3.618,-2.913 5.899,-4.176l0.208,-0.123c0,0 0.596,-0.195 0.796,-0.245c0.208,-0.05 0.744,-0.137 0.858,-0.139l0.268,0c0.055,-0.006 0.123,0.007 0.177,0l-0.003,0c30.373,-7.007 53.57,20.999 53.57,50.563c0,12.215 -1.744,22.683 -6.98,33.153c-3.488,8.722 -12.212,17.444 -20.936,22.681c-2.271,2.016 -4.625,3.869 -7.035,5.595c5.795,4.392 11.821,8.484 18.071,12.253c0.737,-0.694 1.485,-1.394 2.215,-2.116c3.77,-3.607 7.431,-7.621 10.942,-11.956c6.983,-8.69 13.487,-18.9 17.783,-30.998c2.168,-6.004 3.721,-12.48 4.324,-19.184c0.207,-1.537 0.285,-3.624 0.354,-5.536l0.06,-2.901c-0.021,-0.742 -0.079,-1.229 -0.116,-1.853z"/>
    </g>
    <g id="svg_149">
     <path id="svg_150" d="m145.662334,199.298272c0.357,-2.574 -0.079,-4.861 -1.427,-6.076c-2.339,-2.13 -6.476,-0.184 -9.228,4.326c-1.818,2.979 -2.554,6.313 -2.19,8.861c-0.104,0.845 -0.124,1.651 -0.021,2.391c-0.083,0.688 -0.103,1.353 -0.033,1.962c-0.194,1.971 0.282,3.685 1.512,4.635c2.345,1.814 6.478,0.156 9.235,-3.699c1.77,-2.499 2.524,-5.292 2.211,-7.456c0.09,-0.788 0.081,-1.533 -0.031,-2.219c0.126,-0.976 0.117,-1.893 -0.028,-2.725z" fill="#6D6E71"/>
     <path id="svg_151" d="m49.502334,228.424272c-6.99,-2.68 -13.778,-0.483 -15.176,4.907c-0.211,0.802 -0.27,1.628 -0.229,2.464c-0.013,0.254 -0.013,0.513 0,0.768c-0.013,0.21 -0.013,0.42 -0.004,0.628c-0.178,4.263 4.096,8.963 10.354,11.018c6.985,2.282 13.784,0.42 15.175,-4.192c0.194,-0.624 0.264,-1.269 0.244,-1.918c0.004,-0.127 0,-0.255 -0.005,-0.382c0.005,-0.155 0.005,-0.309 0,-0.463c0.143,-4.974 -4.133,-10.437 -10.359,-12.83z" fill="#6D6E71"/>
     <path id="svg_152" d="m54.080334,190.722272c-6.988,-2.682 -13.779,-0.487 -15.172,4.907c-0.305,1.163 -0.313,2.385 -0.096,3.606c-0.182,0.899 -0.191,1.824 -0.037,2.754c-0.136,0.736 -0.154,1.493 -0.036,2.25c-0.722,4.44 3.685,9.556 10.291,11.727c6.985,2.279 13.779,0.42 15.175,-4.192c0.258,-0.844 0.309,-1.724 0.189,-2.609c0.09,-0.67 0.073,-1.348 -0.031,-2.037c0.121,-0.804 0.104,-1.63 -0.033,-2.461c0.885,-5.245 -3.547,-11.372 -10.25,-13.945z" fill="#6D6E71"/>
     <path id="svg_153" d="m96.957334,239.214272c-0.375,-5.073 -6.025,-8.583 -12.603,-7.848c-6.38,0.718 -11.278,5.164 -11.226,10.06c-0.006,0.141 0,0.289 0,0.431c-0.006,0.118 0,0.234 0,0.35c-0.02,0.276 -0.02,0.559 0.007,0.835c0.378,4.337 6.029,7.344 12.608,6.712c6.336,-0.621 11.223,-4.373 11.223,-8.533c0.009,-0.152 0,-0.304 -0.004,-0.458c0.013,-0.182 0.004,-0.366 0,-0.552c0.018,-0.329 0.023,-0.663 -0.005,-0.997z" fill="#6D6E71"/>
     <path id="svg_154" d="m88.924334,205.393272c-6.549,-1.099 -12.312,2.099 -12.893,7.149c-0.074,0.649 -0.057,1.299 0.045,1.937c-0.015,0.075 -0.033,0.148 -0.045,0.226c-0.064,0.563 -0.057,1.126 0.025,1.682c-0.01,0.038 -0.017,0.076 -0.025,0.116c-0.06,0.472 -0.045,0.943 0.009,1.411c0,0.011 -0.005,0.02 -0.009,0.029c-0.577,4.31 4.268,8.574 10.813,9.517c6.545,0.934 12.322,-1.787 12.889,-6.11c0.061,-0.432 0.051,-0.863 0,-1.292c0.064,-0.511 0.055,-1.015 -0.014,-1.52c0,-0.029 0.01,-0.054 0.014,-0.082c0.072,-0.595 0.061,-1.186 -0.027,-1.768c0.004,-0.054 0.019,-0.108 0.027,-0.162c0.581,-5.043 -4.268,-10.031 -10.809,-11.133z" fill="#6D6E71"/>
     <path id="svg_155" d="m125.246334,221.698272c-1.604,-3.52 -6.602,-3.855 -11.162,-0.765c-3.762,2.555 -5.998,6.638 -5.777,9.968c-0.036,0.341 -0.021,0.67 -0.006,0.995c-0.03,0.274 -0.014,0.538 -0.002,0.804c-0.1,0.952 0.031,1.855 0.453,2.652c1.604,3 6.608,3.291 11.168,0.647c3.742,-2.18 5.985,-5.656 5.776,-8.498c0.04,-0.399 0.033,-0.785 -0.009,-1.162c0.055,-0.483 0.049,-0.949 -0.004,-1.408c0.123,-1.158 0.008,-2.268 -0.437,-3.233z" fill="#6D6E71"/>
    </g>
    <g id="svg_156">
     <path id="svg_157" d="m44.448334,248.275272c-6.984,-2.207 -11.522,-7.58 -10.122,-11.997c1.397,-4.431 8.186,-6.231 15.176,-4.03c6.981,2.203 11.523,7.579 10.121,11.999c-1.391,4.433 -8.189,6.217 -15.175,4.028z" fill="#58595B"/>
     <path id="svg_158" d="m49.030334,217.304272c-6.989,-2.205 -11.527,-7.578 -10.122,-11.995c1.393,-4.431 8.184,-6.231 15.172,-4.03c6.985,2.203 11.521,7.58 10.125,11.999c-1.395,4.43 -8.189,6.218 -15.175,4.026z" fill="#58595B"/>
     <path id="svg_159" d="m85.744334,249.758272c-6.579,0.604 -12.23,-2.28 -12.608,-6.442c-0.384,-4.174 4.632,-8.043 11.219,-8.652c6.577,-0.604 12.228,2.28 12.603,6.45c0.39,4.168 -4.642,8.024 -11.214,8.644z" fill="#58595B"/>
     <path id="svg_160" d="m86.844334,228.344272c-6.545,-0.906 -11.39,-5.002 -10.813,-9.143c0.581,-4.148 6.344,-6.775 12.893,-5.874c6.541,0.908 11.391,5.005 10.809,9.147c-0.567,4.151 -6.344,6.765 -12.889,5.87z" fill="#58595B"/>
     <path id="svg_161" d="m119.920334,236.549272c-4.56,2.539 -9.564,2.257 -11.168,-0.625c-1.607,-2.891 0.775,-7.287 5.332,-9.83c4.561,-2.539 9.559,-2.262 11.162,0.626c1.617,2.889 -0.781,7.281 -5.326,9.829z" fill="#58595B"/>
     <path id="svg_162" d="m143.510334,213.203272c-2.758,3.706 -6.891,5.298 -9.235,3.554c-2.352,-1.742 -2.024,-6.16 0.733,-9.871c2.752,-3.704 6.889,-5.297 9.228,-3.549c2.36,1.739 2.016,6.156 -0.726,9.866z" fill="#58595B"/>
    </g>
    <g id="svg_163">
     <path id="svg_164" d="m28.000334,197.946272c-0.32,1.918 -0.619,3.842 -0.883,5.774c0.264,-1.932 0.563,-3.856 0.883,-5.774z"/>
     <path id="svg_165" d="m26.795334,206.238272c-0.209,1.703 -0.398,3.411 -0.572,5.123c0.173,-1.712 0.363,-3.42 0.572,-5.123z"/>
     <path id="svg_166" d="m29.738334,188.658272c-0.54,2.516 -1.026,5.05 -1.473,7.597c0.447,-2.547 0.933,-5.081 1.473,-7.597z"/>
     <path id="svg_167" d="m25.974334,214.050272c-0.155,1.762 -0.278,3.538 -0.382,5.315c0.103,-1.777 0.226,-3.553 0.382,-5.315z"/>
     <path id="svg_168" d="m31.459334,181.288272c-0.604,2.402 -1.176,4.815 -1.693,7.248c0.517,-2.433 1.088,-4.846 1.693,-7.248z"/>
     <path id="svg_169" d="m25.441334,221.775272c-0.121,2.563 -0.213,5.136 -0.244,7.725c0.031,-2.589 0.123,-5.162 0.244,-7.725z"/>
     <path id="svg_170" d="m163.686334,132.411272c-0.071,0.245 -0.145,0.491 -0.217,0.74c0.072,-0.25 0.145,-0.495 0.217,-0.74z"/>
     <path id="svg_171" d="m231.818334,107.173272l-0.218,-1.771c-0.085,-0.579 -0.185,-1.237 -0.29,-1.669c-0.413,-1.939 -0.976,-3.861 -1.743,-5.656c-2.989,-7.284 -8.447,-13.401 -15.61,-17.748c-3.579,-2.171 -7.619,-3.87 -11.957,-4.916c-4.343,-1.034 -8.975,-1.362 -13.58,-0.977c-9.268,0.779 -18.133,4.507 -25.441,9.671c-3.701,2.598 -6.99,5.554 -10.009,8.761l-0.509,0.549l-0.661,0.754c-0.426,0.495 -0.903,1.026 -1.284,1.503c-0.734,0.95 -1.484,1.898 -2.17,2.897c-1.417,1.966 -2.689,4.044 -3.802,6.186c-2.257,4.278 -4.015,8.725 -5.259,13.116c-1.29,4.398 -2.145,8.724 -2.916,12.9c-1.431,8.38 -2.488,16.292 -4.428,23.793c-1.862,7.404 -4.578,14.038 -8.594,19.669c-3.925,5.625 -9.006,9.999 -14.354,12.215c-5.346,2.318 -10.756,2.28 -15.552,1.108c-2.415,-0.575 -4.774,-1.531 -7.09,-2.623c-1.163,-0.561 -2.306,-1.16 -3.464,-1.802c-0.582,-0.334 -1.146,-0.627 -1.73,-1.006l-0.863,-0.509c0,0 -3.03,-2.29 -3.199,-2.568c-0.299,-0.357 -0.594,-0.693 -0.88,-1.002c-0.224,-0.365 -0.44,-0.676 -0.662,-0.956c-0.74,-1.26 -0.958,-2.272 -0.995,-3.186c-0.05,-0.899 0.022,-1.728 0.059,-2.843c0.041,-1.403 0.082,-2.809 0.123,-4.206c0.141,-3.451 0.509,-8.179 1.539,-13.475c1.045,-5.309 2.471,-11.116 4.402,-17.008c3.806,-11.821 9.273,-23.789 14.982,-34.958c5.758,-11.188 12.162,-21.534 18.271,-30.831c3.741,-5.604 7.45,-10.791 11.017,-15.548c-32.209,19.508 -58.64,47.576 -76.193,81.033c4.836,-9.21 10.34,-18.016 16.457,-26.345c-6.215,20.033 -12.283,48.727 -5.912,69.009c2.521,8.011 4.043,11.767 9.306,15.991c14.798,11.885 40.499,12.153 56.701,2.618c4.948,-2.906 8.979,-7.046 10.474,-9.012c14.537,-19.191 18.499,-47.839 31.177,-64.79c-0.003,0.011 -0.007,0.022 -0.015,0.032c0.798,-1.729 1.638,-3.336 2.541,-4.792c0.717,-1.141 1.457,-2.216 2.234,-3.243c0.377,-0.52 0.799,-1.003 1.205,-1.499l0.502,-0.591l0.238,-0.288c0.062,-0.084 0.284,-0.312 0.42,-0.458c2.012,-2.089 3.993,-4.081 6.014,-5.666c3.984,-3.302 7.929,-5.532 11.74,-6.406c3.781,-0.901 7.534,-0.64 10.955,0.639c3.404,1.263 6.283,3.64 7.965,5.96c0.445,0.58 0.75,1.151 1.035,1.692c0.098,0.182 0.09,0.162 0.137,0.205c0.046,0.036 0.096,0.068 0.16,0.109c0.057,0.241 0.118,0.604 0.182,0.896l0.088,0.466l0.024,0.114c-0.01,-0.177 0.056,0.556 -0.017,-0.368l0.031,0.164c0.275,1.726 0.408,3.469 0.367,5.17c-0.1,3.408 -0.969,6.563 -2.104,9.215c-2.342,5.361 -5.94,8.258 -8.615,9.482c-1.32,0.647 -2.593,0.945 -3.17,1.102c-0.873,0.156 -1.563,0.181 -1.516,0.191c-2.444,-0.135 -4.529,1.734 -4.665,4.173c-0.136,2.441 1.734,4.529 4.174,4.664c0.046,-0.007 0.441,0.131 1.689,0.331c1.538,0.177 3.438,0.309 6.107,-0.022c2.616,-0.354 5.849,-1.278 9.188,-3.161c3.343,-1.877 6.736,-4.723 9.709,-8.527c2.98,-3.801 5.445,-8.613 6.98,-14.298c0.75,-2.848 1.244,-5.922 1.322,-9.177c-0.014,-0.819 -0.029,-1.646 -0.048,-2.477z"/>
     <path id="svg_172" d="m164.637334,129.413272c-0.043,0.114 -0.073,0.232 -0.118,0.343c0.044,-0.111 0.075,-0.229 0.118,-0.343z"/>
     <path id="svg_173" d="m45.248334,143.078272c1.039,-2.174 2.117,-4.327 3.227,-6.458c-1.11,2.131 -2.188,4.284 -3.227,6.458z"/>
     <path id="svg_174" d="m35.878334,166.263272c-0.653,1.949 -1.28,3.913 -1.876,5.888c0.596,-1.973 1.223,-3.939 1.876,-5.888z"/>
     <path id="svg_175" d="m45.019334,143.554272c-3.291,6.946 -6.207,14.099 -8.719,21.442c2.515,-7.344 5.423,-14.498 8.719,-21.442z"/>
     <path id="svg_176" d="m33.486334,173.887272c-0.564,1.918 -1.097,3.846 -1.6,5.786c0.504,-1.94 1.036,-3.87 1.6,-5.786z"/>
    </g>
    <g id="svg_177">
     <path id="svg_178" d="m269.250334,388.913272c-0.279,-5.688 -3.424,-10.163 -7.033,-9.984c-0.061,0.002 -0.118,0.016 -0.179,0.021c-0.235,-0.022 -0.466,-0.032 -0.707,-0.021c-1.61,0.075 -3.038,1.01 -4.125,2.509c-3.075,1.336 -5.183,5.633 -4.919,10.621c0.313,5.924 3.825,10.573 7.859,10.386c0.108,-0.006 0.212,-0.027 0.314,-0.039c0.273,0.036 0.541,0.052 0.819,0.039c2.36,-0.106 4.354,-2.005 5.487,-4.812c1.659,-1.932 2.662,-5.141 2.484,-8.72z" fill="#6D6E71"/>
     <path id="svg_179" d="m257.082334,407.461272c-0.293,-0.022 -0.578,-0.009 -0.87,0.022c-0.06,-0.004 -0.118,-0.02 -0.176,-0.022c-2.436,-0.174 -4.724,1.468 -6.295,4.138c-2.876,1.721 -5.087,5.68 -5.455,10.421c-0.505,6.56 2.698,12.119 7.161,12.414c0.382,0.028 0.754,0 1.127,-0.047c0.119,0.017 0.229,0.042 0.34,0.047c3.271,0.237 6.287,-2.666 7.758,-6.962c1.521,-1.979 2.588,-4.836 2.824,-8.075c0.446,-6.302 -2.415,-11.652 -6.414,-11.936z" fill="#6D6E71"/>
     <path id="svg_180" d="m275.835334,381.377272c-1.397,2.032 -2.197,4.93 -2.03,8.118c0.311,5.922 3.826,10.573 7.857,10.386c0.019,-0.002 0.037,-0.004 0.061,-0.008c0.08,0 0.168,0.013 0.248,0.008c3.711,-0.17 6.514,-4.738 6.479,-10.341c0.007,-0.257 0.017,-0.513 0.017,-0.776c0.073,-0.747 0.101,-1.521 0.06,-2.314c-0.285,-5.688 -3.43,-10.164 -7.041,-9.987c-0.019,0.002 -0.03,0.004 -0.049,0.007c-0.072,0 -0.141,-0.01 -0.215,-0.007c-2.352,0.111 -4.323,2.057 -5.387,4.914z" fill="#6D6E71"/>
     <path id="svg_181" d="m287.432334,419.678272c0,-0.236 -0.01,-0.468 -0.02,-0.699c0.022,-0.6 0.02,-1.19 -0.017,-1.762c0.384,-6.229 -2.454,-11.491 -6.419,-11.774c-0.068,-0.007 -0.133,0.002 -0.2,0.002l-0.009,-0.002c-3.605,-0.257 -6.906,3.458 -7.988,8.617c-0.821,1.703 -1.377,3.697 -1.544,5.858c-0.509,6.563 2.694,12.122 7.157,12.419c0.114,0.007 0.224,-0.002 0.338,-0.002l0.014,0.002c4.287,0.307 8.146,-4.771 8.641,-11.335c0.027,-0.384 0.047,-0.766 0.047,-1.147c0,-0.059 0,-0.118 0,-0.177z" fill="#6D6E71"/>
     <path id="svg_182" d="m275.312334,370.098272c0.533,0.027 1.063,-0.009 1.568,-0.184c1.408,-0.483 2.383,-1.73 2.907,-3.364c1.28,-2.007 1.493,-5.299 0.309,-8.628c-1.495,-4.178 -4.651,-6.94 -7.423,-6.708c-0.517,-0.023 -1.025,0.009 -1.516,0.177c-0.563,0.195 -1.031,0.54 -1.455,0.953c-0.021,0.009 -0.045,0.007 -0.066,0.013c-3.298,1.09 -4.461,5.914 -2.603,10.76c1.667,4.349 5.188,7.219 8.279,6.981z" fill="#6D6E71"/>
     <path id="svg_183" d="m257.638334,374.240272c0.681,0.095 1.357,0.082 1.995,-0.137c0.938,-0.326 1.68,-1.012 2.238,-1.903c2.806,-1.171 3.782,-5.686 2.156,-10.25c-1.529,-4.278 -4.795,-7.053 -7.611,-6.674c-0.627,-0.075 -1.253,-0.062 -1.844,0.143c-0.545,0.187 -1.002,0.527 -1.422,0.922c-0.496,-0.005 -0.982,0.048 -1.447,0.205c-3.303,1.094 -4.461,5.913 -2.607,10.762c1.711,4.475 5.39,7.365 8.542,6.932z" fill="#6D6E71"/>
     <path id="svg_184" d="m259.277334,344.420272c1.029,0.115 2.012,-0.014 2.844,-0.507c0.063,-0.038 0.104,-0.097 0.168,-0.138c0.611,-0.045 1.207,-0.184 1.729,-0.5c2.677,-1.626 2.757,-6.372 0.188,-10.605c-2.119,-3.467 -5.351,-5.47 -7.925,-5.191c-0.323,-0.036 -0.635,-0.034 -0.936,-0.013c-0.219,-0.019 -0.428,-0.023 -0.637,-0.019c-0.367,-0.026 -0.719,0 -1.066,0.051c-1.1,-0.137 -2.149,-0.01 -3.035,0.49c-2.988,1.696 -3.073,6.635 -0.209,11.036c2.371,3.622 5.996,5.704 8.879,5.396z" fill="#6D6E71"/>
    </g>
    <g id="svg_185">
     <path id="svg_186" d="m288.556334,386.248272c0.269,5.541 -2.351,10.178 -5.856,10.341c-3.512,0.173 -6.577,-4.175 -6.85,-9.719c-0.273,-5.536 2.353,-10.173 5.858,-10.341c3.515,-0.177 6.573,4.183 6.848,9.719z" fill="#58595B"/>
     <path id="svg_187" d="m269.800334,388.646272c0.274,5.543 -2.353,10.178 -5.857,10.342c-3.512,0.174 -6.577,-4.176 -6.849,-9.72c-0.268,-5.536 2.357,-10.172 5.857,-10.341c3.516,-0.173 6.572,4.182 6.849,9.719z" fill="#58595B"/>
     <path id="svg_188" d="m287.391334,416.349272c-0.445,6.14 -3.951,10.893 -7.84,10.605c-3.887,-0.277 -6.682,-5.478 -6.236,-11.618c0.439,-6.136 3.951,-10.888 7.836,-10.604c3.89,0.277 6.674,5.486 6.24,11.617z" fill="#58595B"/>
     <path id="svg_189" d="m264.199334,418.311272c-0.447,6.14 -3.951,10.893 -7.838,10.604c-3.892,-0.277 -6.682,-5.477 -6.238,-11.617c0.443,-6.135 3.951,-10.889 7.833,-10.604c3.892,0.277 6.675,5.486 6.243,11.617z" fill="#58595B"/>
     <path id="svg_190" d="m280.355334,358.483272c1.615,4.539 0.603,9.049 -2.271,10.068c-2.875,1.029 -6.513,-1.819 -8.136,-6.355c-1.614,-4.538 -0.607,-9.048 2.269,-10.069c2.878,-1.031 6.516,1.821 8.138,6.356z" fill="#58595B"/>
     <path id="svg_191" d="m264.719334,362.400272c1.617,4.539 0.599,9.051 -2.271,10.071c-2.875,1.029 -6.518,-1.819 -8.139,-6.356c-1.615,-4.538 -0.604,-9.049 2.271,-10.069c2.873,-1.031 6.513,1.821 8.139,6.354z" fill="#58595B"/>
     <path id="svg_192" d="m264.887334,333.906272c2.504,4.119 2.426,8.74 -0.183,10.32c-2.612,1.588 -6.748,-0.46 -9.259,-4.575c-2.498,-4.114 -2.422,-8.737 0.186,-10.323c2.612,-1.587 6.748,0.466 9.256,4.578z" fill="#58595B"/>
    </g>
    <path id="svg_193" d="m231.904334,4.899272c-125.423,0 -227.096,101.674 -227.096,227.094c0,125.419 101.674,227.094 227.097,227.094c125.416,0 227.094,-101.675 227.094,-227.094c-0.001,-125.42 -101.679,-227.094 -227.095,-227.094zm0,433.831c-114.184,0 -206.74,-92.559 -206.74,-206.736c0,-114.177 92.557,-206.736 206.74,-206.736c114.176,0 206.738,92.559 206.738,206.736c0.001,114.177 -92.562,206.736 -206.738,206.736z"/>
   </g>
  </g>
  <g id="Layer_4"/>
 </g>
</svg>